{"glyphs":{"0":{"ha":694,"x_min":0,"x_max":579,"o":"m 463 810 l 116 810 l 116 926 l 463 926 l 463 810 m 231 579 l 347 579 l 347 347 l 231 347 l 231 579 m 0 810 l 116 810 l 116 347 l 231 347 l 231 231 l 116 231 l 116 116 l 0 116 l 0 810 m 579 116 l 463 116 l 463 579 l 347 579 l 347 694 l 463 694 l 463 810 l 579 810 l 579 116 m 463 116 l 463 0 l 116 0 l 116 116 l 463 116 z "},"1":{"ha":694,"x_min":0,"x_max":579,"o":"m 231 694 l 0 694 l 0 810 l 231 810 l 231 926 l 347 926 l 347 116 l 579 116 l 579 0 l 0 0 l 0 116 l 231 116 l 231 694 z "},"2":{"ha":694,"x_min":0,"x_max":579,"o":"m 463 810 l 116 810 l 116 926 l 463 926 l 463 810 m 0 810 l 116 810 l 116 694 l 0 694 l 0 810 m 463 810 l 579 810 l 579 579 l 463 579 l 463 810 m 347 579 l 463 579 l 463 463 l 347 463 l 347 579 m 231 463 l 347 463 l 347 347 l 231 347 l 231 463 m 116 347 l 231 347 l 231 231 l 116 231 l 116 347 m 579 116 l 579 0 l 0 0 l 0 231 l 116 231 l 116 116 l 579 116 z "},"3":{"ha":694,"x_min":0,"x_max":579,"o":"m 463 810 l 116 810 l 116 926 l 463 926 l 463 810 m 0 810 l 116 810 l 116 694 l 0 694 l 0 810 m 463 810 l 579 810 l 579 579 l 463 579 l 463 810 m 231 579 l 463 579 l 463 463 l 231 463 l 231 579 m 0 231 l 116 231 l 116 116 l 0 116 l 0 231 m 463 463 l 579 463 l 579 116 l 463 116 l 463 463 m 463 116 l 463 0 l 116 0 l 116 116 l 463 116 z "},"4":{"ha":694,"x_min":0,"x_max":579,"o":"m 116 810 l 231 810 l 231 579 l 116 579 l 116 810 m 0 579 l 116 579 l 116 347 l 347 347 l 347 810 l 231 810 l 231 926 l 463 926 l 463 347 l 579 347 l 579 231 l 463 231 l 463 0 l 347 0 l 347 231 l 0 231 l 0 579 z "},"5":{"ha":694,"x_min":0,"x_max":579,"o":"m 579 926 l 579 810 l 116 810 l 116 579 l 463 579 l 463 463 l 0 463 l 0 926 l 579 926 m 0 231 l 116 231 l 116 116 l 0 116 l 0 231 m 463 463 l 579 463 l 579 116 l 463 116 l 463 463 m 463 116 l 463 0 l 116 0 l 116 116 l 463 116 z "},"6":{"ha":694,"x_min":0,"x_max":579,"o":"m 463 810 l 116 810 l 116 926 l 463 926 l 463 810 m 463 810 l 579 810 l 579 694 l 463 694 l 463 810 m 0 810 l 116 810 l 116 579 l 463 579 l 463 463 l 116 463 l 116 116 l 0 116 l 0 810 m 463 463 l 579 463 l 579 116 l 463 116 l 463 463 m 463 116 l 463 0 l 116 0 l 116 116 l 463 116 z "},"7":{"ha":694,"x_min":0,"x_max":579,"o":"m 463 810 l 0 810 l 0 926 l 579 926 l 579 579 l 463 579 l 463 810 m 347 579 l 463 579 l 463 347 l 347 347 l 347 579 m 231 347 l 347 347 l 347 0 l 231 0 l 231 347 z "},"8":{"ha":694,"x_min":0,"x_max":579,"o":"m 463 810 l 116 810 l 116 926 l 463 926 l 463 810 m 0 810 l 116 810 l 116 579 l 0 579 l 0 810 m 463 810 l 579 810 l 579 579 l 463 579 l 463 810 m 463 579 l 463 463 l 116 463 l 116 579 l 463 579 m 0 463 l 116 463 l 116 116 l 0 116 l 0 463 m 463 463 l 579 463 l 579 116 l 463 116 l 463 463 m 463 116 l 463 0 l 116 0 l 116 116 l 463 116 z "},"9":{"ha":694,"x_min":0,"x_max":579,"o":"m 463 810 l 116 810 l 116 926 l 463 926 l 463 810 m 0 810 l 116 810 l 116 463 l 0 463 l 0 810 m 0 231 l 116 231 l 116 116 l 0 116 l 0 231 m 463 810 l 579 810 l 579 116 l 463 116 l 463 347 l 116 347 l 116 463 l 463 463 l 463 810 m 463 116 l 463 0 l 116 0 l 116 116 l 463 116 z "},"!":{"ha":694,"x_min":231,"x_max":347,"o":"m 231 926 l 347 926 l 347 231 l 231 231 l 231 926 m 231 116 l 347 116 l 347 0 l 231 0 l 231 116 z "},"\"":{"ha":694,"x_min":116,"x_max":463,"o":"m 116 926 l 231 926 l 231 579 l 116 579 l 116 926 m 347 926 l 463 926 l 463 579 l 347 579 l 347 926 z "},"#":{"ha":694,"x_min":0,"x_max":579,"o":"m 231 579 l 231 347 l 347 347 l 347 579 l 231 579 m 0 347 l 116 347 l 116 579 l 0 579 l 0 694 l 116 694 l 116 926 l 231 926 l 231 694 l 347 694 l 347 926 l 463 926 l 463 694 l 579 694 l 579 579 l 463 579 l 463 347 l 579 347 l 579 231 l 463 231 l 463 0 l 347 0 l 347 231 l 231 231 l 231 0 l 116 0 l 116 231 l 0 231 l 0 347 z "},"%":{"ha":694,"x_min":0,"x_max":579,"o":"m 116 926 l 231 926 l 231 810 l 116 810 l 116 926 m 0 810 l 116 810 l 116 694 l 0 694 l 0 810 m 231 810 l 347 810 l 347 694 l 231 694 l 231 810 m 463 926 l 579 926 l 579 694 l 463 694 l 463 926 m 116 694 l 231 694 l 231 579 l 116 579 l 116 694 m 347 694 l 463 694 l 463 579 l 347 579 l 347 694 m 231 579 l 347 579 l 347 347 l 231 347 l 231 579 m 116 347 l 231 347 l 231 231 l 116 231 l 116 347 m 347 347 l 463 347 l 463 231 l 347 231 l 347 347 m 231 231 l 347 231 l 347 116 l 231 116 l 231 231 m 463 231 l 579 231 l 579 116 l 463 116 l 463 231 m 0 231 l 116 231 l 116 0 l 0 0 l 0 231 m 347 116 l 463 116 l 463 0 l 347 0 l 347 116 z "},"&":{"ha":694,"x_min":0,"x_max":579,"o":"m 116 926 l 347 926 l 347 810 l 116 810 l 116 926 m 347 810 l 463 810 l 463 579 l 347 579 l 347 810 m 0 810 l 116 810 l 116 463 l 0 463 l 0 810 m 231 579 l 347 579 l 347 463 l 231 463 l 231 579 m 116 463 l 231 463 l 231 347 l 116 347 l 116 463 m 231 347 l 347 347 l 347 231 l 231 231 l 231 347 m 463 463 l 579 463 l 579 231 l 463 231 l 463 463 m 0 347 l 116 347 l 116 116 l 0 116 l 0 347 m 347 231 l 463 231 l 463 116 l 347 116 l 347 231 m 347 0 l 116 0 l 116 116 l 347 116 l 347 0 m 463 116 l 579 116 l 579 0 l 463 0 l 463 116 z "},"'":{"ha":694,"x_min":231,"x_max":347,"o":"m 231 926 l 347 926 l 347 579 l 231 579 l 231 926 z "},"(":{"ha":694,"x_min":116,"x_max":463,"o":"m 347 1042 l 463 1042 l 463 926 l 347 926 l 347 1042 m 231 926 l 347 926 l 347 694 l 231 694 l 231 926 m 116 694 l 231 694 l 231 231 l 116 231 l 116 694 m 231 231 l 347 231 l 347 0 l 231 0 l 231 231 m 347 0 l 463 0 l 463 -116 l 347 -116 l 347 0 z "},")":{"ha":694,"x_min":116,"x_max":463,"o":"m 116 1042 l 231 1042 l 231 926 l 116 926 l 116 1042 m 231 926 l 347 926 l 347 694 l 231 694 l 231 926 m 347 694 l 463 694 l 463 231 l 347 231 l 347 694 m 231 231 l 347 231 l 347 0 l 231 0 l 231 231 m 116 0 l 231 0 l 231 -116 l 116 -116 l 116 0 z "},"*":{"ha":694,"x_min":0,"x_max":579,"o":"m 0 579 l 116 579 l 116 463 l 0 463 l 0 579 m 463 579 l 579 579 l 579 463 l 463 463 l 463 579 m 0 347 l 116 347 l 116 231 l 0 231 l 0 347 m 463 347 l 579 347 l 579 231 l 463 231 l 463 347 m 231 694 l 347 694 l 347 463 l 463 463 l 463 347 l 347 347 l 347 116 l 231 116 l 231 347 l 116 347 l 116 463 l 231 463 l 231 694 z "},"+":{"ha":694,"x_min":0,"x_max":579,"o":"m 231 694 l 347 694 l 347 463 l 579 463 l 579 347 l 347 347 l 347 116 l 231 116 l 231 347 l 0 347 l 0 463 l 231 463 l 231 694 z "},",":{"ha":694,"x_min":116,"x_max":347,"o":"m 231 116 l 347 116 l 347 -116 l 231 -116 l 231 116 m 116 -116 l 231 -116 l 231 -231 l 116 -231 l 116 -116 z "},"-":{"ha":694,"x_min":0,"x_max":579,"o":"m 579 463 l 579 347 l 0 347 l 0 463 l 579 463 z "},".":{"ha":694,"x_min":231,"x_max":347,"o":"m 231 116 l 347 116 l 347 0 l 231 0 l 231 116 z "},"/":{"ha":694,"x_min":0,"x_max":579,"o":"m 463 1042 l 579 1042 l 579 810 l 463 810 l 463 1042 m 347 810 l 463 810 l 463 579 l 347 579 l 347 810 m 231 579 l 347 579 l 347 347 l 231 347 l 231 579 m 116 347 l 231 347 l 231 116 l 116 116 l 116 347 m 0 116 l 116 116 l 116 -116 l 0 -116 l 0 116 z "},":":{"ha":694,"x_min":231,"x_max":347,"o":"m 231 694 l 347 694 l 347 579 l 231 579 l 231 694 m 231 116 l 347 116 l 347 0 l 231 0 l 231 116 z "},";":{"ha":694,"x_min":116,"x_max":347,"o":"m 231 694 l 347 694 l 347 579 l 231 579 l 231 694 m 231 116 l 347 116 l 347 -116 l 231 -116 l 231 116 m 116 -116 l 231 -116 l 231 -231 l 116 -231 l 116 -116 z "},"<":{"ha":694,"x_min":116,"x_max":579,"o":"m 463 810 l 579 810 l 579 694 l 463 694 l 463 810 m 347 694 l 463 694 l 463 579 l 347 579 l 347 694 m 231 579 l 347 579 l 347 463 l 231 463 l 231 579 m 116 463 l 231 463 l 231 347 l 116 347 l 116 463 m 231 347 l 347 347 l 347 231 l 231 231 l 231 347 m 347 231 l 463 231 l 463 116 l 347 116 l 347 231 m 463 116 l 579 116 l 579 0 l 463 0 l 463 116 z "},"=":{"ha":694,"x_min":0,"x_max":579,"o":"m 579 463 l 0 463 l 0 579 l 579 579 l 579 463 m 0 347 l 579 347 l 579 231 l 0 231 l 0 347 z "},">":{"ha":694,"x_min":116,"x_max":579,"o":"m 116 810 l 231 810 l 231 694 l 116 694 l 116 810 m 231 694 l 347 694 l 347 579 l 231 579 l 231 694 m 347 579 l 463 579 l 463 463 l 347 463 l 347 579 m 463 463 l 579 463 l 579 347 l 463 347 l 463 463 m 347 347 l 463 347 l 463 231 l 347 231 l 347 347 m 231 231 l 347 231 l 347 116 l 231 116 l 231 231 m 116 116 l 231 116 l 231 0 l 116 0 l 116 116 z "},"?":{"ha":694,"x_min":0,"x_max":579,"o":"m 463 810 l 116 810 l 116 926 l 463 926 l 463 810 m 0 810 l 116 810 l 116 694 l 0 694 l 0 810 m 463 810 l 579 810 l 579 579 l 463 579 l 463 810 m 347 579 l 463 579 l 463 463 l 347 463 l 347 579 m 231 463 l 347 463 l 347 231 l 231 231 l 231 463 m 231 116 l 347 116 l 347 0 l 231 0 l 231 116 z "},"@":{"ha":694,"x_min":0,"x_max":579,"o":"m 463 810 l 116 810 l 116 926 l 463 926 l 463 810 m 579 116 l 231 116 l 231 579 l 347 579 l 347 231 l 463 231 l 463 579 l 347 579 l 347 694 l 463 694 l 463 810 l 579 810 l 579 116 m 0 810 l 116 810 l 116 0 l 0 0 l 0 810 m 463 0 l 463 -116 l 116 -116 l 116 0 l 463 0 z "},"A":{"ha":694,"x_min":0,"x_max":579,"o":"m 231 926 l 347 926 l 347 694 l 231 694 l 231 926 m 347 463 l 347 694 l 463 694 l 463 347 l 116 347 l 116 694 l 231 694 l 231 463 l 347 463 m 0 347 l 116 347 l 116 0 l 0 0 l 0 347 m 463 347 l 579 347 l 579 0 l 463 0 l 463 347 z "},"B":{"ha":694,"x_min":0,"x_max":579,"o":"m 463 810 l 579 810 l 579 579 l 463 579 l 463 810 m 463 463 l 579 463 l 579 116 l 463 116 l 463 463 m 0 926 l 463 926 l 463 810 l 116 810 l 116 579 l 463 579 l 463 463 l 116 463 l 116 116 l 463 116 l 463 0 l 0 0 l 0 926 z "},"C":{"ha":694,"x_min":0,"x_max":579,"o":"m 463 810 l 116 810 l 116 926 l 463 926 l 463 810 m 463 810 l 579 810 l 579 694 l 463 694 l 463 810 m 0 810 l 116 810 l 116 116 l 0 116 l 0 810 m 463 231 l 579 231 l 579 116 l 463 116 l 463 231 m 463 116 l 463 0 l 116 0 l 116 116 l 463 116 z "},"D":{"ha":694,"x_min":0,"x_max":579,"o":"m 463 810 l 579 810 l 579 116 l 463 116 l 463 810 m 0 926 l 463 926 l 463 810 l 116 810 l 116 116 l 463 116 l 463 0 l 0 0 l 0 926 z "},"E":{"ha":694,"x_min":0,"x_max":579,"o":"m 0 926 l 579 926 l 579 810 l 116 810 l 116 579 l 463 579 l 463 463 l 116 463 l 116 116 l 579 116 l 579 0 l 0 0 l 0 926 z "},"F":{"ha":694,"x_min":0,"x_max":579,"o":"m 0 926 l 579 926 l 579 810 l 116 810 l 116 579 l 463 579 l 463 463 l 116 463 l 116 0 l 0 0 l 0 926 z "},"G":{"ha":694,"x_min":0,"x_max":579,"o":"m 463 810 l 116 810 l 116 926 l 463 926 l 463 810 m 463 810 l 579 810 l 579 694 l 463 694 l 463 810 m 0 810 l 116 810 l 116 116 l 0 116 l 0 810 m 579 0 l 116 0 l 116 116 l 463 116 l 463 347 l 347 347 l 347 463 l 579 463 l 579 0 z "},"H":{"ha":694,"x_min":0,"x_max":579,"o":"m 0 926 l 116 926 l 116 579 l 463 579 l 463 926 l 579 926 l 579 0 l 463 0 l 463 463 l 116 463 l 116 0 l 0 0 l 0 926 z "},"I":{"ha":694,"x_min":0,"x_max":579,"o":"m 231 810 l 0 810 l 0 926 l 579 926 l 579 810 l 347 810 l 347 116 l 579 116 l 579 0 l 0 0 l 0 116 l 231 116 l 231 810 z "},"J":{"ha":694,"x_min":0,"x_max":579,"o":"m 0 347 l 116 347 l 116 116 l 0 116 l 0 347 m 463 926 l 579 926 l 579 116 l 463 116 l 463 926 m 463 116 l 463 0 l 116 0 l 116 116 l 463 116 z "},"K":{"ha":694,"x_min":0,"x_max":579,"o":"m 463 926 l 579 926 l 579 810 l 463 810 l 463 926 m 347 810 l 463 810 l 463 694 l 347 694 l 347 810 m 231 694 l 347 694 l 347 579 l 231 579 l 231 694 m 231 347 l 347 347 l 347 231 l 231 231 l 231 347 m 347 231 l 463 231 l 463 116 l 347 116 l 347 231 m 0 926 l 116 926 l 116 579 l 231 579 l 231 347 l 116 347 l 116 0 l 0 0 l 0 926 m 463 116 l 579 116 l 579 0 l 463 0 l 463 116 z "},"L":{"ha":694,"x_min":0,"x_max":579,"o":"m 0 926 l 116 926 l 116 116 l 579 116 l 579 0 l 0 0 l 0 926 z "},"M":{"ha":694,"x_min":0,"x_max":579,"o":"m 231 463 l 347 463 l 347 231 l 231 231 l 231 463 m 0 926 l 116 926 l 116 694 l 231 694 l 231 463 l 116 463 l 116 0 l 0 0 l 0 926 m 579 0 l 463 0 l 463 463 l 347 463 l 347 694 l 463 694 l 463 926 l 579 926 l 579 0 z "},"N":{"ha":694,"x_min":0,"x_max":579,"o":"m 231 579 l 347 579 l 347 347 l 231 347 l 231 579 m 0 926 l 116 926 l 116 810 l 231 810 l 231 579 l 116 579 l 116 0 l 0 0 l 0 926 m 463 926 l 579 926 l 579 0 l 463 0 l 463 116 l 347 116 l 347 347 l 463 347 l 463 926 z "},"O":{"ha":694,"x_min":0,"x_max":579,"o":"m 463 810 l 116 810 l 116 926 l 463 926 l 463 810 m 0 810 l 116 810 l 116 116 l 0 116 l 0 810 m 463 810 l 579 810 l 579 116 l 463 116 l 463 810 m 463 116 l 463 0 l 116 0 l 116 116 l 463 116 z "},"P":{"ha":694,"x_min":0,"x_max":579,"o":"m 463 810 l 579 810 l 579 463 l 463 463 l 463 810 m 0 926 l 463 926 l 463 810 l 116 810 l 116 463 l 463 463 l 463 347 l 116 347 l 116 0 l 0 0 l 0 926 z "},"Q":{"ha":694,"x_min":0,"x_max":579,"o":"m 463 810 l 116 810 l 116 926 l 463 926 l 463 810 m 231 347 l 347 347 l 347 231 l 231 231 l 231 347 m 463 810 l 579 810 l 579 231 l 463 231 l 463 810 m 0 810 l 116 810 l 116 116 l 0 116 l 0 810 m 347 231 l 463 231 l 463 116 l 347 116 l 347 231 m 347 0 l 116 0 l 116 116 l 347 116 l 347 0 m 463 116 l 579 116 l 579 0 l 463 0 l 463 116 z "},"R":{"ha":694,"x_min":0,"x_max":579,"o":"m 463 810 l 579 810 l 579 463 l 463 463 l 463 810 m 0 926 l 463 926 l 463 810 l 116 810 l 116 463 l 463 463 l 463 231 l 347 231 l 347 347 l 116 347 l 116 0 l 0 0 l 0 926 m 463 231 l 579 231 l 579 0 l 463 0 l 463 231 z "},"S":{"ha":694,"x_min":0,"x_max":579,"o":"m 463 810 l 116 810 l 116 926 l 463 926 l 463 810 m 463 810 l 579 810 l 579 694 l 463 694 l 463 810 m 0 810 l 116 810 l 116 579 l 0 579 l 0 810 m 347 463 l 116 463 l 116 579 l 347 579 l 347 463 m 347 463 l 463 463 l 463 347 l 347 347 l 347 463 m 0 231 l 116 231 l 116 116 l 0 116 l 0 231 m 463 347 l 579 347 l 579 116 l 463 116 l 463 347 m 463 116 l 463 0 l 116 0 l 116 116 l 463 116 z "},"T":{"ha":694,"x_min":0,"x_max":579,"o":"m 231 810 l 0 810 l 0 926 l 579 926 l 579 810 l 347 810 l 347 0 l 231 0 l 231 810 z "},"U":{"ha":694,"x_min":0,"x_max":579,"o":"m 0 926 l 116 926 l 116 116 l 0 116 l 0 926 m 463 926 l 579 926 l 579 116 l 463 116 l 463 926 m 463 116 l 463 0 l 116 0 l 116 116 l 463 116 z "},"V":{"ha":694,"x_min":0,"x_max":579,"o":"m 0 926 l 116 926 l 116 579 l 0 579 l 0 926 m 463 926 l 579 926 l 579 579 l 463 579 l 463 926 m 116 579 l 231 579 l 231 231 l 116 231 l 116 579 m 347 579 l 463 579 l 463 231 l 347 231 l 347 579 m 231 231 l 347 231 l 347 0 l 231 0 l 231 231 z "},"W":{"ha":694,"x_min":0,"x_max":579,"o":"m 0 926 l 116 926 l 116 347 l 0 347 l 0 926 m 231 926 l 347 926 l 347 347 l 231 347 l 231 926 m 463 926 l 579 926 l 579 347 l 463 347 l 463 926 m 116 347 l 231 347 l 231 0 l 116 0 l 116 347 m 347 347 l 463 347 l 463 0 l 347 0 l 347 347 z "},"X":{"ha":694,"x_min":0,"x_max":579,"o":"m 0 926 l 116 926 l 116 694 l 0 694 l 0 926 m 463 926 l 579 926 l 579 694 l 463 694 l 463 926 m 116 694 l 231 694 l 231 579 l 116 579 l 116 694 m 347 694 l 463 694 l 463 579 l 347 579 l 347 694 m 231 579 l 347 579 l 347 347 l 231 347 l 231 579 m 116 347 l 231 347 l 231 231 l 116 231 l 116 347 m 347 347 l 463 347 l 463 231 l 347 231 l 347 347 m 0 231 l 116 231 l 116 0 l 0 0 l 0 231 m 463 231 l 579 231 l 579 0 l 463 0 l 463 231 z "},"Y":{"ha":694,"x_min":0,"x_max":579,"o":"m 0 926 l 116 926 l 116 694 l 0 694 l 0 926 m 463 926 l 579 926 l 579 694 l 463 694 l 463 926 m 116 694 l 231 694 l 231 463 l 116 463 l 116 694 m 347 694 l 463 694 l 463 463 l 347 463 l 347 694 m 231 463 l 347 463 l 347 0 l 231 0 l 231 463 z "},"Z":{"ha":694,"x_min":0,"x_max":579,"o":"m 0 926 l 579 926 l 579 694 l 463 694 l 463 810 l 0 810 l 0 926 m 347 694 l 463 694 l 463 579 l 347 579 l 347 694 m 231 579 l 347 579 l 347 347 l 231 347 l 231 579 m 116 347 l 231 347 l 231 231 l 116 231 l 116 347 m 579 116 l 579 0 l 0 0 l 0 231 l 116 231 l 116 116 l 579 116 z "},"[":{"ha":694,"x_min":116,"x_max":463,"o":"m 116 1042 l 463 1042 l 463 926 l 231 926 l 231 0 l 463 0 l 463 -116 l 116 -116 l 116 1042 z "},"\\":{"ha":694,"x_min":0,"x_max":579,"o":"m 0 1042 l 116 1042 l 116 810 l 0 810 l 0 1042 m 116 810 l 231 810 l 231 579 l 116 579 l 116 810 m 231 579 l 347 579 l 347 347 l 231 347 l 231 579 m 347 347 l 463 347 l 463 116 l 347 116 l 347 347 m 463 116 l 579 116 l 579 -116 l 463 -116 l 463 116 z "},"]":{"ha":694,"x_min":116,"x_max":463,"o":"m 347 926 l 116 926 l 116 1042 l 463 1042 l 463 -116 l 116 -116 l 116 0 l 347 0 l 347 926 z "},"a":{"ha":694,"x_min":0,"x_max":579,"o":"m 463 694 l 463 579 l 116 579 l 116 694 l 463 694 m 0 347 l 116 347 l 116 116 l 0 116 l 0 347 m 579 0 l 116 0 l 116 116 l 463 116 l 463 347 l 116 347 l 116 463 l 463 463 l 463 579 l 579 579 l 579 0 z "},"b":{"ha":694,"x_min":0,"x_max":579,"o":"m 463 579 l 579 579 l 579 116 l 463 116 l 463 579 m 0 926 l 116 926 l 116 694 l 463 694 l 463 579 l 116 579 l 116 116 l 463 116 l 463 0 l 0 0 l 0 926 z "},"c":{"ha":694,"x_min":0,"x_max":579,"o":"m 463 694 l 463 579 l 116 579 l 116 694 l 463 694 m 463 579 l 579 579 l 579 463 l 463 463 l 463 579 m 0 579 l 116 579 l 116 116 l 0 116 l 0 579 m 463 231 l 579 231 l 579 116 l 463 116 l 463 231 m 463 116 l 463 0 l 116 0 l 116 116 l 463 116 z "},"d":{"ha":694,"x_min":0,"x_max":579,"o":"m 0 579 l 116 579 l 116 116 l 0 116 l 0 579 m 579 0 l 116 0 l 116 116 l 463 116 l 463 579 l 116 579 l 116 694 l 463 694 l 463 926 l 579 926 l 579 0 z "},"e":{"ha":694,"x_min":0,"x_max":579,"o":"m 463 694 l 463 579 l 116 579 l 116 694 l 463 694 m 0 579 l 116 579 l 116 463 l 463 463 l 463 579 l 579 579 l 579 347 l 116 347 l 116 116 l 0 116 l 0 579 m 463 231 l 579 231 l 579 116 l 463 116 l 463 231 m 463 116 l 463 0 l 116 0 l 116 116 l 463 116 z "},"f":{"ha":694,"x_min":0,"x_max":579,"o":"m 347 926 l 579 926 l 579 810 l 347 810 l 347 926 m 579 579 l 347 579 l 347 0 l 231 0 l 231 579 l 0 579 l 0 694 l 231 694 l 231 810 l 347 810 l 347 694 l 579 694 l 579 579 z "},"g":{"ha":694,"x_min":0,"x_max":579,"o":"m 0 579 l 116 579 l 116 116 l 0 116 l 0 579 m 579 -116 l 463 -116 l 463 0 l 116 0 l 116 116 l 463 116 l 463 579 l 116 579 l 116 694 l 579 694 l 579 -116 m 116 -116 l 463 -116 l 463 -231 l 116 -231 l 116 -116 z "},"h":{"ha":694,"x_min":0,"x_max":579,"o":"m 231 694 l 463 694 l 463 579 l 231 579 l 231 694 m 0 926 l 116 926 l 116 579 l 231 579 l 231 463 l 116 463 l 116 0 l 0 0 l 0 926 m 463 579 l 579 579 l 579 0 l 463 0 l 463 579 z "},"i":{"ha":694,"x_min":0,"x_max":579,"o":"m 231 926 l 347 926 l 347 810 l 231 810 l 231 926 m 347 116 l 579 116 l 579 0 l 0 0 l 0 116 l 231 116 l 231 579 l 0 579 l 0 694 l 347 694 l 347 116 z "},"j":{"ha":694,"x_min":0,"x_max":463,"o":"m 347 926 l 463 926 l 463 810 l 347 810 l 347 926 m 347 579 l 0 579 l 0 694 l 463 694 l 463 -116 l 347 -116 l 347 579 m 347 -116 l 347 -231 l 0 -231 l 0 -116 l 347 -116 z "},"k":{"ha":694,"x_min":0,"x_max":579,"o":"m 463 694 l 579 694 l 579 579 l 463 579 l 463 694 m 231 579 l 463 579 l 463 463 l 231 463 l 231 579 m 231 347 l 347 347 l 347 231 l 231 231 l 231 347 m 347 231 l 463 231 l 463 116 l 347 116 l 347 231 m 0 926 l 116 926 l 116 463 l 231 463 l 231 347 l 116 347 l 116 0 l 0 0 l 0 926 m 463 116 l 579 116 l 579 0 l 463 0 l 463 116 z "},"l":{"ha":694,"x_min":0,"x_max":579,"o":"m 231 810 l 0 810 l 0 926 l 347 926 l 347 116 l 231 116 l 231 810 m 579 0 l 347 0 l 347 116 l 579 116 l 579 0 z "},"m":{"ha":694,"x_min":0,"x_max":579,"o":"m 347 694 l 463 694 l 463 579 l 347 579 l 347 694 m 0 694 l 231 694 l 231 579 l 116 579 l 116 0 l 0 0 l 0 694 m 231 579 l 347 579 l 347 0 l 231 0 l 231 579 m 463 579 l 579 579 l 579 0 l 463 0 l 463 579 z "},"n":{"ha":694,"x_min":0,"x_max":579,"o":"m 231 694 l 463 694 l 463 579 l 231 579 l 231 694 m 0 694 l 116 694 l 116 579 l 231 579 l 231 463 l 116 463 l 116 0 l 0 0 l 0 694 m 463 579 l 579 579 l 579 0 l 463 0 l 463 579 z "},"o":{"ha":694,"x_min":0,"x_max":579,"o":"m 463 694 l 463 579 l 116 579 l 116 694 l 463 694 m 0 579 l 116 579 l 116 116 l 0 116 l 0 579 m 463 579 l 579 579 l 579 116 l 463 116 l 463 579 m 463 116 l 463 0 l 116 0 l 116 116 l 463 116 z "},"p":{"ha":694,"x_min":0,"x_max":579,"o":"m 463 579 l 579 579 l 579 116 l 463 116 l 463 579 m 0 694 l 463 694 l 463 579 l 116 579 l 116 116 l 463 116 l 463 0 l 116 0 l 116 -231 l 0 -231 l 0 694 z "},"q":{"ha":694,"x_min":0,"x_max":579,"o":"m 0 579 l 116 579 l 116 116 l 0 116 l 0 579 m 579 -231 l 463 -231 l 463 0 l 116 0 l 116 116 l 463 116 l 463 579 l 116 579 l 116 694 l 579 694 l 579 -231 z "},"r":{"ha":694,"x_min":0,"x_max":579,"o":"m 231 694 l 463 694 l 463 579 l 231 579 l 231 694 m 463 579 l 579 579 l 579 463 l 463 463 l 463 579 m 0 694 l 116 694 l 116 579 l 231 579 l 231 463 l 116 463 l 116 0 l 0 0 l 0 694 z "},"s":{"ha":694,"x_min":0,"x_max":579,"o":"m 463 694 l 463 579 l 116 579 l 116 694 l 463 694 m 0 579 l 116 579 l 116 463 l 0 463 l 0 579 m 463 579 l 579 579 l 579 463 l 463 463 l 463 579 m 116 463 l 347 463 l 347 347 l 116 347 l 116 463 m 347 347 l 463 347 l 463 231 l 347 231 l 347 347 m 0 231 l 116 231 l 116 116 l 0 116 l 0 231 m 463 231 l 579 231 l 579 116 l 463 116 l 463 231 m 463 116 l 463 0 l 116 0 l 116 116 l 463 116 z "},"t":{"ha":694,"x_min":0,"x_max":579,"o":"m 579 579 l 347 579 l 347 116 l 231 116 l 231 579 l 0 579 l 0 694 l 231 694 l 231 926 l 347 926 l 347 694 l 579 694 l 579 579 m 579 0 l 347 0 l 347 116 l 579 116 l 579 0 z "},"u":{"ha":694,"x_min":0,"x_max":579,"o":"m 0 694 l 116 694 l 116 116 l 0 116 l 0 694 m 347 0 l 116 0 l 116 116 l 347 116 l 347 0 m 463 694 l 579 694 l 579 0 l 463 0 l 463 116 l 347 116 l 347 231 l 463 231 l 463 694 z "},"v":{"ha":694,"x_min":0,"x_max":579,"o":"m 0 694 l 116 694 l 116 463 l 0 463 l 0 694 m 463 694 l 579 694 l 579 463 l 463 463 l 463 694 m 116 463 l 231 463 l 231 231 l 116 231 l 116 463 m 347 463 l 463 463 l 463 231 l 347 231 l 347 463 m 231 231 l 347 231 l 347 0 l 231 0 l 231 231 z "},"w":{"ha":694,"x_min":0,"x_max":579,"o":"m 0 694 l 116 694 l 116 231 l 0 231 l 0 694 m 231 694 l 347 694 l 347 231 l 231 231 l 231 694 m 463 694 l 579 694 l 579 231 l 463 231 l 463 694 m 116 231 l 231 231 l 231 0 l 116 0 l 116 231 m 347 231 l 463 231 l 463 0 l 347 0 l 347 231 z "},"x":{"ha":694,"x_min":0,"x_max":579,"o":"m 0 694 l 116 694 l 116 579 l 0 579 l 0 694 m 463 694 l 579 694 l 579 579 l 463 579 l 463 694 m 116 579 l 231 579 l 231 463 l 116 463 l 116 579 m 347 579 l 463 579 l 463 463 l 347 463 l 347 579 m 231 463 l 347 463 l 347 231 l 231 231 l 231 463 m 116 231 l 231 231 l 231 116 l 116 116 l 116 231 m 347 231 l 463 231 l 463 116 l 347 116 l 347 231 m 0 116 l 116 116 l 116 0 l 0 0 l 0 116 m 463 116 l 579 116 l 579 0 l 463 0 l 463 116 z "},"y":{"ha":694,"x_min":0,"x_max":579,"o":"m 0 694 l 116 694 l 116 347 l 0 347 l 0 694 m 463 694 l 579 694 l 579 347 l 463 347 l 463 694 m 116 347 l 231 347 l 231 116 l 116 116 l 116 347 m 347 347 l 463 347 l 463 116 l 347 116 l 347 347 m 231 116 l 347 116 l 347 -116 l 231 -116 l 231 116 m 231 -231 l 0 -231 l 0 -116 l 231 -116 l 231 -231 z "},"z":{"ha":694,"x_min":0,"x_max":579,"o":"m 579 579 l 463 579 l 463 463 l 347 463 l 347 579 l 0 579 l 0 694 l 579 694 l 579 579 m 231 463 l 347 463 l 347 347 l 231 347 l 231 463 m 116 347 l 231 347 l 231 231 l 116 231 l 116 347 m 579 116 l 579 0 l 0 0 l 0 231 l 116 231 l 116 116 l 579 116 z "},"{":{"ha":694,"x_min":0,"x_max":463,"o":"m 463 926 l 231 926 l 231 1042 l 463 1042 l 463 926 m 116 926 l 231 926 l 231 579 l 116 579 l 116 926 m 0 579 l 116 579 l 116 463 l 0 463 l 0 579 m 116 463 l 231 463 l 231 0 l 116 0 l 116 463 m 231 0 l 463 0 l 463 -116 l 231 -116 l 231 0 z "},"|":{"ha":694,"x_min":231,"x_max":347,"o":"m 231 1042 l 347 1042 l 347 -116 l 231 -116 l 231 1042 z "},"}":{"ha":694,"x_min":116,"x_max":579,"o":"m 116 1042 l 347 1042 l 347 926 l 116 926 l 116 1042 m 347 926 l 463 926 l 463 579 l 347 579 l 347 926 m 463 579 l 579 579 l 579 463 l 463 463 l 463 579 m 347 463 l 463 463 l 463 0 l 347 0 l 347 463 m 347 -116 l 116 -116 l 116 0 l 347 0 l 347 -116 z "},"~":{"ha":694,"x_min":0,"x_max":579,"o":"m 116 579 l 231 579 l 231 463 l 116 463 l 116 579 m 0 463 l 116 463 l 116 347 l 0 347 l 0 463 m 231 463 l 347 463 l 347 347 l 231 347 l 231 463 m 463 463 l 579 463 l 579 347 l 463 347 l 463 463 m 347 347 l 463 347 l 463 231 l 347 231 l 347 347 z "},"·":{"ha":1389,"x_min":579,"x_max":810,"o":"m 810 231 l 579 231 l 579 463 l 810 463 l 810 231 z "},"—":{"ha":1389,"x_min":0,"x_max":1273,"o":"m 1273 463 l 1273 347 l 0 347 l 0 463 l 1273 463 z "},"‘":{"ha":1389,"x_min":926,"x_max":1157,"o":"m 1042 1042 l 1157 1042 l 1157 926 l 1042 926 l 1042 1042 m 926 926 l 1042 926 l 1042 810 l 1157 810 l 1157 579 l 926 579 l 926 926 z "},"’":{"ha":1389,"x_min":116,"x_max":347,"o":"m 231 810 l 116 810 l 116 1042 l 347 1042 l 347 694 l 231 694 l 231 810 m 116 694 l 231 694 l 231 579 l 116 579 l 116 694 z "},"“":{"ha":1389,"x_min":579,"x_max":1157,"o":"m 694 1042 l 810 1042 l 810 926 l 694 926 l 694 1042 m 1042 1042 l 1157 1042 l 1157 926 l 1042 926 l 1042 1042 m 579 926 l 694 926 l 694 810 l 810 810 l 810 579 l 579 579 l 579 926 m 926 926 l 1042 926 l 1042 810 l 1157 810 l 1157 579 l 926 579 l 926 926 z "},"”":{"ha":1389,"x_min":116,"x_max":694,"o":"m 231 810 l 116 810 l 116 1042 l 347 1042 l 347 694 l 231 694 l 231 810 m 579 810 l 463 810 l 463 1042 l 694 1042 l 694 694 l 579 694 l 579 810 m 116 694 l 231 694 l 231 579 l 116 579 l 116 694 m 463 694 l 579 694 l 579 579 l 463 579 l 463 694 z "},"…":{"ha":1389,"x_min":116,"x_max":1273,"o":"m 116 463 l 347 463 l 347 231 l 116 231 l 116 463 m 810 231 l 579 231 l 579 463 l 810 463 l 810 231 m 1042 463 l 1273 463 l 1273 231 l 1042 231 l 1042 463 z "},"巳":{"ha":1389,"x_min":116,"x_max":1273,"o":"m 231 463 l 1042 463 l 1042 926 l 231 926 l 231 463 m 116 1042 l 1157 1042 l 1157 347 l 231 347 l 231 -116 l 116 -116 l 116 1042 m 1273 -231 l 231 -231 l 231 -116 l 1157 -116 l 1157 116 l 1273 116 l 1273 -231 z "},"母":{"ha":1389,"x_min":0,"x_max":1273,"o":"m 579 810 l 694 810 l 694 694 l 579 694 l 579 810 m 579 347 l 694 347 l 694 231 l 579 231 l 579 347 m 347 926 l 347 579 l 694 579 l 694 694 l 810 694 l 810 579 l 1042 579 l 1042 926 l 347 926 m 116 0 l 116 463 l 0 463 l 0 579 l 231 579 l 231 1042 l 1157 1042 l 1157 579 l 1273 579 l 1273 463 l 1157 463 l 1157 116 l 1273 116 l 1273 0 l 1157 0 l 1157 -116 l 1042 -116 l 1042 0 l 116 0 m 694 116 l 694 231 l 810 231 l 810 116 l 1042 116 l 1042 463 l 231 463 l 231 116 l 694 116 m 810 -116 l 1042 -116 l 1042 -231 l 810 -231 l 810 -116 z "},"民":{"ha":1389,"x_min":0,"x_max":1273,"o":"m 810 116 l 926 116 l 926 0 l 810 0 l 810 116 m 579 -116 l 347 -116 l 347 0 l 579 0 l 579 -116 m 926 0 l 1042 0 l 1042 -116 l 926 -116 l 926 0 m 1157 1042 l 1157 579 l 694 579 l 694 347 l 1273 347 l 1273 231 l 810 231 l 810 116 l 694 116 l 694 231 l 116 231 l 116 -116 l 347 -116 l 347 -231 l 0 -231 l 0 1042 l 1157 1042 m 116 579 l 116 347 l 579 347 l 579 579 l 116 579 m 1042 694 l 1042 926 l 116 926 l 116 694 l 1042 694 m 1042 -116 l 1157 -116 l 1157 0 l 1273 0 l 1273 -231 l 1042 -231 l 1042 -116 z "},"虎":{"ha":1389,"x_min":0,"x_max":1273,"o":"m 579 810 l 579 1042 l 1157 1042 l 1157 926 l 694 926 l 694 810 l 1273 810 l 1273 579 l 1157 579 l 1157 694 l 694 694 l 694 579 l 1042 579 l 1042 463 l 694 463 l 694 347 l 1157 347 l 1157 463 l 1273 463 l 1273 231 l 579 231 l 579 347 l 347 347 l 347 463 l 579 463 l 579 694 l 231 694 l 231 -116 l 116 -116 l 116 810 l 579 810 m 0 -116 l 116 -116 l 116 -231 l 0 -231 l 0 -116 m 231 -116 l 463 -116 l 463 -231 l 231 -231 l 231 -116 m 463 116 l 1042 116 l 1042 -116 l 1157 -116 l 1157 0 l 1273 0 l 1273 -231 l 926 -231 l 926 0 l 579 0 l 579 -116 l 463 -116 l 463 116 z "},"西":{"ha":1389,"x_min":0,"x_max":1273,"o":"m 231 231 l 347 231 l 347 116 l 231 116 l 231 231 m 1157 579 l 926 579 l 926 231 l 1157 231 l 1157 579 m 810 694 l 810 926 l 463 926 l 463 694 l 810 694 m 347 579 l 116 579 l 116 116 l 231 116 l 231 0 l 116 0 l 116 -116 l 1157 -116 l 1157 116 l 810 116 l 810 579 l 463 579 l 463 231 l 347 231 l 347 579 m 1273 1042 l 1273 926 l 926 926 l 926 694 l 1273 694 l 1273 -231 l 0 -231 l 0 694 l 347 694 l 347 926 l 0 926 l 0 1042 l 1273 1042 z "},"见":{"ha":1389,"x_min":0,"x_max":1273,"o":"m 579 694 l 694 694 l 694 231 l 579 231 l 579 694 m 116 1042 l 1157 1042 l 1157 231 l 1042 231 l 1042 926 l 231 926 l 231 231 l 116 231 l 116 1042 m 463 231 l 579 231 l 579 0 l 463 0 l 463 231 m 347 0 l 463 0 l 463 -116 l 347 -116 l 347 0 m 347 -116 l 347 -231 l 0 -231 l 0 -116 l 347 -116 m 1273 -231 l 694 -231 l 694 231 l 810 231 l 810 -116 l 1157 -116 l 1157 116 l 1273 116 l 1273 -231 z "},"角":{"ha":1389,"x_min":0,"x_max":1157,"o":"m 0 -116 l 116 -116 l 116 -231 l 0 -231 l 0 -116 m 1042 579 l 694 579 l 694 463 l 1042 463 l 1042 579 m 694 231 l 1042 231 l 1042 347 l 694 347 l 694 231 m 231 347 l 231 231 l 579 231 l 579 347 l 231 347 m 231 579 l 231 463 l 579 463 l 579 579 l 231 579 m 810 694 l 810 810 l 231 810 l 231 1042 l 347 1042 l 347 926 l 926 926 l 926 694 l 1157 694 l 1157 -231 l 926 -231 l 926 -116 l 1042 -116 l 1042 116 l 694 116 l 694 -231 l 579 -231 l 579 116 l 231 116 l 231 -116 l 116 -116 l 116 579 l 0 579 l 0 694 l 116 694 l 116 810 l 231 810 l 231 694 l 810 694 z "},"贝":{"ha":1389,"x_min":0,"x_max":1273,"o":"m 579 810 l 694 810 l 694 116 l 579 116 l 579 810 m 116 1042 l 1157 1042 l 1157 116 l 1042 116 l 1042 926 l 231 926 l 231 116 l 116 116 l 116 1042 m 463 116 l 579 116 l 579 0 l 463 0 l 463 116 m 694 116 l 810 116 l 810 0 l 694 0 l 694 116 m 231 0 l 463 0 l 463 -116 l 231 -116 l 231 0 m 810 0 l 1042 0 l 1042 -116 l 810 -116 l 810 0 m 231 -231 l 0 -231 l 0 -116 l 231 -116 l 231 -231 m 1042 -116 l 1273 -116 l 1273 -231 l 1042 -231 l 1042 -116 z "},"车":{"ha":1389,"x_min":0,"x_max":1273,"o":"m 1273 926 l 1273 810 l 463 810 l 463 694 l 347 694 l 347 810 l 0 810 l 0 926 l 463 926 l 463 1042 l 579 1042 l 579 926 l 1273 926 m 231 694 l 347 694 l 347 579 l 231 579 l 231 694 m 116 579 l 231 579 l 231 463 l 579 463 l 579 694 l 694 694 l 694 463 l 1157 463 l 1157 347 l 694 347 l 694 116 l 1273 116 l 1273 0 l 694 0 l 694 -231 l 579 -231 l 579 0 l 0 0 l 0 116 l 579 116 l 579 347 l 116 347 l 116 579 z "},"长":{"ha":1389,"x_min":0,"x_max":1273,"o":"m 926 1042 l 1042 1042 l 1042 926 l 926 926 l 926 1042 m 810 926 l 926 926 l 926 810 l 810 810 l 810 926 m 694 810 l 810 810 l 810 694 l 694 694 l 694 810 m 463 694 l 694 694 l 694 579 l 463 579 l 463 694 m 694 231 l 810 231 l 810 116 l 694 116 l 694 231 m 810 116 l 926 116 l 926 0 l 810 0 l 810 116 m 463 0 l 579 0 l 579 -116 l 463 -116 l 463 0 m 926 0 l 1042 0 l 1042 -116 l 926 -116 l 926 0 m 231 1042 l 347 1042 l 347 463 l 1273 463 l 1273 347 l 694 347 l 694 231 l 579 231 l 579 347 l 347 347 l 347 -116 l 463 -116 l 463 -231 l 231 -231 l 231 347 l 0 347 l 0 463 l 231 463 l 231 1042 m 1042 -116 l 1273 -116 l 1273 -231 l 1042 -231 l 1042 -116 z "},"门":{"ha":1389,"x_min":0,"x_max":1273,"o":"m 0 1042 l 116 1042 l 116 926 l 0 926 l 0 1042 m 116 926 l 231 926 l 231 810 l 116 810 l 116 926 m 0 694 l 116 694 l 116 -231 l 0 -231 l 0 694 m 1157 926 l 347 926 l 347 1042 l 1273 1042 l 1273 -231 l 926 -231 l 926 -116 l 1157 -116 l 1157 926 z "},"青":{"ha":1389,"x_min":0,"x_max":1273,"o":"m 926 0 l 926 116 l 347 116 l 347 0 l 926 0 m 347 347 l 347 231 l 926 231 l 926 347 l 347 347 m 579 694 l 579 810 l 116 810 l 116 926 l 579 926 l 579 1042 l 694 1042 l 694 926 l 1157 926 l 1157 810 l 694 810 l 694 694 l 1157 694 l 1157 579 l 694 579 l 694 463 l 1273 463 l 1273 347 l 1042 347 l 1042 -231 l 926 -231 l 926 -116 l 347 -116 l 347 -231 l 231 -231 l 231 347 l 0 347 l 0 463 l 579 463 l 579 579 l 116 579 l 116 694 l 579 694 z "},"页":{"ha":1389,"x_min":0,"x_max":1273,"o":"m 579 579 l 694 579 l 694 116 l 579 116 l 579 579 m 0 1042 l 1273 1042 l 1273 926 l 694 926 l 694 810 l 1157 810 l 1157 116 l 1042 116 l 1042 694 l 231 694 l 231 116 l 116 116 l 116 810 l 579 810 l 579 926 l 0 926 l 0 1042 m 463 116 l 579 116 l 579 0 l 463 0 l 463 116 m 694 116 l 810 116 l 810 0 l 694 0 l 694 116 m 231 0 l 463 0 l 463 -116 l 231 -116 l 231 0 m 810 0 l 1042 0 l 1042 -116 l 810 -116 l 810 0 m 231 -231 l 0 -231 l 0 -116 l 231 -116 l 231 -231 m 1042 -116 l 1273 -116 l 1273 -231 l 1042 -231 l 1042 -116 z "},"风":{"ha":1389,"x_min":0,"x_max":1273,"o":"m 347 694 l 463 694 l 463 579 l 347 579 l 347 694 m 810 810 l 926 810 l 926 579 l 810 579 l 810 810 m 463 579 l 579 579 l 579 463 l 463 463 l 463 579 m 694 579 l 810 579 l 810 463 l 694 463 l 694 579 m 579 463 l 694 463 l 694 231 l 579 231 l 579 463 m 463 231 l 579 231 l 579 116 l 463 116 l 463 231 m 694 231 l 810 231 l 810 116 l 694 116 l 694 231 m 347 116 l 463 116 l 463 0 l 347 0 l 347 116 m 810 116 l 926 116 l 926 0 l 810 0 l 810 116 m 0 -116 l 116 -116 l 116 -231 l 0 -231 l 0 -116 m 1042 926 l 231 926 l 231 -116 l 116 -116 l 116 1042 l 1157 1042 l 1157 0 l 1273 0 l 1273 -231 l 1157 -231 l 1157 -116 l 1042 -116 l 1042 926 z "},"飞":{"ha":1389,"x_min":0,"x_max":1273,"o":"m 1157 926 l 1273 926 l 1273 810 l 1157 810 l 1157 926 m 1042 810 l 1157 810 l 1157 694 l 1042 694 l 1042 810 m 1042 579 l 1157 579 l 1157 463 l 1042 463 l 1042 579 m 1157 463 l 1273 463 l 1273 347 l 1157 347 l 1157 463 m 0 1042 l 926 1042 l 926 694 l 1042 694 l 1042 579 l 926 579 l 926 116 l 810 116 l 810 926 l 0 926 l 0 1042 m 926 116 l 1042 116 l 1042 -116 l 926 -116 l 926 116 m 1157 116 l 1273 116 l 1273 -116 l 1157 -116 l 1157 116 m 1042 -116 l 1157 -116 l 1157 -231 l 1042 -231 l 1042 -116 z "},"食":{"ha":1389,"x_min":0,"x_max":1273,"o":"m 810 926 l 463 926 l 463 1042 l 810 1042 l 810 926 m 463 810 l 231 810 l 231 926 l 463 926 l 463 810 m 1042 810 l 810 810 l 810 926 l 1042 926 l 1042 810 m 0 810 l 231 810 l 231 694 l 0 694 l 0 810 m 1042 810 l 1273 810 l 1273 694 l 1042 694 l 1042 810 m 1157 231 l 1273 231 l 1273 116 l 1157 116 l 1157 231 m 1042 116 l 1157 116 l 1157 0 l 1042 0 l 1042 116 m 463 0 l 579 0 l 579 -116 l 463 -116 l 463 0 m 810 0 l 1042 0 l 1042 -116 l 810 -116 l 810 0 m 347 231 l 926 231 l 926 347 l 347 347 l 347 231 m 347 579 l 347 463 l 926 463 l 926 579 l 347 579 m 1042 116 l 810 116 l 810 0 l 694 0 l 694 116 l 347 116 l 347 -116 l 463 -116 l 463 -231 l 231 -231 l 231 694 l 579 694 l 579 810 l 694 810 l 694 694 l 1042 694 l 1042 116 m 1042 -116 l 1273 -116 l 1273 -231 l 1042 -231 l 1042 -116 z "},"马":{"ha":1389,"x_min":0,"x_max":1273,"o":"m 926 116 l 926 0 l 0 0 l 0 116 l 926 116 m 231 810 l 347 810 l 347 463 l 926 463 l 926 926 l 116 926 l 116 1042 l 1042 1042 l 1042 463 l 1273 463 l 1273 -116 l 1157 -116 l 1157 347 l 231 347 l 231 810 m 1157 -231 l 810 -231 l 810 -116 l 1157 -116 l 1157 -231 z "},"骨":{"ha":1389,"x_min":0,"x_max":1273,"o":"m 926 347 l 926 463 l 347 463 l 347 347 l 926 347 m 347 0 l 347 -231 l 231 -231 l 231 463 l 116 463 l 116 347 l 0 347 l 0 579 l 231 579 l 231 1042 l 1042 1042 l 1042 579 l 1273 579 l 1273 347 l 1157 347 l 1157 463 l 1042 463 l 1042 -231 l 810 -231 l 810 -116 l 926 -116 l 926 0 l 347 0 m 926 116 l 926 231 l 347 231 l 347 116 l 926 116 m 347 694 l 347 579 l 579 579 l 579 694 l 347 694 m 694 810 l 694 579 l 926 579 l 926 926 l 347 926 l 347 810 l 694 810 z "},"鬼":{"ha":1389,"x_min":0,"x_max":1273,"o":"m 347 116 l 463 116 l 463 0 l 347 0 l 347 116 m 231 0 l 347 0 l 347 -116 l 231 -116 l 231 0 m 231 -231 l 0 -231 l 0 -116 l 231 -116 l 231 -231 m 1042 694 l 1042 810 l 694 810 l 694 694 l 1042 694 m 1042 579 l 694 579 l 694 463 l 1042 463 l 1042 579 m 1157 347 l 1042 347 l 1042 231 l 926 231 l 926 347 l 810 347 l 810 231 l 926 231 l 926 116 l 1042 116 l 1042 231 l 1157 231 l 1157 0 l 810 0 l 810 -116 l 1157 -116 l 1157 0 l 1273 0 l 1273 -231 l 694 -231 l 694 347 l 579 347 l 579 116 l 463 116 l 463 347 l 116 347 l 116 926 l 463 926 l 463 1042 l 579 1042 l 579 926 l 1157 926 l 1157 347 m 231 579 l 231 463 l 579 463 l 579 579 l 231 579 m 579 694 l 579 810 l 231 810 l 231 694 l 579 694 z "},"鱼":{"ha":1389,"x_min":0,"x_max":1273,"o":"m 1042 579 l 694 579 l 694 463 l 1042 463 l 1042 579 m 694 116 l 1042 116 l 1042 347 l 694 347 l 694 116 m 579 116 l 579 347 l 231 347 l 231 116 l 579 116 m 231 579 l 231 463 l 579 463 l 579 579 l 231 579 m 810 694 l 810 810 l 231 810 l 231 1042 l 347 1042 l 347 926 l 926 926 l 926 694 l 1157 694 l 1157 0 l 116 0 l 116 579 l 0 579 l 0 694 l 116 694 l 116 810 l 231 810 l 231 694 l 810 694 m 1273 -231 l 0 -231 l 0 -116 l 1273 -116 l 1273 -231 z "},"鸟":{"ha":1389,"x_min":0,"x_max":1273,"o":"m 463 694 l 579 694 l 579 579 l 463 579 l 463 694 m 579 579 l 694 579 l 694 463 l 579 463 l 579 579 m 926 116 l 926 0 l 0 0 l 0 116 l 926 116 m 231 926 l 463 926 l 463 1042 l 579 1042 l 579 926 l 1042 926 l 1042 463 l 810 463 l 810 579 l 926 579 l 926 810 l 347 810 l 347 347 l 1273 347 l 1273 -116 l 1157 -116 l 1157 231 l 231 231 l 231 926 m 1157 -231 l 810 -231 l 810 -116 l 1157 -116 l 1157 -231 z "},"卤":{"ha":1389,"x_min":116,"x_max":1273,"o":"m 347 463 l 463 463 l 463 347 l 347 347 l 347 463 m 810 463 l 926 463 l 926 347 l 810 347 l 810 463 m 463 347 l 579 347 l 579 231 l 463 231 l 463 347 m 694 347 l 810 347 l 810 231 l 694 231 l 694 347 m 579 231 l 694 231 l 694 116 l 579 116 l 579 231 m 463 116 l 579 116 l 579 0 l 463 0 l 463 116 m 694 116 l 810 116 l 810 0 l 694 0 l 694 116 m 231 579 l 231 -116 l 347 -116 l 347 0 l 463 0 l 463 -116 l 810 -116 l 810 0 l 926 0 l 926 -116 l 1042 -116 l 1042 579 l 231 579 m 579 694 l 579 1042 l 694 1042 l 694 926 l 1273 926 l 1273 810 l 694 810 l 694 694 l 1157 694 l 1157 -231 l 116 -231 l 116 694 l 579 694 z "},"麦":{"ha":1389,"x_min":0,"x_max":1273,"o":"m 579 694 l 579 810 l 116 810 l 116 926 l 579 926 l 579 1042 l 694 1042 l 694 926 l 1157 926 l 1157 810 l 694 810 l 694 694 l 1157 694 l 1157 579 l 694 579 l 694 463 l 1273 463 l 1273 347 l 579 347 l 579 231 l 1157 231 l 1157 116 l 1042 116 l 1042 0 l 926 0 l 926 116 l 463 116 l 463 0 l 116 0 l 116 116 l 347 116 l 347 231 l 463 231 l 463 347 l 0 347 l 0 463 l 579 463 l 579 579 l 116 579 l 116 694 l 579 694 m 926 -116 l 463 -116 l 463 0 l 926 0 l 926 -116 m 463 -116 l 463 -231 l 0 -231 l 0 -116 l 463 -116 m 1273 -116 l 1273 -231 l 926 -231 l 926 -116 l 1273 -116 z "},"黄":{"ha":1389,"x_min":0,"x_max":1273,"o":"m 1042 0 l 1042 116 l 694 116 l 694 0 l 1042 0 m 694 231 l 1042 231 l 1042 347 l 694 347 l 694 231 m 579 0 l 579 116 l 231 116 l 231 0 l 579 0 m 231 347 l 231 231 l 579 231 l 579 347 l 231 347 m 810 694 l 810 810 l 463 810 l 463 694 l 810 694 m 0 579 l 0 694 l 347 694 l 347 810 l 116 810 l 116 926 l 347 926 l 347 1042 l 463 1042 l 463 926 l 810 926 l 810 1042 l 926 1042 l 926 926 l 1157 926 l 1157 810 l 926 810 l 926 694 l 1273 694 l 1273 579 l 694 579 l 694 463 l 1157 463 l 1157 -116 l 1273 -116 l 1273 -231 l 1042 -231 l 1042 -116 l 231 -116 l 231 -231 l 0 -231 l 0 -116 l 116 -116 l 116 463 l 579 463 l 579 579 l 0 579 z "},"齐":{"ha":1389,"x_min":0,"x_max":1273,"o":"m 1273 926 l 1273 810 l 1042 810 l 1042 694 l 926 694 l 926 810 l 347 810 l 347 694 l 231 694 l 231 810 l 0 810 l 0 926 l 579 926 l 579 1042 l 694 1042 l 694 926 l 1273 926 m 347 694 l 463 694 l 463 579 l 347 579 l 347 694 m 810 694 l 926 694 l 926 579 l 810 579 l 810 694 m 463 579 l 810 579 l 810 463 l 463 463 l 463 579 m 231 463 l 463 463 l 463 347 l 231 347 l 231 463 m 810 463 l 1042 463 l 1042 347 l 810 347 l 810 463 m 0 347 l 231 347 l 231 231 l 0 231 l 0 347 m 1042 347 l 1273 347 l 1273 231 l 1042 231 l 1042 347 m 231 231 l 347 231 l 347 -116 l 231 -116 l 231 231 m 116 -116 l 231 -116 l 231 -231 l 116 -231 l 116 -116 m 926 231 l 1042 231 l 1042 -231 l 926 -231 l 926 231 z "},"齿":{"ha":1389,"x_min":0,"x_max":1273,"o":"m 1273 463 l 0 463 l 0 579 l 231 579 l 231 926 l 347 926 l 347 579 l 579 579 l 579 1042 l 694 1042 l 694 926 l 1157 926 l 1157 810 l 694 810 l 694 579 l 1273 579 l 1273 463 m 579 347 l 694 347 l 694 116 l 579 116 l 579 347 m 463 116 l 579 116 l 579 0 l 463 0 l 463 116 m 694 116 l 810 116 l 810 0 l 694 0 l 694 116 m 1042 347 l 1157 347 l 1157 -231 l 116 -231 l 116 347 l 231 347 l 231 -116 l 347 -116 l 347 0 l 463 0 l 463 -116 l 810 -116 l 810 0 l 926 0 l 926 -116 l 1042 -116 l 1042 347 z "},"龙":{"ha":1389,"x_min":0,"x_max":1273,"o":"m 810 1042 l 926 1042 l 926 926 l 810 926 l 810 1042 m 1042 463 l 1157 463 l 1157 347 l 1042 347 l 1042 463 m 347 463 l 463 463 l 463 231 l 347 231 l 347 463 m 926 347 l 1042 347 l 1042 231 l 926 231 l 926 347 m 231 231 l 347 231 l 347 0 l 231 0 l 231 231 m 116 0 l 231 0 l 231 -116 l 116 -116 l 116 0 m 694 694 l 579 694 l 579 463 l 463 463 l 463 694 l 0 694 l 0 810 l 463 810 l 463 1042 l 579 1042 l 579 810 l 926 810 l 926 926 l 1042 926 l 1042 810 l 1273 810 l 1273 694 l 810 694 l 810 231 l 926 231 l 926 116 l 810 116 l 810 -116 l 579 -116 l 579 0 l 694 0 l 694 694 m 0 -116 l 116 -116 l 116 -231 l 0 -231 l 0 -116 m 463 -116 l 579 -116 l 579 -231 l 463 -231 l 463 -116 m 1157 116 l 1273 116 l 1273 -231 l 810 -231 l 810 -116 l 1157 -116 l 1157 116 z "},"龟":{"ha":1389,"x_min":0,"x_max":1273,"o":"m 1042 579 l 694 579 l 694 463 l 1042 463 l 1042 579 m 694 116 l 1042 116 l 1042 347 l 694 347 l 694 116 m 579 116 l 579 347 l 231 347 l 231 116 l 579 116 m 231 579 l 231 463 l 579 463 l 579 579 l 231 579 m 810 694 l 810 810 l 231 810 l 231 1042 l 347 1042 l 347 926 l 926 926 l 926 694 l 1157 694 l 1157 0 l 694 0 l 694 -116 l 579 -116 l 579 0 l 116 0 l 116 579 l 0 579 l 0 694 l 116 694 l 116 810 l 231 810 l 231 694 l 810 694 m 1157 0 l 1273 0 l 1273 -231 l 694 -231 l 694 -116 l 1157 -116 l 1157 0 z "},"一":{"ha":1389,"x_min":0,"x_max":1273,"o":"m 1273 463 l 1273 347 l 0 347 l 0 463 l 1273 463 z "},"乙":{"ha":1389,"x_min":0,"x_max":1273,"o":"m 0 1042 l 1042 1042 l 1042 926 l 926 926 l 926 810 l 810 810 l 810 926 l 0 926 l 0 1042 m 694 810 l 810 810 l 810 694 l 694 694 l 694 810 m 579 694 l 694 694 l 694 579 l 579 579 l 579 694 m 463 579 l 579 579 l 579 463 l 463 463 l 463 579 m 347 463 l 463 463 l 463 347 l 347 347 l 347 463 m 231 347 l 347 347 l 347 231 l 231 231 l 231 347 m 116 231 l 231 231 l 231 116 l 116 116 l 116 231 m 0 116 l 116 116 l 116 -116 l 0 -116 l 0 116 m 1273 -231 l 116 -231 l 116 -116 l 1157 -116 l 1157 116 l 1273 116 l 1273 -231 z "},"二":{"ha":1389,"x_min":0,"x_max":1273,"o":"m 1157 926 l 1157 810 l 116 810 l 116 926 l 1157 926 m 1273 0 l 1273 -116 l 0 -116 l 0 0 l 1273 0 z "},"人":{"ha":1389,"x_min":0,"x_max":1273,"o":"m 579 1042 l 694 1042 l 694 579 l 579 579 l 579 1042 m 463 579 l 579 579 l 579 347 l 463 347 l 463 579 m 694 579 l 810 579 l 810 347 l 694 347 l 694 579 m 347 347 l 463 347 l 463 116 l 347 116 l 347 347 m 810 347 l 926 347 l 926 116 l 810 116 l 810 347 m 231 116 l 347 116 l 347 0 l 231 0 l 231 116 m 926 116 l 1042 116 l 1042 0 l 926 0 l 926 116 m 116 0 l 231 0 l 231 -116 l 116 -116 l 116 0 m 1042 0 l 1157 0 l 1157 -116 l 1042 -116 l 1042 0 m 0 -116 l 116 -116 l 116 -231 l 0 -231 l 0 -116 m 1157 -116 l 1273 -116 l 1273 -231 l 1157 -231 l 1157 -116 z "},"儿":{"ha":1389,"x_min":0,"x_max":1273,"o":"m 347 1042 l 463 1042 l 463 231 l 347 231 l 347 1042 m 231 231 l 347 231 l 347 0 l 231 0 l 231 231 m 116 0 l 231 0 l 231 -116 l 116 -116 l 116 0 m 0 -116 l 116 -116 l 116 -231 l 0 -231 l 0 -116 m 810 1042 l 926 1042 l 926 -116 l 1157 -116 l 1157 116 l 1273 116 l 1273 -231 l 810 -231 l 810 1042 z "},"入":{"ha":1389,"x_min":0,"x_max":1273,"o":"m 347 1042 l 463 1042 l 463 926 l 347 926 l 347 1042 m 463 926 l 579 926 l 579 810 l 463 810 l 463 926 m 579 810 l 694 810 l 694 579 l 579 579 l 579 810 m 463 579 l 579 579 l 579 347 l 463 347 l 463 579 m 694 579 l 810 579 l 810 347 l 694 347 l 694 579 m 347 347 l 463 347 l 463 116 l 347 116 l 347 347 m 810 347 l 926 347 l 926 116 l 810 116 l 810 347 m 231 116 l 347 116 l 347 0 l 231 0 l 231 116 m 926 116 l 1042 116 l 1042 0 l 926 0 l 926 116 m 116 0 l 231 0 l 231 -116 l 116 -116 l 116 0 m 1042 0 l 1157 0 l 1157 -116 l 1042 -116 l 1042 0 m 0 -116 l 116 -116 l 116 -231 l 0 -231 l 0 -116 m 1157 -116 l 1273 -116 l 1273 -231 l 1157 -231 l 1157 -116 z "},"八":{"ha":1389,"x_min":0,"x_max":1273,"o":"m 347 1042 l 463 1042 l 463 463 l 347 463 l 347 1042 m 810 1042 l 926 1042 l 926 463 l 810 463 l 810 1042 m 231 463 l 347 463 l 347 116 l 231 116 l 231 463 m 926 463 l 1042 463 l 1042 116 l 926 116 l 926 463 m 116 116 l 231 116 l 231 -116 l 116 -116 l 116 116 m 1042 116 l 1157 116 l 1157 -116 l 1042 -116 l 1042 116 m 0 -116 l 116 -116 l 116 -231 l 0 -231 l 0 -116 m 1157 -116 l 1273 -116 l 1273 -231 l 1157 -231 l 1157 -116 z "},"几":{"ha":1389,"x_min":0,"x_max":1273,"o":"m 116 116 l 231 116 l 231 -116 l 116 -116 l 116 116 m 0 -116 l 116 -116 l 116 -231 l 0 -231 l 0 -116 m 231 1042 l 926 1042 l 926 -116 l 1157 -116 l 1157 116 l 1273 116 l 1273 -231 l 810 -231 l 810 926 l 347 926 l 347 116 l 231 116 l 231 1042 z "},"刀":{"ha":1389,"x_min":0,"x_max":1273,"o":"m 347 231 l 463 231 l 463 0 l 347 0 l 347 231 m 231 0 l 347 0 l 347 -116 l 231 -116 l 231 0 m 1157 926 l 579 926 l 579 231 l 463 231 l 463 926 l 116 926 l 116 1042 l 1273 1042 l 1273 -116 l 1157 -116 l 1157 926 m 231 -231 l 0 -231 l 0 -116 l 231 -116 l 231 -231 m 1157 -231 l 810 -231 l 810 -116 l 1157 -116 l 1157 -231 z "},"力":{"ha":1389,"x_min":0,"x_max":1273,"o":"m 463 347 l 579 347 l 579 116 l 463 116 l 463 347 m 347 116 l 463 116 l 463 0 l 347 0 l 347 116 m 231 0 l 347 0 l 347 -116 l 231 -116 l 231 0 m 1157 694 l 694 694 l 694 347 l 579 347 l 579 694 l 116 694 l 116 810 l 579 810 l 579 1042 l 694 1042 l 694 810 l 1273 810 l 1273 -116 l 1157 -116 l 1157 694 m 231 -231 l 0 -231 l 0 -116 l 231 -116 l 231 -231 m 1157 -231 l 810 -231 l 810 -116 l 1157 -116 l 1157 -231 z "},"匕":{"ha":1389,"x_min":116,"x_max":1157,"o":"m 926 810 l 1042 810 l 1042 694 l 926 694 l 926 810 m 926 579 l 694 579 l 694 694 l 926 694 l 926 579 m 463 579 l 694 579 l 694 463 l 463 463 l 463 579 m 116 1042 l 231 1042 l 231 463 l 463 463 l 463 347 l 231 347 l 231 -116 l 116 -116 l 116 1042 m 1042 116 l 1157 116 l 1157 -231 l 231 -231 l 231 -116 l 1042 -116 l 1042 116 z "},"十":{"ha":1389,"x_min":0,"x_max":1273,"o":"m 1273 463 l 694 463 l 694 -231 l 579 -231 l 579 463 l 0 463 l 0 579 l 579 579 l 579 1042 l 694 1042 l 694 579 l 1273 579 l 1273 463 z "},"卜":{"ha":1389,"x_min":463,"x_max":1157,"o":"m 694 463 l 926 463 l 926 347 l 694 347 l 694 463 m 926 347 l 1157 347 l 1157 231 l 926 231 l 926 347 m 463 1042 l 579 1042 l 579 579 l 694 579 l 694 463 l 579 463 l 579 -231 l 463 -231 l 463 1042 z "},"厂":{"ha":1389,"x_min":0,"x_max":1273,"o":"m 231 1042 l 1273 1042 l 1273 926 l 347 926 l 347 116 l 231 116 l 231 1042 m 116 116 l 231 116 l 231 -116 l 116 -116 l 116 116 m 0 -116 l 116 -116 l 116 -231 l 0 -231 l 0 -116 z "},"又":{"ha":1389,"x_min":0,"x_max":1273,"o":"m 116 1042 l 1157 1042 l 1157 694 l 1042 694 l 1042 926 l 231 926 l 231 694 l 116 694 l 116 1042 m 231 694 l 347 694 l 347 463 l 231 463 l 231 694 m 926 694 l 1042 694 l 1042 463 l 926 463 l 926 694 m 347 463 l 463 463 l 463 347 l 347 347 l 347 463 m 810 463 l 926 463 l 926 347 l 810 347 l 810 463 m 463 347 l 579 347 l 579 231 l 463 231 l 463 347 m 694 347 l 810 347 l 810 231 l 694 231 l 694 347 m 579 231 l 694 231 l 694 116 l 579 116 l 579 231 m 463 116 l 579 116 l 579 0 l 463 0 l 463 116 m 694 116 l 810 116 l 810 0 l 694 0 l 694 116 m 231 0 l 463 0 l 463 -116 l 231 -116 l 231 0 m 810 0 l 1042 0 l 1042 -116 l 810 -116 l 810 0 m 231 -231 l 0 -231 l 0 -116 l 231 -116 l 231 -231 m 1042 -116 l 1273 -116 l 1273 -231 l 1042 -231 l 1042 -116 z "},"口":{"ha":1389,"x_min":116,"x_max":1157,"o":"m 116 -116 l 116 926 l 1157 926 l 1157 -116 l 116 -116 m 1042 0 l 1042 810 l 231 810 l 231 0 l 1042 0 z "},"土":{"ha":1389,"x_min":0,"x_max":1273,"o":"m 1273 -231 l 0 -231 l 0 -116 l 579 -116 l 579 463 l 116 463 l 116 579 l 579 579 l 579 1042 l 694 1042 l 694 579 l 1157 579 l 1157 463 l 694 463 l 694 -116 l 1273 -116 l 1273 -231 z "},"士":{"ha":1389,"x_min":0,"x_max":1273,"o":"m 1273 463 l 694 463 l 694 -116 l 1157 -116 l 1157 -231 l 116 -231 l 116 -116 l 579 -116 l 579 463 l 0 463 l 0 579 l 579 579 l 579 1042 l 694 1042 l 694 579 l 1273 579 l 1273 463 z "},"夕":{"ha":1389,"x_min":0,"x_max":1157,"o":"m 231 694 l 347 694 l 347 579 l 231 579 l 231 694 m 116 579 l 231 579 l 231 463 l 116 463 l 116 579 m 347 579 l 463 579 l 463 463 l 347 463 l 347 579 m 1157 463 l 1042 463 l 1042 694 l 347 694 l 347 1042 l 463 1042 l 463 810 l 1157 810 l 1157 463 m 0 463 l 116 463 l 116 347 l 0 347 l 0 463 m 463 463 l 694 463 l 694 347 l 463 347 l 463 463 m 694 347 l 810 347 l 810 231 l 694 231 l 694 347 m 926 463 l 1042 463 l 1042 231 l 926 231 l 926 463 m 810 231 l 926 231 l 926 116 l 810 116 l 810 231 m 694 116 l 810 116 l 810 0 l 694 0 l 694 116 m 463 0 l 694 0 l 694 -116 l 463 -116 l 463 0 m 116 -116 l 463 -116 l 463 -231 l 116 -231 l 116 -116 z "},"大":{"ha":1389,"x_min":0,"x_max":1273,"o":"m 579 694 l 579 1042 l 694 1042 l 694 694 l 1273 694 l 1273 579 l 694 579 l 694 463 l 579 463 l 579 579 l 0 579 l 0 694 l 579 694 m 463 463 l 579 463 l 579 231 l 463 231 l 463 463 m 694 463 l 810 463 l 810 231 l 694 231 l 694 463 m 347 231 l 463 231 l 463 0 l 347 0 l 347 231 m 810 231 l 926 231 l 926 0 l 810 0 l 810 231 m 231 0 l 347 0 l 347 -116 l 231 -116 l 231 0 m 926 0 l 1042 0 l 1042 -116 l 926 -116 l 926 0 m 231 -231 l 0 -231 l 0 -116 l 231 -116 l 231 -231 m 1042 -116 l 1273 -116 l 1273 -231 l 1042 -231 l 1042 -116 z "},"女":{"ha":1389,"x_min":0,"x_max":1273,"o":"m 463 694 l 463 1042 l 579 1042 l 579 694 l 1273 694 l 1273 579 l 1042 579 l 1042 347 l 926 347 l 926 579 l 463 579 l 463 347 l 347 347 l 347 579 l 0 579 l 0 694 l 463 694 m 231 347 l 347 347 l 347 231 l 231 231 l 231 347 m 347 231 l 579 231 l 579 116 l 347 116 l 347 231 m 810 347 l 926 347 l 926 116 l 810 116 l 810 347 m 579 116 l 810 116 l 810 0 l 579 0 l 579 116 m 579 -116 l 347 -116 l 347 0 l 579 0 l 579 -116 m 810 0 l 1042 0 l 1042 -116 l 810 -116 l 810 0 m 347 -116 l 347 -231 l 0 -231 l 0 -116 l 347 -116 m 1042 -116 l 1273 -116 l 1273 -231 l 1042 -231 l 1042 -116 z "},"子":{"ha":1389,"x_min":0,"x_max":1273,"o":"m 1042 1042 l 1042 810 l 926 810 l 926 926 l 116 926 l 116 1042 l 1042 1042 m 810 810 l 926 810 l 926 694 l 810 694 l 810 810 m 694 694 l 810 694 l 810 579 l 694 579 l 694 694 m 579 463 l 579 579 l 694 579 l 694 463 l 1273 463 l 1273 347 l 694 347 l 694 -231 l 347 -231 l 347 -116 l 579 -116 l 579 347 l 0 347 l 0 463 l 579 463 z "},"寸":{"ha":1389,"x_min":0,"x_max":1273,"o":"m 231 463 l 347 463 l 347 347 l 231 347 l 231 463 m 347 347 l 463 347 l 463 116 l 347 116 l 347 347 m 926 694 l 0 694 l 0 810 l 926 810 l 926 1042 l 1042 1042 l 1042 810 l 1273 810 l 1273 694 l 1042 694 l 1042 -231 l 694 -231 l 694 -116 l 926 -116 l 926 694 z "},"小":{"ha":1389,"x_min":0,"x_max":1273,"o":"m 926 694 l 1042 694 l 1042 579 l 926 579 l 926 694 m 231 694 l 347 694 l 347 463 l 231 463 l 231 694 m 1042 579 l 1157 579 l 1157 347 l 1042 347 l 1042 579 m 116 463 l 231 463 l 231 231 l 116 231 l 116 463 m 0 231 l 116 231 l 116 116 l 0 116 l 0 231 m 1157 347 l 1273 347 l 1273 116 l 1157 116 l 1157 347 m 579 1042 l 694 1042 l 694 -231 l 347 -231 l 347 -116 l 579 -116 l 579 1042 z "},"尸":{"ha":1389,"x_min":0,"x_max":1273,"o":"m 347 579 l 1157 579 l 1157 926 l 347 926 l 347 579 m 1273 463 l 347 463 l 347 116 l 231 116 l 231 1042 l 1273 1042 l 1273 463 m 116 116 l 231 116 l 231 -116 l 116 -116 l 116 116 m 0 -116 l 116 -116 l 116 -231 l 0 -231 l 0 -116 z "},"山":{"ha":1389,"x_min":0,"x_max":1273,"o":"m 0 694 l 116 694 l 116 -116 l 579 -116 l 579 1042 l 694 1042 l 694 -116 l 1157 -116 l 1157 694 l 1273 694 l 1273 -231 l 0 -231 l 0 694 z "},"工":{"ha":1389,"x_min":0,"x_max":1273,"o":"m 1273 -231 l 0 -231 l 0 -116 l 579 -116 l 579 926 l 116 926 l 116 1042 l 1157 1042 l 1157 926 l 694 926 l 694 -116 l 1273 -116 l 1273 -231 z "},"己":{"ha":1389,"x_min":116,"x_max":1273,"o":"m 1157 1042 l 1157 347 l 231 347 l 231 -116 l 116 -116 l 116 463 l 1042 463 l 1042 926 l 116 926 l 116 1042 l 1157 1042 m 1273 -231 l 231 -231 l 231 -116 l 1157 -116 l 1157 116 l 1273 116 l 1273 -231 z "},"巾":{"ha":1389,"x_min":116,"x_max":1157,"o":"m 579 810 l 579 1042 l 694 1042 l 694 810 l 1157 810 l 1157 0 l 926 0 l 926 116 l 1042 116 l 1042 694 l 694 694 l 694 -231 l 579 -231 l 579 694 l 231 694 l 231 0 l 116 0 l 116 810 l 579 810 z "},"干":{"ha":1389,"x_min":0,"x_max":1273,"o":"m 1157 1042 l 1157 926 l 694 926 l 694 463 l 1273 463 l 1273 347 l 694 347 l 694 -231 l 579 -231 l 579 347 l 0 347 l 0 463 l 579 463 l 579 926 l 116 926 l 116 1042 l 1157 1042 z "},"广":{"ha":1389,"x_min":0,"x_max":1273,"o":"m 579 1042 l 694 1042 l 694 926 l 579 926 l 579 1042 m 231 810 l 694 810 l 694 926 l 810 926 l 810 810 l 1273 810 l 1273 694 l 347 694 l 347 116 l 231 116 l 231 810 m 116 116 l 231 116 l 231 -116 l 116 -116 l 116 116 m 0 -116 l 116 -116 l 116 -231 l 0 -231 l 0 -116 z "},"弓":{"ha":1389,"x_min":116,"x_max":1273,"o":"m 1042 694 l 1042 926 l 116 926 l 116 1042 l 1157 1042 l 1157 579 l 231 579 l 231 347 l 1273 347 l 1273 -116 l 1157 -116 l 1157 231 l 116 231 l 116 694 l 1042 694 m 1157 -231 l 694 -231 l 694 -116 l 1157 -116 l 1157 -231 z "},"心":{"ha":1389,"x_min":0,"x_max":1273,"o":"m 463 1042 l 579 1042 l 579 926 l 463 926 l 463 1042 m 579 926 l 694 926 l 694 810 l 579 810 l 579 926 m 694 810 l 810 810 l 810 579 l 694 579 l 694 810 m 1042 463 l 1157 463 l 1157 347 l 1042 347 l 1042 463 m 116 463 l 231 463 l 231 116 l 116 116 l 116 463 m 0 116 l 116 116 l 116 0 l 0 0 l 0 116 m 1157 347 l 1273 347 l 1273 0 l 1157 0 l 1157 347 m 347 694 l 463 694 l 463 -116 l 347 -116 l 347 694 m 926 116 l 1042 116 l 1042 -231 l 463 -231 l 463 -116 l 926 -116 l 926 116 z "},"戈":{"ha":1389,"x_min":0,"x_max":1273,"o":"m 926 1042 l 1042 1042 l 1042 926 l 926 926 l 926 1042 m 1042 926 l 1157 926 l 1157 810 l 1042 810 l 1042 926 m 1042 463 l 1157 463 l 1157 347 l 1042 347 l 1042 463 m 579 579 l 579 1042 l 694 1042 l 694 694 l 1273 694 l 1273 579 l 694 579 l 694 231 l 579 231 l 579 463 l 0 463 l 0 579 l 579 579 m 926 347 l 1042 347 l 1042 231 l 926 231 l 926 347 m 579 116 l 694 116 l 694 231 l 926 231 l 926 116 l 810 116 l 810 0 l 579 0 l 579 116 m 579 -116 l 347 -116 l 347 0 l 579 0 l 579 -116 m 810 0 l 926 0 l 926 -116 l 810 -116 l 810 0 m 347 -116 l 347 -231 l 0 -231 l 0 -116 l 347 -116 m 1157 116 l 1273 116 l 1273 -231 l 926 -231 l 926 -116 l 1157 -116 l 1157 116 z "},"户":{"ha":1389,"x_min":0,"x_max":1273,"o":"m 579 1042 l 694 1042 l 694 926 l 579 926 l 579 1042 m 1273 347 l 347 347 l 347 0 l 231 0 l 231 810 l 694 810 l 694 926 l 810 926 l 810 810 l 1273 810 l 1273 347 m 1157 694 l 347 694 l 347 463 l 1157 463 l 1157 694 m 116 0 l 231 0 l 231 -116 l 116 -116 l 116 0 m 0 -116 l 116 -116 l 116 -231 l 0 -231 l 0 -116 z "},"手":{"ha":1389,"x_min":0,"x_max":1273,"o":"m 694 1042 l 1157 1042 l 1157 926 l 694 926 l 694 1042 m 579 810 l 116 810 l 116 926 l 694 926 l 694 579 l 1157 579 l 1157 463 l 694 463 l 694 231 l 1273 231 l 1273 116 l 694 116 l 694 -231 l 347 -231 l 347 -116 l 579 -116 l 579 116 l 0 116 l 0 231 l 579 231 l 579 463 l 116 463 l 116 579 l 579 579 l 579 810 z "},"支":{"ha":1389,"x_min":0,"x_max":1273,"o":"m 231 347 l 116 347 l 116 463 l 579 463 l 579 694 l 0 694 l 0 810 l 579 810 l 579 1042 l 694 1042 l 694 810 l 1273 810 l 1273 694 l 694 694 l 694 463 l 1157 463 l 1157 347 l 1042 347 l 1042 231 l 926 231 l 926 347 l 347 347 l 347 231 l 231 231 l 231 347 m 347 231 l 463 231 l 463 116 l 347 116 l 347 231 m 810 231 l 926 231 l 926 116 l 810 116 l 810 231 m 463 116 l 810 116 l 810 0 l 463 0 l 463 116 m 231 0 l 463 0 l 463 -116 l 231 -116 l 231 0 m 810 0 l 1042 0 l 1042 -116 l 810 -116 l 810 0 m 231 -231 l 0 -231 l 0 -116 l 231 -116 l 231 -231 m 1042 -116 l 1273 -116 l 1273 -231 l 1042 -231 l 1042 -116 z "},"文":{"ha":1389,"x_min":0,"x_max":1273,"o":"m 463 1042 l 579 1042 l 579 926 l 463 926 l 463 1042 m 231 694 l 0 694 l 0 810 l 579 810 l 579 926 l 694 926 l 694 810 l 1273 810 l 1273 694 l 1042 694 l 1042 463 l 926 463 l 926 694 l 347 694 l 347 463 l 231 463 l 231 694 m 347 463 l 463 463 l 463 231 l 347 231 l 347 463 m 810 463 l 926 463 l 926 231 l 810 231 l 810 463 m 463 231 l 579 231 l 579 116 l 463 116 l 463 231 m 694 231 l 810 231 l 810 116 l 694 116 l 694 231 m 579 116 l 694 116 l 694 0 l 579 0 l 579 116 m 579 -116 l 347 -116 l 347 0 l 579 0 l 579 -116 m 926 -116 l 694 -116 l 694 0 l 926 0 l 926 -116 m 347 -116 l 347 -231 l 0 -231 l 0 -116 l 347 -116 m 1273 -116 l 1273 -231 l 926 -231 l 926 -116 l 1273 -116 z "},"斗":{"ha":1389,"x_min":0,"x_max":1273,"o":"m 347 1042 l 463 1042 l 463 926 l 347 926 l 347 1042 m 463 926 l 579 926 l 579 810 l 463 810 l 463 926 m 579 810 l 694 810 l 694 694 l 579 694 l 579 810 m 116 694 l 231 694 l 231 579 l 116 579 l 116 694 m 231 579 l 347 579 l 347 463 l 231 463 l 231 579 m 347 463 l 463 463 l 463 347 l 347 347 l 347 463 m 0 116 l 463 116 l 463 0 l 0 0 l 0 116 m 810 1042 l 926 1042 l 926 347 l 1273 347 l 1273 231 l 926 231 l 926 -231 l 810 -231 l 810 116 l 463 116 l 463 231 l 810 231 l 810 1042 z "},"斤":{"ha":1389,"x_min":0,"x_max":1273,"o":"m 1157 926 l 810 926 l 810 1042 l 1157 1042 l 1157 926 m 116 116 l 231 116 l 231 -116 l 116 -116 l 116 116 m 0 -116 l 116 -116 l 116 -231 l 0 -231 l 0 -116 m 1273 463 l 926 463 l 926 -231 l 810 -231 l 810 463 l 347 463 l 347 116 l 231 116 l 231 926 l 810 926 l 810 810 l 347 810 l 347 579 l 1273 579 l 1273 463 z "},"方":{"ha":1389,"x_min":0,"x_max":1273,"o":"m 463 1042 l 579 1042 l 579 926 l 463 926 l 463 1042 m 347 231 l 463 231 l 463 0 l 347 0 l 347 231 m 231 0 l 347 0 l 347 -116 l 231 -116 l 231 0 m 1042 347 l 579 347 l 579 231 l 463 231 l 463 694 l 0 694 l 0 810 l 579 810 l 579 926 l 694 926 l 694 810 l 1273 810 l 1273 694 l 579 694 l 579 463 l 1157 463 l 1157 -116 l 1042 -116 l 1042 347 m 231 -231 l 0 -231 l 0 -116 l 231 -116 l 231 -231 m 810 -116 l 1042 -116 l 1042 -231 l 810 -231 l 810 -116 z "},"无":{"ha":1389,"x_min":0,"x_max":1273,"o":"m 347 231 l 463 231 l 463 0 l 347 0 l 347 231 m 231 0 l 347 0 l 347 -116 l 231 -116 l 231 0 m 231 -231 l 0 -231 l 0 -116 l 231 -116 l 231 -231 m 1157 1042 l 1157 926 l 694 926 l 694 579 l 1273 579 l 1273 463 l 810 463 l 810 -116 l 1157 -116 l 1157 116 l 1273 116 l 1273 -231 l 694 -231 l 694 463 l 579 463 l 579 231 l 463 231 l 463 463 l 0 463 l 0 579 l 579 579 l 579 926 l 116 926 l 116 1042 l 1157 1042 z "},"日":{"ha":1389,"x_min":116,"x_max":1157,"o":"m 231 347 l 231 -116 l 1042 -116 l 1042 347 l 231 347 m 231 926 l 231 463 l 1042 463 l 1042 926 l 231 926 m 1157 1042 l 1157 -231 l 116 -231 l 116 1042 l 1157 1042 z "},"曰":{"ha":1389,"x_min":0,"x_max":1273,"o":"m 0 -116 l 0 926 l 1273 926 l 1273 -116 l 0 -116 m 1042 463 l 1042 347 l 116 347 l 116 0 l 1157 0 l 1157 810 l 116 810 l 116 463 l 1042 463 z "},"月":{"ha":1389,"x_min":0,"x_max":1157,"o":"m 116 116 l 231 116 l 231 -116 l 116 -116 l 116 116 m 0 -116 l 116 -116 l 116 -231 l 0 -231 l 0 -116 m 1157 1042 l 1157 -231 l 810 -231 l 810 -116 l 1042 -116 l 1042 231 l 347 231 l 347 116 l 231 116 l 231 1042 l 1157 1042 m 347 579 l 347 347 l 1042 347 l 1042 579 l 347 579 m 1042 694 l 1042 926 l 347 926 l 347 694 l 1042 694 z "},"木":{"ha":1389,"x_min":0,"x_max":1273,"o":"m 231 347 l 347 347 l 347 116 l 231 116 l 231 347 m 926 347 l 1042 347 l 1042 116 l 926 116 l 926 347 m 116 116 l 231 116 l 231 0 l 116 0 l 116 116 m 1042 116 l 1157 116 l 1157 0 l 1042 0 l 1042 116 m 0 0 l 116 0 l 116 -116 l 0 -116 l 0 0 m 1157 0 l 1273 0 l 1273 -116 l 1157 -116 l 1157 0 m 347 694 l 0 694 l 0 810 l 579 810 l 579 1042 l 694 1042 l 694 810 l 1273 810 l 1273 694 l 926 694 l 926 347 l 810 347 l 810 694 l 694 694 l 694 -231 l 579 -231 l 579 694 l 463 694 l 463 347 l 347 347 l 347 694 z "},"欠":{"ha":1389,"x_min":0,"x_max":1273,"o":"m 116 694 l 231 694 l 231 579 l 116 579 l 116 694 m 231 1042 l 347 1042 l 347 810 l 1273 810 l 1273 579 l 1157 579 l 1157 694 l 231 694 l 231 1042 m 0 579 l 116 579 l 116 463 l 0 463 l 0 579 m 1042 579 l 1157 579 l 1157 463 l 1042 463 l 1042 579 m 579 579 l 694 579 l 694 231 l 579 231 l 579 579 m 463 231 l 579 231 l 579 0 l 463 0 l 463 231 m 694 231 l 810 231 l 810 0 l 694 0 l 694 231 m 347 0 l 463 0 l 463 -116 l 347 -116 l 347 0 m 810 0 l 926 0 l 926 -116 l 810 -116 l 810 0 m 347 -116 l 347 -231 l 0 -231 l 0 -116 l 347 -116 m 1273 -116 l 1273 -231 l 926 -231 l 926 -116 l 1273 -116 z "},"止":{"ha":1389,"x_min":0,"x_max":1273,"o":"m 579 1042 l 694 1042 l 694 579 l 1157 579 l 1157 463 l 694 463 l 694 -116 l 1273 -116 l 1273 -231 l 0 -231 l 0 -116 l 231 -116 l 231 694 l 347 694 l 347 -116 l 579 -116 l 579 1042 z "},"歹":{"ha":1389,"x_min":0,"x_max":1273,"o":"m 347 579 l 463 579 l 463 463 l 347 463 l 347 579 m 231 463 l 347 463 l 347 347 l 231 347 l 231 463 m 463 463 l 579 463 l 579 347 l 463 347 l 463 463 m 0 1042 l 1273 1042 l 1273 926 l 579 926 l 579 694 l 1157 694 l 1157 347 l 1042 347 l 1042 579 l 463 579 l 463 926 l 0 926 l 0 1042 m 0 347 l 231 347 l 231 231 l 0 231 l 0 347 m 579 347 l 694 347 l 694 231 l 579 231 l 579 347 m 694 231 l 810 231 l 810 116 l 694 116 l 694 231 m 926 347 l 1042 347 l 1042 116 l 926 116 l 926 347 m 810 116 l 926 116 l 926 0 l 810 0 l 810 116 m 579 0 l 810 0 l 810 -116 l 579 -116 l 579 0 m 116 -116 l 579 -116 l 579 -231 l 116 -231 l 116 -116 z "},"比":{"ha":1389,"x_min":0,"x_max":1273,"o":"m 1157 810 l 1273 810 l 1273 694 l 1157 694 l 1157 810 m 1042 694 l 1157 694 l 1157 579 l 1042 579 l 1042 694 m 579 -116 l 347 -116 l 347 0 l 579 0 l 579 -116 m 694 1042 l 810 1042 l 810 579 l 1042 579 l 1042 463 l 810 463 l 810 -116 l 694 -116 l 694 1042 m 0 1042 l 116 1042 l 116 579 l 579 579 l 579 463 l 116 463 l 116 -116 l 347 -116 l 347 -231 l 0 -231 l 0 1042 m 1157 116 l 1273 116 l 1273 -231 l 810 -231 l 810 -116 l 1157 -116 l 1157 116 z "},"毛":{"ha":1389,"x_min":0,"x_max":1273,"o":"m 1157 1042 l 1157 926 l 579 926 l 579 1042 l 1157 1042 m 463 810 l 0 810 l 0 926 l 579 926 l 579 694 l 1157 694 l 1157 579 l 579 579 l 579 347 l 1273 347 l 1273 231 l 579 231 l 579 -116 l 463 -116 l 463 116 l 0 116 l 0 231 l 463 231 l 463 463 l 0 463 l 0 579 l 463 579 l 463 810 m 1157 116 l 1273 116 l 1273 -231 l 579 -231 l 579 -116 l 1157 -116 l 1157 116 z "},"氏":{"ha":1389,"x_min":0,"x_max":1273,"o":"m 694 1042 l 1157 1042 l 1157 926 l 694 926 l 694 1042 m 810 116 l 926 116 l 926 0 l 810 0 l 810 116 m 579 -116 l 347 -116 l 347 0 l 579 0 l 579 -116 m 926 0 l 1042 0 l 1042 -116 l 926 -116 l 926 0 m 694 463 l 1273 463 l 1273 347 l 810 347 l 810 116 l 694 116 l 694 347 l 116 347 l 116 -116 l 347 -116 l 347 -231 l 0 -231 l 0 926 l 694 926 l 694 463 m 579 810 l 116 810 l 116 463 l 579 463 l 579 810 m 1157 116 l 1273 116 l 1273 -231 l 1042 -231 l 1042 -116 l 1157 -116 l 1157 116 z "},"气":{"ha":1389,"x_min":0,"x_max":1273,"o":"m 1157 926 l 1157 810 l 116 810 l 116 1042 l 231 1042 l 231 926 l 1157 926 m 0 810 l 116 810 l 116 694 l 0 694 l 0 810 m 1042 694 l 1042 579 l 116 579 l 116 694 l 1042 694 m 926 347 l 0 347 l 0 463 l 1042 463 l 1042 -116 l 926 -116 l 926 347 m 1157 116 l 1273 116 l 1273 -116 l 1157 -116 l 1157 116 m 1042 -116 l 1157 -116 l 1157 -231 l 1042 -231 l 1042 -116 z "},"水":{"ha":1389,"x_min":0,"x_max":1273,"o":"m 1157 810 l 1273 810 l 1273 694 l 1157 694 l 1157 810 m 1042 694 l 1157 694 l 1157 579 l 1042 579 l 1042 694 m 926 579 l 1042 579 l 1042 463 l 926 463 l 926 579 m 463 694 l 463 347 l 347 347 l 347 579 l 0 579 l 0 694 l 463 694 m 810 463 l 926 463 l 926 231 l 810 231 l 810 463 m 231 347 l 347 347 l 347 116 l 231 116 l 231 347 m 926 231 l 1042 231 l 1042 116 l 926 116 l 926 231 m 116 116 l 231 116 l 231 0 l 116 0 l 116 116 m 1042 116 l 1157 116 l 1157 0 l 1042 0 l 1042 116 m 0 0 l 116 0 l 116 -116 l 0 -116 l 0 0 m 1157 0 l 1273 0 l 1273 -116 l 1157 -116 l 1157 0 m 579 1042 l 694 1042 l 694 694 l 810 694 l 810 463 l 694 463 l 694 -231 l 347 -231 l 347 -116 l 579 -116 l 579 1042 z "},"火":{"ha":1389,"x_min":0,"x_max":1273,"o":"m 231 810 l 347 810 l 347 579 l 231 579 l 231 810 m 1042 810 l 1157 810 l 1157 579 l 1042 579 l 1042 810 m 116 579 l 231 579 l 231 463 l 116 463 l 116 579 m 926 579 l 1042 579 l 1042 463 l 926 463 l 926 579 m 579 1042 l 694 1042 l 694 347 l 579 347 l 579 1042 m 463 347 l 579 347 l 579 116 l 463 116 l 463 347 m 694 347 l 810 347 l 810 116 l 694 116 l 694 347 m 347 116 l 463 116 l 463 0 l 347 0 l 347 116 m 810 116 l 926 116 l 926 0 l 810 0 l 810 116 m 231 0 l 347 0 l 347 -116 l 231 -116 l 231 0 m 926 0 l 1042 0 l 1042 -116 l 926 -116 l 926 0 m 231 -231 l 0 -231 l 0 -116 l 231 -116 l 231 -231 m 1042 -116 l 1273 -116 l 1273 -231 l 1042 -231 l 1042 -116 z "},"爪":{"ha":1389,"x_min":0,"x_max":1273,"o":"m 926 926 l 694 926 l 694 1042 l 1157 1042 l 1157 926 l 1042 926 l 1042 116 l 926 116 l 926 926 m 1042 116 l 1157 116 l 1157 -116 l 1042 -116 l 1042 116 m 0 -116 l 116 -116 l 116 -231 l 0 -231 l 0 -116 m 116 926 l 694 926 l 694 -231 l 579 -231 l 579 810 l 231 810 l 231 -116 l 116 -116 l 116 926 m 1157 -116 l 1273 -116 l 1273 -231 l 1157 -231 l 1157 -116 z "},"父":{"ha":1389,"x_min":0,"x_max":1273,"o":"m 347 1042 l 463 1042 l 463 926 l 347 926 l 347 1042 m 810 1042 l 926 1042 l 926 926 l 810 926 l 810 1042 m 231 926 l 347 926 l 347 810 l 231 810 l 231 926 m 926 926 l 1042 926 l 1042 810 l 926 810 l 926 926 m 116 810 l 231 810 l 231 694 l 116 694 l 116 810 m 1042 810 l 1157 810 l 1157 694 l 1042 694 l 1042 810 m 0 694 l 116 694 l 116 579 l 0 579 l 0 694 m 1157 694 l 1273 694 l 1273 579 l 1157 579 l 1157 694 m 231 694 l 347 694 l 347 463 l 231 463 l 231 694 m 926 694 l 1042 694 l 1042 463 l 926 463 l 926 694 m 347 463 l 463 463 l 463 347 l 347 347 l 347 463 m 810 463 l 926 463 l 926 347 l 810 347 l 810 463 m 463 347 l 579 347 l 579 231 l 463 231 l 463 347 m 694 347 l 810 347 l 810 231 l 694 231 l 694 347 m 579 231 l 694 231 l 694 116 l 579 116 l 579 231 m 463 116 l 579 116 l 579 0 l 463 0 l 463 116 m 694 116 l 810 116 l 810 0 l 694 0 l 694 116 m 231 0 l 463 0 l 463 -116 l 231 -116 l 231 0 m 810 0 l 1042 0 l 1042 -116 l 810 -116 l 810 0 m 231 -231 l 0 -231 l 0 -116 l 231 -116 l 231 -231 m 1042 -116 l 1273 -116 l 1273 -231 l 1042 -231 l 1042 -116 z "},"片":{"ha":1389,"x_min":0,"x_max":1273,"o":"m 116 116 l 231 116 l 231 -116 l 116 -116 l 116 116 m 0 -116 l 116 -116 l 116 -231 l 0 -231 l 0 -116 m 926 231 l 347 231 l 347 116 l 231 116 l 231 1042 l 347 1042 l 347 694 l 810 694 l 810 1042 l 926 1042 l 926 694 l 1273 694 l 1273 579 l 347 579 l 347 347 l 1042 347 l 1042 -231 l 926 -231 l 926 231 z "},"牙":{"ha":1389,"x_min":0,"x_max":1273,"o":"m 579 347 l 694 347 l 694 231 l 579 231 l 579 347 m 463 231 l 579 231 l 579 116 l 463 116 l 463 231 m 231 116 l 463 116 l 463 0 l 231 0 l 231 116 m 0 0 l 231 0 l 231 -116 l 0 -116 l 0 0 m 1157 1042 l 1157 926 l 926 926 l 926 579 l 1273 579 l 1273 463 l 926 463 l 926 -231 l 579 -231 l 579 -116 l 810 -116 l 810 347 l 694 347 l 694 463 l 116 463 l 116 694 l 231 694 l 231 579 l 810 579 l 810 926 l 347 926 l 347 694 l 231 694 l 231 926 l 116 926 l 116 1042 l 1157 1042 z "},"牛":{"ha":1389,"x_min":0,"x_max":1273,"o":"m 0 579 l 116 579 l 116 463 l 0 463 l 0 579 m 579 810 l 579 1042 l 694 1042 l 694 810 l 1157 810 l 1157 694 l 694 694 l 694 347 l 1273 347 l 1273 231 l 694 231 l 694 -231 l 579 -231 l 579 231 l 0 231 l 0 347 l 579 347 l 579 694 l 231 694 l 231 579 l 116 579 l 116 1042 l 231 1042 l 231 810 l 579 810 z "},"犬":{"ha":1389,"x_min":0,"x_max":1273,"o":"m 926 1042 l 1042 1042 l 1042 926 l 926 926 l 926 1042 m 1042 926 l 1157 926 l 1157 810 l 1042 810 l 1042 926 m 579 694 l 579 1042 l 694 1042 l 694 694 l 1273 694 l 1273 579 l 694 579 l 694 463 l 579 463 l 579 579 l 0 579 l 0 694 l 579 694 m 463 463 l 579 463 l 579 231 l 463 231 l 463 463 m 694 463 l 810 463 l 810 231 l 694 231 l 694 463 m 347 231 l 463 231 l 463 0 l 347 0 l 347 231 m 810 231 l 926 231 l 926 0 l 810 0 l 810 231 m 231 0 l 347 0 l 347 -116 l 231 -116 l 231 0 m 926 0 l 1042 0 l 1042 -116 l 926 -116 l 926 0 m 231 -231 l 0 -231 l 0 -116 l 231 -116 l 231 -231 m 1042 -116 l 1273 -116 l 1273 -231 l 1042 -231 l 1042 -116 z "},"玄":{"ha":1389,"x_min":0,"x_max":1273,"o":"m 463 1042 l 579 1042 l 579 926 l 463 926 l 463 1042 m 463 694 l 0 694 l 0 810 l 579 810 l 579 926 l 694 926 l 694 810 l 1273 810 l 1273 694 l 579 694 l 579 579 l 463 579 l 463 694 m 347 579 l 463 579 l 463 463 l 347 463 l 347 579 m 810 579 l 926 579 l 926 463 l 810 463 l 810 579 m 694 463 l 810 463 l 810 347 l 694 347 l 694 463 m 116 347 l 231 347 l 231 463 l 347 463 l 347 347 l 694 347 l 694 231 l 579 231 l 579 116 l 463 116 l 463 231 l 116 231 l 116 347 m 347 116 l 463 116 l 463 0 l 347 0 l 347 116 m 926 231 l 1042 231 l 1042 0 l 926 0 l 926 231 m 926 -116 l 694 -116 l 694 0 l 926 0 l 926 -116 m 694 -231 l 116 -231 l 116 -116 l 231 -116 l 231 0 l 347 0 l 347 -116 l 694 -116 l 694 -231 m 1042 0 l 1157 0 l 1157 -231 l 1042 -231 l 1042 0 z "},"玉":{"ha":1389,"x_min":0,"x_max":1273,"o":"m 926 231 l 1042 231 l 1042 116 l 926 116 l 926 231 m 1042 116 l 1157 116 l 1157 0 l 1042 0 l 1042 116 m 1273 1042 l 1273 926 l 694 926 l 694 463 l 1157 463 l 1157 347 l 694 347 l 694 -116 l 1273 -116 l 1273 -231 l 0 -231 l 0 -116 l 579 -116 l 579 347 l 116 347 l 116 463 l 579 463 l 579 926 l 0 926 l 0 1042 l 1273 1042 z "},"瓜":{"ha":1389,"x_min":0,"x_max":1273,"o":"m 926 926 l 694 926 l 694 1042 l 1157 1042 l 1157 926 l 1042 926 l 1042 116 l 926 116 l 926 926 m 463 347 l 579 347 l 579 0 l 463 0 l 463 347 m 116 926 l 694 926 l 694 347 l 579 347 l 579 810 l 231 810 l 231 -116 l 116 -116 l 116 926 m 694 116 l 810 116 l 810 -116 l 694 -116 l 694 116 m 1042 116 l 1157 116 l 1157 -116 l 1042 -116 l 1042 116 m 0 -116 l 116 -116 l 116 -231 l 0 -231 l 0 -116 m 694 -116 l 694 -231 l 347 -231 l 347 0 l 463 0 l 463 -116 l 694 -116 m 810 -116 l 926 -116 l 926 -231 l 810 -231 l 810 -116 m 1157 -116 l 1273 -116 l 1273 -231 l 1157 -231 l 1157 -116 z "},"瓦":{"ha":1389,"x_min":0,"x_max":1273,"o":"m 463 463 l 579 463 l 579 347 l 463 347 l 463 463 m 579 347 l 694 347 l 694 231 l 579 231 l 579 347 m 231 579 l 347 579 l 347 116 l 231 116 l 231 579 m 463 0 l 694 0 l 694 -116 l 463 -116 l 463 0 m 116 116 l 231 116 l 231 -116 l 463 -116 l 463 -231 l 116 -231 l 116 116 m 0 1042 l 1273 1042 l 1273 926 l 463 926 l 463 694 l 926 694 l 926 -116 l 1157 -116 l 1157 116 l 1273 116 l 1273 -231 l 810 -231 l 810 116 l 694 116 l 694 231 l 810 231 l 810 579 l 347 579 l 347 926 l 0 926 l 0 1042 z "},"甘":{"ha":1389,"x_min":0,"x_max":1273,"o":"m 347 231 l 347 -116 l 926 -116 l 926 231 l 347 231 m 347 694 l 347 347 l 926 347 l 926 694 l 347 694 m 926 810 l 926 1042 l 1042 1042 l 1042 810 l 1273 810 l 1273 694 l 1042 694 l 1042 -231 l 231 -231 l 231 694 l 0 694 l 0 810 l 231 810 l 231 1042 l 347 1042 l 347 810 l 926 810 z "},"生":{"ha":1389,"x_min":0,"x_max":1273,"o":"m 0 579 l 116 579 l 116 463 l 0 463 l 0 579 m 579 810 l 579 1042 l 694 1042 l 694 810 l 1157 810 l 1157 694 l 694 694 l 694 347 l 1157 347 l 1157 231 l 694 231 l 694 -116 l 1273 -116 l 1273 -231 l 0 -231 l 0 -116 l 579 -116 l 579 231 l 116 231 l 116 347 l 579 347 l 579 694 l 231 694 l 231 579 l 116 579 l 116 1042 l 231 1042 l 231 810 l 579 810 z "},"用":{"ha":1389,"x_min":0,"x_max":1157,"o":"m 0 -116 l 116 -116 l 116 -231 l 0 -231 l 0 -116 m 1042 579 l 694 579 l 694 347 l 1042 347 l 1042 579 m 1042 926 l 694 926 l 694 694 l 1042 694 l 1042 926 m 1157 1042 l 1157 -231 l 926 -231 l 926 -116 l 1042 -116 l 1042 231 l 694 231 l 694 -231 l 579 -231 l 579 231 l 231 231 l 231 -116 l 116 -116 l 116 1042 l 1157 1042 m 231 579 l 231 347 l 579 347 l 579 579 l 231 579 m 579 694 l 579 926 l 231 926 l 231 694 l 579 694 z "},"田":{"ha":1389,"x_min":0,"x_max":1273,"o":"m 694 -116 l 1157 -116 l 1157 347 l 694 347 l 694 -116 m 116 347 l 116 -116 l 579 -116 l 579 347 l 116 347 m 694 463 l 1157 463 l 1157 926 l 694 926 l 694 463 m 116 926 l 116 463 l 579 463 l 579 926 l 116 926 m 1273 1042 l 1273 -231 l 0 -231 l 0 1042 l 1273 1042 z "},"白":{"ha":1389,"x_min":116,"x_max":1157,"o":"m 579 1042 l 694 1042 l 694 926 l 579 926 l 579 1042 m 1157 -231 l 116 -231 l 116 810 l 463 810 l 463 926 l 579 926 l 579 810 l 1157 810 l 1157 -231 m 231 231 l 231 -116 l 1042 -116 l 1042 231 l 231 231 m 231 694 l 231 347 l 1042 347 l 1042 694 l 231 694 z "},"皮":{"ha":1389,"x_min":0,"x_max":1273,"o":"m 463 347 l 579 347 l 579 231 l 463 231 l 463 347 m 579 231 l 694 231 l 694 116 l 579 116 l 579 231 m 926 231 l 1042 231 l 1042 116 l 926 116 l 926 231 m 926 0 l 694 0 l 694 116 l 926 116 l 926 0 m 231 810 l 231 579 l 694 579 l 694 810 l 231 810 m 1273 926 l 1273 694 l 1157 694 l 1157 810 l 810 810 l 810 579 l 1157 579 l 1157 231 l 1042 231 l 1042 463 l 463 463 l 463 347 l 347 347 l 347 463 l 231 463 l 231 -116 l 116 -116 l 116 926 l 694 926 l 694 1042 l 810 1042 l 810 926 l 1273 926 m 463 0 l 694 0 l 694 -116 l 463 -116 l 463 0 m 926 0 l 1042 0 l 1042 -116 l 926 -116 l 926 0 m 0 -116 l 116 -116 l 116 -231 l 0 -231 l 0 -116 m 231 -116 l 463 -116 l 463 -231 l 231 -231 l 231 -116 m 1042 -116 l 1273 -116 l 1273 -231 l 1042 -231 l 1042 -116 z "},"皿":{"ha":1389,"x_min":0,"x_max":1273,"o":"m 1042 810 l 810 810 l 810 0 l 1042 0 l 1042 810 m 0 -116 l 0 0 l 116 0 l 116 926 l 1157 926 l 1157 0 l 1273 0 l 1273 -116 l 0 -116 m 579 0 l 694 0 l 694 810 l 579 810 l 579 0 m 463 810 l 231 810 l 231 0 l 463 0 l 463 810 z "},"目":{"ha":1389,"x_min":116,"x_max":1157,"o":"m 1042 -116 l 1042 116 l 231 116 l 231 -116 l 1042 -116 m 1157 1042 l 1157 -231 l 116 -231 l 116 1042 l 1157 1042 m 231 579 l 231 231 l 1042 231 l 1042 579 l 231 579 m 1042 694 l 1042 926 l 231 926 l 231 694 l 1042 694 z "},"矛":{"ha":1389,"x_min":0,"x_max":1273,"o":"m 1042 1042 l 1042 926 l 926 926 l 926 810 l 810 810 l 810 926 l 116 926 l 116 1042 l 1042 1042 m 463 810 l 579 810 l 579 694 l 463 694 l 463 810 m 694 810 l 810 810 l 810 694 l 694 694 l 694 810 m 347 347 l 463 347 l 463 231 l 347 231 l 347 347 m 1042 347 l 1157 347 l 1157 231 l 1042 231 l 1042 347 m 231 231 l 347 231 l 347 116 l 231 116 l 231 231 m 926 231 l 1042 231 l 1042 116 l 926 116 l 926 231 m 0 116 l 231 116 l 231 0 l 0 0 l 0 116 m 1273 347 l 1157 347 l 1157 463 l 694 463 l 694 -231 l 347 -231 l 347 -116 l 579 -116 l 579 347 l 463 347 l 463 463 l 0 463 l 0 579 l 579 579 l 579 694 l 694 694 l 694 579 l 1273 579 l 1273 347 z "},"矢":{"ha":1389,"x_min":0,"x_max":1273,"o":"m 116 810 l 231 810 l 231 694 l 116 694 l 116 810 m 0 694 l 116 694 l 116 579 l 0 579 l 0 694 m 231 1042 l 347 1042 l 347 926 l 1157 926 l 1157 810 l 694 810 l 694 463 l 1273 463 l 1273 347 l 694 347 l 694 231 l 579 231 l 579 347 l 0 347 l 0 463 l 579 463 l 579 810 l 231 810 l 231 1042 m 463 231 l 579 231 l 579 116 l 463 116 l 463 231 m 694 231 l 810 231 l 810 116 l 694 116 l 694 231 m 347 116 l 463 116 l 463 0 l 347 0 l 347 116 m 810 116 l 926 116 l 926 0 l 810 0 l 810 116 m 231 0 l 347 0 l 347 -116 l 231 -116 l 231 0 m 926 0 l 1042 0 l 1042 -116 l 926 -116 l 926 0 m 231 -231 l 0 -231 l 0 -116 l 231 -116 l 231 -231 m 1042 -116 l 1273 -116 l 1273 -231 l 1042 -231 l 1042 -116 z "},"石":{"ha":1389,"x_min":0,"x_max":1273,"o":"m 0 1042 l 1273 1042 l 1273 926 l 579 926 l 579 694 l 463 694 l 463 926 l 0 926 l 0 1042 m 0 231 l 116 231 l 116 116 l 0 116 l 0 231 m 1157 -231 l 231 -231 l 231 231 l 116 231 l 116 347 l 231 347 l 231 463 l 347 463 l 347 694 l 463 694 l 463 463 l 1157 463 l 1157 -231 m 1042 347 l 347 347 l 347 -116 l 1042 -116 l 1042 347 z "},"示":{"ha":1389,"x_min":0,"x_max":1273,"o":"m 1157 1042 l 1157 926 l 116 926 l 116 1042 l 1157 1042 m 926 347 l 1042 347 l 1042 231 l 926 231 l 926 347 m 231 347 l 347 347 l 347 116 l 231 116 l 231 347 m 1042 231 l 1157 231 l 1157 116 l 1042 116 l 1042 231 m 116 116 l 231 116 l 231 0 l 116 0 l 116 116 m 0 0 l 116 0 l 116 -116 l 0 -116 l 0 0 m 1157 116 l 1273 116 l 1273 -116 l 1157 -116 l 1157 116 m 1273 694 l 1273 579 l 694 579 l 694 -231 l 347 -231 l 347 -116 l 579 -116 l 579 579 l 0 579 l 0 694 l 1273 694 z "},"禾":{"ha":1389,"x_min":0,"x_max":1273,"o":"m 694 1042 l 1157 1042 l 1157 926 l 694 926 l 694 1042 m 347 347 l 463 347 l 463 231 l 347 231 l 347 347 m 810 347 l 926 347 l 926 231 l 810 231 l 810 347 m 231 231 l 347 231 l 347 116 l 231 116 l 231 231 m 926 231 l 1042 231 l 1042 116 l 926 116 l 926 231 m 116 116 l 231 116 l 231 0 l 116 0 l 116 116 m 1042 116 l 1157 116 l 1157 0 l 1042 0 l 1042 116 m 0 0 l 116 0 l 116 -116 l 0 -116 l 0 0 m 1157 0 l 1273 0 l 1273 -116 l 1157 -116 l 1157 0 m 1273 463 l 810 463 l 810 347 l 694 347 l 694 -231 l 579 -231 l 579 347 l 463 347 l 463 463 l 0 463 l 0 579 l 579 579 l 579 810 l 116 810 l 116 926 l 694 926 l 694 579 l 1273 579 l 1273 463 z "},"穴":{"ha":1389,"x_min":0,"x_max":1273,"o":"m 463 1042 l 579 1042 l 579 926 l 463 926 l 463 1042 m 1157 694 l 116 694 l 116 463 l 0 463 l 0 810 l 579 810 l 579 926 l 694 926 l 694 810 l 1273 810 l 1273 463 l 1157 463 l 1157 694 m 347 463 l 463 463 l 463 231 l 347 231 l 347 463 m 810 463 l 926 463 l 926 231 l 810 231 l 810 463 m 231 231 l 347 231 l 347 0 l 231 0 l 231 231 m 926 231 l 1042 231 l 1042 0 l 926 0 l 926 231 m 116 0 l 231 0 l 231 -116 l 116 -116 l 116 0 m 1042 0 l 1157 0 l 1157 -116 l 1042 -116 l 1042 0 m 0 -116 l 116 -116 l 116 -231 l 0 -231 l 0 -116 m 1157 -116 l 1273 -116 l 1273 -231 l 1157 -231 l 1157 -116 z "},"立":{"ha":1389,"x_min":0,"x_max":1273,"o":"m 463 1042 l 579 1042 l 579 926 l 463 926 l 463 1042 m 1273 810 l 1273 694 l 0 694 l 0 810 l 579 810 l 579 926 l 694 926 l 694 810 l 1273 810 m 231 579 l 347 579 l 347 347 l 231 347 l 231 579 m 926 579 l 1042 579 l 1042 231 l 926 231 l 926 579 m 347 347 l 463 347 l 463 0 l 347 0 l 347 347 m 810 231 l 926 231 l 926 0 l 810 0 l 810 231 m 1273 -231 l 0 -231 l 0 -116 l 694 -116 l 694 0 l 810 0 l 810 -116 l 1273 -116 l 1273 -231 z "},"竹":{"ha":1389,"x_min":0,"x_max":1273,"o":"m 116 694 l 231 694 l 231 579 l 116 579 l 116 694 m 694 694 l 810 694 l 810 579 l 694 579 l 694 694 m 0 579 l 116 579 l 116 463 l 0 463 l 0 579 m 579 579 l 694 579 l 694 463 l 579 463 l 579 579 m 347 694 l 231 694 l 231 1042 l 347 1042 l 347 810 l 694 810 l 694 694 l 463 694 l 463 -231 l 347 -231 l 347 694 m 1042 694 l 810 694 l 810 1042 l 926 1042 l 926 810 l 1273 810 l 1273 694 l 1157 694 l 1157 -231 l 810 -231 l 810 -116 l 1042 -116 l 1042 694 z "},"米":{"ha":1389,"x_min":0,"x_max":1273,"o":"m 116 1042 l 231 1042 l 231 926 l 116 926 l 116 1042 m 1042 1042 l 1157 1042 l 1157 926 l 1042 926 l 1042 1042 m 231 926 l 347 926 l 347 810 l 231 810 l 231 926 m 926 926 l 1042 926 l 1042 810 l 926 810 l 926 926 m 347 810 l 463 810 l 463 694 l 347 694 l 347 810 m 810 810 l 926 810 l 926 694 l 810 694 l 810 810 m 347 231 l 463 231 l 463 116 l 347 116 l 347 231 m 810 231 l 926 231 l 926 116 l 810 116 l 810 231 m 231 116 l 347 116 l 347 0 l 231 0 l 231 116 m 926 116 l 1042 116 l 1042 0 l 926 0 l 926 116 m 0 0 l 231 0 l 231 -116 l 0 -116 l 0 0 m 1042 0 l 1273 0 l 1273 -116 l 1042 -116 l 1042 0 m 1273 463 l 694 463 l 694 347 l 810 347 l 810 231 l 694 231 l 694 -231 l 579 -231 l 579 231 l 463 231 l 463 347 l 579 347 l 579 463 l 0 463 l 0 579 l 579 579 l 579 1042 l 694 1042 l 694 579 l 1273 579 l 1273 463 z "},"网":{"ha":1389,"x_min":0,"x_max":1273,"o":"m 231 694 l 347 694 l 347 579 l 231 579 l 231 694 m 463 810 l 579 810 l 579 579 l 463 579 l 463 810 m 694 694 l 810 694 l 810 579 l 694 579 l 694 694 m 926 810 l 1042 810 l 1042 579 l 926 579 l 926 810 m 347 579 l 463 579 l 463 347 l 347 347 l 347 579 m 810 579 l 926 579 l 926 347 l 810 347 l 810 579 m 231 347 l 347 347 l 347 116 l 231 116 l 231 347 m 463 347 l 579 347 l 579 116 l 463 116 l 463 347 m 694 347 l 810 347 l 810 116 l 694 116 l 694 347 m 926 347 l 1042 347 l 1042 116 l 926 116 l 926 347 m 579 116 l 694 116 l 694 0 l 579 0 l 579 116 m 1273 1042 l 1273 -231 l 926 -231 l 926 -116 l 1157 -116 l 1157 926 l 116 926 l 116 116 l 231 116 l 231 0 l 116 0 l 116 -231 l 0 -231 l 0 1042 l 1273 1042 z "},"羊":{"ha":1389,"x_min":0,"x_max":1273,"o":"m 231 1042 l 347 1042 l 347 926 l 231 926 l 231 1042 m 926 1042 l 1042 1042 l 1042 926 l 926 926 l 926 1042 m 810 810 l 810 926 l 926 926 l 926 810 l 1157 810 l 1157 694 l 694 694 l 694 463 l 1042 463 l 1042 347 l 694 347 l 694 116 l 1273 116 l 1273 0 l 694 0 l 694 -231 l 579 -231 l 579 0 l 0 0 l 0 116 l 579 116 l 579 347 l 231 347 l 231 463 l 579 463 l 579 694 l 116 694 l 116 810 l 347 810 l 347 926 l 463 926 l 463 810 l 810 810 z "},"羽":{"ha":1389,"x_min":0,"x_max":1273,"o":"m 0 810 l 116 810 l 116 694 l 0 694 l 0 810 m 694 810 l 810 810 l 810 694 l 694 694 l 694 810 m 116 694 l 231 694 l 231 579 l 116 579 l 116 694 m 810 694 l 926 694 l 926 579 l 810 579 l 810 694 m 231 579 l 347 579 l 347 463 l 231 463 l 231 579 m 926 579 l 1042 579 l 1042 463 l 926 463 l 926 579 m 231 231 l 347 231 l 347 116 l 231 116 l 231 231 m 926 231 l 1042 231 l 1042 116 l 926 116 l 926 231 m 0 116 l 231 116 l 231 0 l 0 0 l 0 116 m 926 0 l 694 0 l 694 116 l 926 116 l 926 0 m 463 926 l 0 926 l 0 1042 l 579 1042 l 579 -116 l 463 -116 l 463 231 l 347 231 l 347 347 l 463 347 l 463 926 m 1157 926 l 694 926 l 694 1042 l 1273 1042 l 1273 -116 l 1157 -116 l 1157 231 l 1042 231 l 1042 347 l 1157 347 l 1157 926 m 231 -116 l 463 -116 l 463 -231 l 231 -231 l 231 -116 m 1157 -231 l 926 -231 l 926 -116 l 1157 -116 l 1157 -231 z "},"老":{"ha":1389,"x_min":0,"x_max":1273,"o":"m 1042 1042 l 1157 1042 l 1157 926 l 1042 926 l 1042 1042 m 926 926 l 1042 926 l 1042 810 l 926 810 l 926 926 m 810 810 l 926 810 l 926 694 l 810 694 l 810 810 m 1273 463 l 579 463 l 579 347 l 463 347 l 463 463 l 0 463 l 0 579 l 463 579 l 463 810 l 116 810 l 116 926 l 463 926 l 463 1042 l 579 1042 l 579 926 l 810 926 l 810 810 l 579 810 l 579 579 l 694 579 l 694 694 l 810 694 l 810 579 l 1273 579 l 1273 463 m 1042 347 l 1157 347 l 1157 231 l 1042 231 l 1042 347 m 0 231 l 231 231 l 231 116 l 0 116 l 0 231 m 1042 116 l 810 116 l 810 231 l 1042 231 l 1042 116 m 347 231 l 231 231 l 231 347 l 463 347 l 463 116 l 810 116 l 810 0 l 463 0 l 463 -116 l 347 -116 l 347 231 m 1273 -231 l 463 -231 l 463 -116 l 1157 -116 l 1157 116 l 1273 116 l 1273 -231 z "},"而":{"ha":1389,"x_min":0,"x_max":1273,"o":"m 0 1042 l 1273 1042 l 1273 926 l 694 926 l 694 810 l 579 810 l 579 926 l 0 926 l 0 1042 m 463 694 l 463 810 l 579 810 l 579 694 l 1273 694 l 1273 -231 l 1042 -231 l 1042 -116 l 1157 -116 l 1157 579 l 926 579 l 926 -116 l 810 -116 l 810 579 l 463 579 l 463 -116 l 347 -116 l 347 579 l 116 579 l 116 -231 l 0 -231 l 0 694 l 463 694 z "},"耳":{"ha":1389,"x_min":0,"x_max":1273,"o":"m 1273 1042 l 1273 926 l 1042 926 l 1042 116 l 1273 116 l 1273 0 l 1042 0 l 1042 -231 l 926 -231 l 926 0 l 694 0 l 694 116 l 926 116 l 926 347 l 347 347 l 347 0 l 694 0 l 694 -116 l 0 -116 l 0 0 l 231 0 l 231 926 l 0 926 l 0 1042 l 1273 1042 m 347 694 l 347 463 l 926 463 l 926 694 l 347 694 m 926 810 l 926 926 l 347 926 l 347 810 l 926 810 z "},"肉":{"ha":1389,"x_min":0,"x_max":1273,"o":"m 463 579 l 579 579 l 579 463 l 463 463 l 463 579 m 694 579 l 810 579 l 810 463 l 694 463 l 694 579 m 231 463 l 463 463 l 463 347 l 231 347 l 231 463 m 810 463 l 1042 463 l 1042 347 l 810 347 l 810 463 m 579 347 l 694 347 l 694 231 l 579 231 l 579 347 m 463 231 l 579 231 l 579 116 l 463 116 l 463 231 m 694 231 l 810 231 l 810 116 l 694 116 l 694 231 m 231 116 l 463 116 l 463 0 l 231 0 l 231 116 m 810 116 l 1042 116 l 1042 0 l 810 0 l 810 116 m 579 810 l 579 1042 l 694 1042 l 694 810 l 1273 810 l 1273 -231 l 926 -231 l 926 -116 l 1157 -116 l 1157 694 l 694 694 l 694 579 l 579 579 l 579 694 l 116 694 l 116 -231 l 0 -231 l 0 810 l 579 810 z "},"臣":{"ha":1389,"x_min":0,"x_max":1273,"o":"m 579 116 l 116 116 l 116 -116 l 579 -116 l 579 116 m 1273 1042 l 1273 926 l 694 926 l 694 694 l 1157 694 l 1157 116 l 694 116 l 694 -116 l 1273 -116 l 1273 -231 l 0 -231 l 0 1042 l 1273 1042 m 116 579 l 116 231 l 1042 231 l 1042 579 l 116 579 m 579 694 l 579 926 l 116 926 l 116 694 l 579 694 z "},"自":{"ha":1389,"x_min":116,"x_max":1157,"o":"m 579 1042 l 694 1042 l 694 926 l 579 926 l 579 1042 m 1042 -116 l 1042 116 l 231 116 l 231 -116 l 1042 -116 m 231 231 l 1042 231 l 1042 463 l 231 463 l 231 231 m 1157 -231 l 116 -231 l 116 810 l 463 810 l 463 926 l 579 926 l 579 810 l 1157 810 l 1157 -231 m 231 694 l 231 579 l 1042 579 l 1042 694 l 231 694 z "},"至":{"ha":1389,"x_min":0,"x_max":1273,"o":"m 0 1042 l 1273 1042 l 1273 926 l 579 926 l 579 810 l 463 810 l 463 926 l 0 926 l 0 1042 m 347 810 l 463 810 l 463 694 l 347 694 l 347 810 m 810 810 l 926 810 l 926 694 l 810 694 l 810 810 m 926 694 l 1042 694 l 1042 579 l 926 579 l 926 694 m 1042 579 l 1157 579 l 1157 347 l 1042 347 l 1042 579 m 579 463 l 116 463 l 116 579 l 231 579 l 231 694 l 347 694 l 347 579 l 926 579 l 926 463 l 694 463 l 694 231 l 1157 231 l 1157 116 l 694 116 l 694 -116 l 1273 -116 l 1273 -231 l 0 -231 l 0 -116 l 579 -116 l 579 116 l 116 116 l 116 231 l 579 231 l 579 463 z "},"臼":{"ha":1389,"x_min":0,"x_max":1273,"o":"m 463 1042 l 579 1042 l 579 926 l 463 926 l 463 1042 m 463 810 l 231 810 l 231 926 l 463 926 l 463 810 m 579 347 l 579 231 l 116 231 l 116 -116 l 1157 -116 l 1157 231 l 694 231 l 694 347 l 1157 347 l 1157 694 l 694 694 l 694 810 l 1273 810 l 1273 -231 l 0 -231 l 0 810 l 231 810 l 231 694 l 116 694 l 116 347 l 579 347 z "},"舌":{"ha":1389,"x_min":0,"x_max":1273,"o":"m 694 1042 l 1157 1042 l 1157 926 l 694 926 l 694 1042 m 1042 -116 l 1042 116 l 231 116 l 231 -116 l 1042 -116 m 579 810 l 116 810 l 116 926 l 694 926 l 694 579 l 1273 579 l 1273 463 l 694 463 l 694 231 l 1157 231 l 1157 -231 l 116 -231 l 116 231 l 579 231 l 579 463 l 0 463 l 0 579 l 579 579 l 579 810 z "},"舟":{"ha":1389,"x_min":0,"x_max":1273,"o":"m 463 694 l 579 694 l 579 579 l 463 579 l 463 694 m 463 231 l 579 231 l 579 116 l 463 116 l 463 231 m 579 116 l 694 116 l 694 0 l 579 0 l 579 116 m 116 116 l 231 116 l 231 -116 l 116 -116 l 116 116 m 0 -116 l 116 -116 l 116 -231 l 0 -231 l 0 -116 m 347 347 l 347 116 l 231 116 l 231 347 l 0 347 l 0 463 l 231 463 l 231 926 l 463 926 l 463 1042 l 579 1042 l 579 926 l 1042 926 l 1042 463 l 1273 463 l 1273 347 l 1042 347 l 1042 -231 l 694 -231 l 694 -116 l 926 -116 l 926 347 l 347 347 m 579 463 l 579 579 l 694 579 l 694 463 l 926 463 l 926 810 l 347 810 l 347 463 l 579 463 z "},"色":{"ha":1389,"x_min":0,"x_max":1273,"o":"m 1042 579 l 694 579 l 694 347 l 1042 347 l 1042 579 m 231 579 l 231 347 l 579 347 l 579 579 l 231 579 m 810 694 l 810 810 l 231 810 l 231 1042 l 347 1042 l 347 926 l 926 926 l 926 694 l 1157 694 l 1157 231 l 231 231 l 231 -116 l 116 -116 l 116 579 l 0 579 l 0 694 l 116 694 l 116 810 l 231 810 l 231 694 l 810 694 m 1273 -231 l 231 -231 l 231 -116 l 1157 -116 l 1157 116 l 1273 116 l 1273 -231 z "},"虫":{"ha":1389,"x_min":0,"x_max":1273,"o":"m 1042 116 l 1157 116 l 1157 0 l 1042 0 l 1042 116 m 694 347 l 1042 347 l 1042 694 l 694 694 l 694 347 m 231 694 l 231 347 l 579 347 l 579 694 l 231 694 m 579 810 l 579 1042 l 694 1042 l 694 810 l 1157 810 l 1157 231 l 694 231 l 694 0 l 1042 0 l 1042 -116 l 579 -116 l 579 231 l 116 231 l 116 810 l 579 810 m 579 -116 l 579 -231 l 0 -231 l 0 -116 l 579 -116 m 1157 0 l 1273 0 l 1273 -231 l 1157 -231 l 1157 0 z "},"血":{"ha":1389,"x_min":0,"x_max":1273,"o":"m 579 1042 l 694 1042 l 694 926 l 579 926 l 579 1042 m 1157 -116 l 1273 -116 l 1273 -231 l 0 -231 l 0 -116 l 116 -116 l 116 810 l 463 810 l 463 926 l 579 926 l 579 810 l 1157 810 l 1157 -116 m 1042 694 l 810 694 l 810 -116 l 1042 -116 l 1042 694 m 579 -116 l 694 -116 l 694 694 l 579 694 l 579 -116 m 463 694 l 231 694 l 231 -116 l 463 -116 l 463 694 z "},"行":{"ha":1389,"x_min":0,"x_max":1273,"o":"m 231 1042 l 347 1042 l 347 926 l 231 926 l 231 1042 m 1157 1042 l 1157 926 l 579 926 l 579 1042 l 1157 1042 m 116 926 l 231 926 l 231 810 l 116 810 l 116 926 m 0 810 l 116 810 l 116 694 l 0 694 l 0 810 m 231 694 l 347 694 l 347 579 l 231 579 l 231 694 m 116 579 l 231 579 l 231 -231 l 116 -231 l 116 347 l 0 347 l 0 463 l 116 463 l 116 579 m 926 579 l 463 579 l 463 694 l 1273 694 l 1273 579 l 1042 579 l 1042 -231 l 694 -231 l 694 -116 l 926 -116 l 926 579 z "},"衣":{"ha":1389,"x_min":0,"x_max":1273,"o":"m 463 1042 l 579 1042 l 579 926 l 463 926 l 463 1042 m 347 579 l 463 579 l 463 463 l 347 463 l 347 579 m 1042 579 l 1157 579 l 1157 463 l 1042 463 l 1042 579 m 579 810 l 579 926 l 694 926 l 694 810 l 1273 810 l 1273 694 l 810 694 l 810 347 l 694 347 l 694 694 l 579 694 l 579 579 l 463 579 l 463 694 l 0 694 l 0 810 l 579 810 m 926 463 l 1042 463 l 1042 347 l 926 347 l 926 463 m 0 231 l 116 231 l 116 116 l 0 116 l 0 231 m 810 347 l 926 347 l 926 116 l 810 116 l 810 347 m 579 116 l 694 116 l 694 0 l 579 0 l 579 116 m 926 116 l 1042 116 l 1042 0 l 926 0 l 926 116 m 463 0 l 579 0 l 579 -116 l 463 -116 l 463 0 m 1042 0 l 1157 0 l 1157 -116 l 1042 -116 l 1042 0 m 231 231 l 116 231 l 116 347 l 231 347 l 231 463 l 347 463 l 347 -116 l 463 -116 l 463 -231 l 231 -231 l 231 231 m 1157 -116 l 1273 -116 l 1273 -231 l 1157 -231 l 1157 -116 z "},"言":{"ha":1389,"x_min":0,"x_max":1273,"o":"m 463 1042 l 579 1042 l 579 926 l 463 926 l 463 1042 m 1273 810 l 1273 694 l 0 694 l 0 810 l 579 810 l 579 926 l 694 926 l 694 810 l 1273 810 m 1157 579 l 1157 463 l 116 463 l 116 579 l 1157 579 m 1157 347 l 1157 231 l 116 231 l 116 347 l 1157 347 m 1157 -231 l 116 -231 l 116 116 l 1157 116 l 1157 -231 m 1042 0 l 231 0 l 231 -116 l 1042 -116 l 1042 0 z "},"谷":{"ha":1389,"x_min":0,"x_max":1273,"o":"m 347 1042 l 463 1042 l 463 926 l 347 926 l 347 1042 m 810 1042 l 926 1042 l 926 926 l 810 926 l 810 1042 m 231 926 l 347 926 l 347 810 l 231 810 l 231 926 m 926 926 l 1042 926 l 1042 810 l 926 810 l 926 926 m 0 810 l 231 810 l 231 694 l 0 694 l 0 810 m 579 810 l 694 810 l 694 694 l 579 694 l 579 810 m 1042 810 l 1273 810 l 1273 694 l 1042 694 l 1042 810 m 463 694 l 579 694 l 579 579 l 463 579 l 463 694 m 694 694 l 810 694 l 810 579 l 694 579 l 694 694 m 231 579 l 463 579 l 463 463 l 231 463 l 231 579 m 810 579 l 1042 579 l 1042 463 l 810 463 l 810 579 m 231 347 l 0 347 l 0 463 l 231 463 l 231 347 m 1042 463 l 1273 463 l 1273 347 l 1042 347 l 1042 463 m 1042 -231 l 231 -231 l 231 347 l 1042 347 l 1042 -231 m 926 231 l 347 231 l 347 -116 l 926 -116 l 926 231 z "},"豆":{"ha":1389,"x_min":0,"x_max":1273,"o":"m 0 1042 l 1273 1042 l 1273 926 l 0 926 l 0 1042 m 231 463 l 1042 463 l 1042 694 l 231 694 l 231 463 m 116 810 l 1157 810 l 1157 347 l 116 347 l 116 810 m 231 231 l 347 231 l 347 116 l 231 116 l 231 231 m 926 231 l 1042 231 l 1042 0 l 926 0 l 926 231 m 1273 -231 l 0 -231 l 0 -116 l 347 -116 l 347 116 l 463 116 l 463 -116 l 810 -116 l 810 0 l 926 0 l 926 -116 l 1273 -116 l 1273 -231 z "},"赤":{"ha":1389,"x_min":0,"x_max":1273,"o":"m 1042 347 l 1157 347 l 1157 231 l 1042 231 l 1042 347 m 116 347 l 231 347 l 231 116 l 116 116 l 116 347 m 0 116 l 116 116 l 116 0 l 0 0 l 0 116 m 1157 231 l 1273 231 l 1273 0 l 1157 0 l 1157 231 m 231 0 l 347 0 l 347 -116 l 231 -116 l 231 0 m 116 -116 l 231 -116 l 231 -231 l 116 -231 l 116 -116 m 347 463 l 0 463 l 0 579 l 579 579 l 579 810 l 116 810 l 116 926 l 579 926 l 579 1042 l 694 1042 l 694 926 l 1157 926 l 1157 810 l 694 810 l 694 579 l 1273 579 l 1273 463 l 926 463 l 926 -231 l 694 -231 l 694 -116 l 810 -116 l 810 463 l 463 463 l 463 0 l 347 0 l 347 463 z "},"走":{"ha":1389,"x_min":0,"x_max":1273,"o":"m 231 347 l 347 347 l 347 0 l 231 0 l 231 347 m 116 0 l 231 0 l 231 -116 l 116 -116 l 116 0 m 579 810 l 116 810 l 116 926 l 579 926 l 579 1042 l 694 1042 l 694 926 l 1157 926 l 1157 810 l 694 810 l 694 579 l 1273 579 l 1273 463 l 694 463 l 694 231 l 1157 231 l 1157 116 l 694 116 l 694 -116 l 347 -116 l 347 0 l 579 0 l 579 463 l 0 463 l 0 579 l 579 579 l 579 810 m 0 -116 l 116 -116 l 116 -231 l 0 -231 l 0 -116 m 1273 -231 l 694 -231 l 694 -116 l 1273 -116 l 1273 -231 z "},"足":{"ha":1389,"x_min":0,"x_max":1273,"o":"m 231 347 l 347 347 l 347 0 l 231 0 l 231 347 m 116 0 l 231 0 l 231 -116 l 116 -116 l 116 0 m 231 926 l 231 579 l 1042 579 l 1042 926 l 231 926 m 1157 1042 l 1157 463 l 694 463 l 694 231 l 1157 231 l 1157 116 l 694 116 l 694 -116 l 347 -116 l 347 0 l 579 0 l 579 463 l 116 463 l 116 1042 l 1157 1042 m 0 -116 l 116 -116 l 116 -231 l 0 -231 l 0 -116 m 1273 -231 l 694 -231 l 694 -116 l 1273 -116 l 1273 -231 z "},"身":{"ha":1389,"x_min":0,"x_max":1273,"o":"m 1157 463 l 1273 463 l 1273 347 l 1157 347 l 1157 463 m 579 -116 l 347 -116 l 347 0 l 579 0 l 579 -116 m 347 -116 l 347 -231 l 0 -231 l 0 -116 l 347 -116 m 1042 347 l 1157 347 l 1157 231 l 1042 231 l 1042 -231 l 694 -231 l 694 -116 l 926 -116 l 926 116 l 694 116 l 694 0 l 579 0 l 579 116 l 0 116 l 0 231 l 231 231 l 231 926 l 463 926 l 463 1042 l 579 1042 l 579 926 l 1042 926 l 1042 347 m 347 347 l 347 231 l 926 231 l 926 347 l 347 347 m 347 579 l 347 463 l 926 463 l 926 579 l 347 579 m 926 694 l 926 810 l 347 810 l 347 694 l 926 694 z "},"辛":{"ha":1389,"x_min":0,"x_max":1273,"o":"m 463 1042 l 579 1042 l 579 926 l 463 926 l 463 1042 m 231 694 l 116 694 l 116 810 l 579 810 l 579 926 l 694 926 l 694 810 l 1157 810 l 1157 694 l 1042 694 l 1042 579 l 926 579 l 926 694 l 347 694 l 347 579 l 231 579 l 231 694 m 579 116 l 579 347 l 0 347 l 0 463 l 347 463 l 347 579 l 463 579 l 463 463 l 810 463 l 810 579 l 926 579 l 926 463 l 1273 463 l 1273 347 l 694 347 l 694 116 l 1157 116 l 1157 0 l 694 0 l 694 -231 l 579 -231 l 579 0 l 116 0 l 116 116 l 579 116 z "},"辰":{"ha":1389,"x_min":0,"x_max":1273,"o":"m 1157 810 l 1157 694 l 347 694 l 347 810 l 1157 810 m 1157 347 l 1273 347 l 1273 231 l 1157 231 l 1157 347 m 1042 231 l 1157 231 l 1157 116 l 1042 116 l 1042 231 m 926 116 l 1042 116 l 1042 0 l 926 0 l 926 116 m 579 0 l 810 0 l 810 -116 l 579 -116 l 579 0 m 1042 0 l 1157 0 l 1157 -116 l 1042 -116 l 1042 0 m 0 -116 l 116 -116 l 116 -231 l 0 -231 l 0 -116 m 1273 1042 l 1273 926 l 231 926 l 231 579 l 1273 579 l 1273 463 l 926 463 l 926 116 l 810 116 l 810 463 l 463 463 l 463 -116 l 579 -116 l 579 -231 l 347 -231 l 347 463 l 231 463 l 231 -116 l 116 -116 l 116 1042 l 1273 1042 m 1157 -116 l 1273 -116 l 1273 -231 l 1157 -231 l 1157 -116 z "},"邑":{"ha":1389,"x_min":116,"x_max":1273,"o":"m 926 810 l 926 926 l 347 926 l 347 810 l 926 810 m 231 1042 l 1042 1042 l 1042 694 l 231 694 l 231 1042 m 579 463 l 231 463 l 231 231 l 579 231 l 579 463 m 231 116 l 231 -116 l 116 -116 l 116 579 l 1157 579 l 1157 116 l 231 116 m 1042 231 l 1042 463 l 694 463 l 694 231 l 1042 231 m 1273 -231 l 231 -231 l 231 -116 l 1157 -116 l 1157 0 l 1273 0 l 1273 -231 z "},"酉":{"ha":1389,"x_min":0,"x_max":1273,"o":"m 347 463 l 463 463 l 463 347 l 347 347 l 347 463 m 1042 579 l 810 579 l 810 347 l 1042 347 l 1042 579 m 231 0 l 231 -116 l 1042 -116 l 1042 0 l 231 0 m 579 694 l 694 694 l 694 926 l 579 926 l 579 694 m 231 579 l 231 347 l 347 347 l 347 231 l 231 231 l 231 116 l 1042 116 l 1042 231 l 694 231 l 694 579 l 579 579 l 579 463 l 463 463 l 463 579 l 231 579 m 463 694 l 463 926 l 0 926 l 0 1042 l 1273 1042 l 1273 926 l 810 926 l 810 694 l 1157 694 l 1157 -231 l 116 -231 l 116 694 l 463 694 z "},"里":{"ha":1389,"x_min":0,"x_max":1273,"o":"m 1042 579 l 694 579 l 694 347 l 1042 347 l 1042 579 m 1042 926 l 694 926 l 694 694 l 1042 694 l 1042 926 m 579 116 l 579 231 l 116 231 l 116 1042 l 1157 1042 l 1157 231 l 694 231 l 694 116 l 1157 116 l 1157 0 l 694 0 l 694 -116 l 1273 -116 l 1273 -231 l 0 -231 l 0 -116 l 579 -116 l 579 0 l 116 0 l 116 116 l 579 116 m 231 579 l 231 347 l 579 347 l 579 579 l 231 579 m 579 694 l 579 926 l 231 926 l 231 694 l 579 694 z "},"金":{"ha":1389,"x_min":0,"x_max":1273,"o":"m 579 1042 l 694 1042 l 694 926 l 579 926 l 579 1042 m 463 926 l 579 926 l 579 810 l 463 810 l 463 926 m 694 926 l 810 926 l 810 810 l 694 810 l 694 926 m 231 810 l 463 810 l 463 694 l 231 694 l 231 810 m 1042 694 l 810 694 l 810 810 l 1042 810 l 1042 694 m 0 694 l 231 694 l 231 579 l 0 579 l 0 694 m 1273 579 l 1042 579 l 1042 694 l 1273 694 l 1273 579 m 347 0 l 463 0 l 463 -116 l 579 -116 l 579 116 l 347 116 l 347 0 l 231 0 l 231 116 l 116 116 l 116 231 l 579 231 l 579 463 l 231 463 l 231 579 l 1042 579 l 1042 463 l 694 463 l 694 231 l 1157 231 l 1157 116 l 1042 116 l 1042 0 l 926 0 l 926 116 l 694 116 l 694 -116 l 810 -116 l 810 0 l 926 0 l 926 -116 l 1273 -116 l 1273 -231 l 0 -231 l 0 -116 l 347 -116 l 347 0 z "},"隶":{"ha":1389,"x_min":0,"x_max":1273,"o":"m 347 231 l 463 231 l 463 116 l 347 116 l 347 231 m 926 231 l 1042 231 l 1042 116 l 926 116 l 926 231 m 810 116 l 926 116 l 926 0 l 810 0 l 810 116 m 231 0 l 463 0 l 463 -116 l 231 -116 l 231 0 m 926 0 l 1042 0 l 1042 -116 l 926 -116 l 926 0 m 231 -231 l 0 -231 l 0 -116 l 231 -116 l 231 -231 m 1042 694 l 1042 810 l 694 810 l 694 694 l 1042 694 m 1042 579 l 694 579 l 694 463 l 1042 463 l 1042 579 m 579 694 l 579 810 l 116 810 l 116 926 l 579 926 l 579 1042 l 694 1042 l 694 926 l 1157 926 l 1157 694 l 1273 694 l 1273 579 l 1157 579 l 1157 231 l 1042 231 l 1042 347 l 694 347 l 694 231 l 810 231 l 810 116 l 694 116 l 694 -231 l 463 -231 l 463 -116 l 579 -116 l 579 0 l 463 0 l 463 116 l 579 116 l 579 347 l 347 347 l 347 231 l 231 231 l 231 347 l 116 347 l 116 463 l 579 463 l 579 579 l 0 579 l 0 694 l 579 694 m 1042 -116 l 1273 -116 l 1273 -231 l 1042 -231 l 1042 -116 z "},"雨":{"ha":1389,"x_min":0,"x_max":1273,"o":"m 231 463 l 347 463 l 347 347 l 231 347 l 231 463 m 810 463 l 926 463 l 926 347 l 810 347 l 810 463 m 347 347 l 463 347 l 463 231 l 347 231 l 347 347 m 926 347 l 1042 347 l 1042 231 l 926 231 l 926 347 m 231 116 l 347 116 l 347 0 l 231 0 l 231 116 m 810 116 l 926 116 l 926 0 l 810 0 l 810 116 m 347 0 l 463 0 l 463 -116 l 347 -116 l 347 0 m 926 0 l 1042 0 l 1042 -116 l 926 -116 l 926 0 m 579 694 l 579 926 l 0 926 l 0 1042 l 1273 1042 l 1273 926 l 694 926 l 694 694 l 1273 694 l 1273 -231 l 1157 -231 l 1157 579 l 694 579 l 694 -231 l 579 -231 l 579 579 l 116 579 l 116 -231 l 0 -231 l 0 694 l 579 694 z "},"非":{"ha":1389,"x_min":0,"x_max":1273,"o":"m 347 694 l 0 694 l 0 810 l 347 810 l 347 1042 l 463 1042 l 463 -231 l 347 -231 l 347 0 l 0 0 l 0 116 l 347 116 l 347 347 l 0 347 l 0 463 l 347 463 l 347 694 m 810 1042 l 926 1042 l 926 810 l 1273 810 l 1273 694 l 926 694 l 926 463 l 1273 463 l 1273 347 l 926 347 l 926 116 l 1273 116 l 1273 0 l 926 0 l 926 -231 l 810 -231 l 810 1042 z "},"面":{"ha":1389,"x_min":0,"x_max":1273,"o":"m 0 1042 l 1273 1042 l 1273 926 l 694 926 l 694 810 l 579 810 l 579 926 l 0 926 l 0 1042 m 1157 579 l 926 579 l 926 -116 l 1157 -116 l 1157 579 m 463 579 l 463 463 l 810 463 l 810 579 l 463 579 m 347 579 l 116 579 l 116 -116 l 347 -116 l 347 579 m 463 0 l 463 -116 l 810 -116 l 810 0 l 463 0 m 810 116 l 810 347 l 463 347 l 463 116 l 810 116 m 463 694 l 463 810 l 579 810 l 579 694 l 1273 694 l 1273 -231 l 0 -231 l 0 694 l 463 694 z "},"革":{"ha":1389,"x_min":0,"x_max":1273,"o":"m 694 231 l 1042 231 l 1042 347 l 694 347 l 694 231 m 231 347 l 231 231 l 579 231 l 579 347 l 231 347 m 810 694 l 810 810 l 463 810 l 463 694 l 810 694 m 347 810 l 0 810 l 0 926 l 347 926 l 347 1042 l 463 1042 l 463 926 l 810 926 l 810 1042 l 926 1042 l 926 926 l 1273 926 l 1273 810 l 926 810 l 926 579 l 694 579 l 694 463 l 1157 463 l 1157 116 l 694 116 l 694 0 l 1273 0 l 1273 -116 l 694 -116 l 694 -231 l 579 -231 l 579 -116 l 0 -116 l 0 0 l 579 0 l 579 116 l 116 116 l 116 463 l 579 463 l 579 579 l 347 579 l 347 810 z "},"韭":{"ha":1389,"x_min":0,"x_max":1273,"o":"m 347 810 l 0 810 l 0 926 l 347 926 l 347 1042 l 463 1042 l 463 -116 l 810 -116 l 810 1042 l 926 1042 l 926 926 l 1273 926 l 1273 810 l 926 810 l 926 579 l 1273 579 l 1273 463 l 926 463 l 926 231 l 1273 231 l 1273 116 l 926 116 l 926 -116 l 1273 -116 l 1273 -231 l 0 -231 l 0 -116 l 347 -116 l 347 116 l 0 116 l 0 231 l 347 231 l 347 463 l 0 463 l 0 579 l 347 579 l 347 810 z "},"音":{"ha":1389,"x_min":0,"x_max":1273,"o":"m 1157 926 l 1157 810 l 1042 810 l 1042 694 l 926 694 l 926 810 l 347 810 l 347 694 l 231 694 l 231 810 l 116 810 l 116 926 l 579 926 l 579 1042 l 694 1042 l 694 926 l 1157 926 m 810 694 l 926 694 l 926 579 l 1273 579 l 1273 463 l 0 463 l 0 579 l 347 579 l 347 694 l 463 694 l 463 579 l 810 579 l 810 694 m 347 0 l 347 -116 l 926 -116 l 926 0 l 347 0 m 1042 -231 l 231 -231 l 231 347 l 1042 347 l 1042 -231 m 926 231 l 347 231 l 347 116 l 926 116 l 926 231 z "},"首":{"ha":1389,"x_min":0,"x_max":1273,"o":"m 231 1042 l 347 1042 l 347 926 l 231 926 l 231 1042 m 926 1042 l 1042 1042 l 1042 926 l 926 926 l 926 1042 m 1042 347 l 1042 463 l 231 463 l 231 347 l 1042 347 m 231 0 l 231 -116 l 1042 -116 l 1042 0 l 231 0 m 1042 116 l 1042 231 l 231 231 l 231 116 l 1042 116 m 810 810 l 810 926 l 926 926 l 926 810 l 1273 810 l 1273 694 l 694 694 l 694 579 l 1157 579 l 1157 -231 l 116 -231 l 116 579 l 579 579 l 579 694 l 0 694 l 0 810 l 347 810 l 347 926 l 463 926 l 463 810 l 810 810 z "},"香":{"ha":1389,"x_min":0,"x_max":1273,"o":"m 694 1042 l 1157 1042 l 1157 926 l 694 926 l 694 1042 m 347 0 l 347 -116 l 926 -116 l 926 0 l 347 0 m 926 116 l 926 231 l 347 231 l 347 116 l 926 116 m 579 694 l 579 810 l 116 810 l 116 926 l 694 926 l 694 694 l 1273 694 l 1273 579 l 926 579 l 926 463 l 810 463 l 810 579 l 694 579 l 694 347 l 926 347 l 926 463 l 1042 463 l 1042 347 l 1273 347 l 1273 231 l 1042 231 l 1042 -231 l 231 -231 l 231 231 l 0 231 l 0 347 l 231 347 l 231 463 l 347 463 l 347 347 l 579 347 l 579 579 l 463 579 l 463 463 l 347 463 l 347 579 l 0 579 l 0 694 l 579 694 z "},"高":{"ha":1389,"x_min":0,"x_max":1273,"o":"m 926 694 l 926 810 l 347 810 l 347 694 l 926 694 m 231 810 l 0 810 l 0 926 l 579 926 l 579 1042 l 694 1042 l 694 926 l 1273 926 l 1273 810 l 1042 810 l 1042 579 l 231 579 l 231 810 m 347 -116 l 347 231 l 926 231 l 926 -116 l 347 -116 m 810 0 l 810 116 l 463 116 l 463 0 l 810 0 m 0 463 l 1273 463 l 1273 -231 l 1042 -231 l 1042 -116 l 1157 -116 l 1157 347 l 116 347 l 116 -231 l 0 -231 l 0 463 z "},"鹿":{"ha":1389,"x_min":0,"x_max":1273,"o":"m 1042 231 l 1157 231 l 1157 116 l 1042 116 l 1042 231 m 579 0 l 694 0 l 694 -116 l 579 -116 l 579 0 m 0 -116 l 116 -116 l 116 -231 l 0 -231 l 0 -116 m 1157 463 l 1157 579 l 926 579 l 926 463 l 1157 463 m 579 579 l 579 463 l 810 463 l 810 579 l 579 579 m 347 347 l 231 347 l 231 -116 l 116 -116 l 116 926 l 694 926 l 694 1042 l 810 1042 l 810 926 l 1273 926 l 1273 810 l 926 810 l 926 694 l 1273 694 l 1273 347 l 926 347 l 926 116 l 1042 116 l 1042 0 l 926 0 l 926 -116 l 810 -116 l 810 347 l 463 347 l 463 231 l 694 231 l 694 116 l 463 116 l 463 -116 l 579 -116 l 579 -231 l 347 -231 l 347 347 m 579 694 l 810 694 l 810 810 l 579 810 l 579 694 m 231 579 l 231 463 l 463 463 l 463 579 l 231 579 m 463 694 l 463 810 l 231 810 l 231 694 l 463 694 m 1157 -116 l 1157 0 l 1273 0 l 1273 -231 l 926 -231 l 926 -116 l 1157 -116 z "},"麻":{"ha":1389,"x_min":0,"x_max":1273,"o":"m 694 116 l 810 116 l 810 0 l 694 0 l 694 116 m 1157 116 l 1273 116 l 1273 0 l 1157 0 l 1157 116 m 0 -116 l 116 -116 l 116 -231 l 0 -231 l 0 -116 m 463 116 l 347 116 l 347 347 l 463 347 l 463 463 l 231 463 l 231 116 l 347 116 l 347 0 l 231 0 l 231 -116 l 116 -116 l 116 926 l 694 926 l 694 1042 l 810 1042 l 810 926 l 1273 926 l 1273 810 l 1042 810 l 1042 579 l 1273 579 l 1273 463 l 1042 463 l 1042 231 l 1157 231 l 1157 116 l 1042 116 l 1042 -231 l 926 -231 l 926 116 l 810 116 l 810 347 l 926 347 l 926 463 l 579 463 l 579 231 l 694 231 l 694 116 l 579 116 l 579 -231 l 463 -231 l 463 116 m 579 579 l 926 579 l 926 810 l 579 810 l 579 579 m 463 810 l 231 810 l 231 579 l 463 579 l 463 810 z "},"黑":{"ha":1389,"x_min":0,"x_max":1273,"o":"m 347 810 l 463 810 l 463 694 l 347 694 l 347 810 m 810 810 l 926 810 l 926 694 l 810 694 l 810 810 m 694 579 l 1042 579 l 1042 926 l 694 926 l 694 579 m 231 926 l 231 579 l 579 579 l 579 926 l 231 926 m 579 116 l 579 231 l 116 231 l 116 347 l 579 347 l 579 463 l 116 463 l 116 1042 l 1157 1042 l 1157 463 l 694 463 l 694 347 l 1157 347 l 1157 231 l 694 231 l 694 116 l 1273 116 l 1273 0 l 1157 0 l 1157 -116 l 1042 -116 l 1042 0 l 810 0 l 810 -116 l 694 -116 l 694 0 l 463 0 l 463 -116 l 347 -116 l 347 0 l 231 0 l 231 -116 l 116 -116 l 116 0 l 0 0 l 0 116 l 579 116 m 0 -116 l 116 -116 l 116 -231 l 0 -231 l 0 -116 m 463 -116 l 579 -116 l 579 -231 l 463 -231 l 463 -116 m 810 -116 l 926 -116 l 926 -231 l 810 -231 l 810 -116 m 1157 -116 l 1273 -116 l 1273 -231 l 1157 -231 l 1157 -116 z "},"鼎":{"ha":1389,"x_min":0,"x_max":1273,"o":"m 0 -116 l 116 -116 l 116 -231 l 0 -231 l 0 -116 m 347 694 l 347 579 l 926 579 l 926 694 l 347 694 m 347 926 l 347 810 l 926 810 l 926 926 l 347 926 m 926 347 l 926 463 l 347 463 l 347 347 l 926 347 m 579 -231 l 463 -231 l 463 0 l 231 0 l 231 -116 l 116 -116 l 116 0 l 0 0 l 0 116 l 463 116 l 463 231 l 0 231 l 0 810 l 116 810 l 116 347 l 231 347 l 231 1042 l 1042 1042 l 1042 347 l 1157 347 l 1157 810 l 1273 810 l 1273 231 l 810 231 l 810 116 l 1273 116 l 1273 -231 l 1157 -231 l 1157 0 l 810 0 l 810 -231 l 694 -231 l 694 231 l 579 231 l 579 -231 z "},"鼓":{"ha":1389,"x_min":0,"x_max":1273,"o":"m 579 579 l 0 579 l 0 694 l 231 694 l 231 810 l 0 810 l 0 926 l 231 926 l 231 1042 l 347 1042 l 347 926 l 694 926 l 694 810 l 347 810 l 347 694 l 579 694 l 579 579 m 1157 347 l 810 347 l 810 116 l 694 116 l 694 463 l 926 463 l 926 694 l 694 694 l 694 810 l 926 810 l 926 1042 l 1042 1042 l 1042 810 l 1273 810 l 1273 694 l 1042 694 l 1042 463 l 1273 463 l 1273 116 l 1157 116 l 1157 347 m 810 116 l 926 116 l 926 0 l 810 0 l 810 116 m 1042 116 l 1157 116 l 1157 0 l 1042 0 l 1042 116 m 926 0 l 1042 0 l 1042 -116 l 926 -116 l 926 0 m 116 231 l 463 231 l 463 347 l 116 347 l 116 231 m 0 463 l 579 463 l 579 116 l 463 116 l 463 0 l 579 0 l 579 -116 l 347 -116 l 347 116 l 231 116 l 231 -116 l 347 -116 l 347 -231 l 0 -231 l 0 -116 l 116 -116 l 116 116 l 0 116 l 0 463 m 926 -231 l 579 -231 l 579 -116 l 926 -116 l 926 -231 m 1042 -116 l 1273 -116 l 1273 -231 l 1042 -231 l 1042 -116 z "},"鼠":{"ha":1389,"x_min":116,"x_max":1273,"o":"m 116 1042 l 579 1042 l 579 926 l 231 926 l 231 810 l 579 810 l 579 694 l 231 694 l 231 579 l 1042 579 l 1042 694 l 694 694 l 694 810 l 1042 810 l 1042 926 l 694 926 l 694 1042 l 1157 1042 l 1157 463 l 116 463 l 116 1042 m 347 347 l 463 347 l 463 231 l 347 231 l 347 347 m 810 347 l 926 347 l 926 231 l 810 231 l 810 347 m 347 116 l 463 116 l 463 0 l 347 0 l 347 116 m 810 116 l 926 116 l 926 0 l 810 0 l 810 116 m 1157 -116 l 926 -116 l 926 0 l 1042 0 l 1042 116 l 926 116 l 926 231 l 1042 231 l 1042 347 l 1157 347 l 1157 -116 m 116 347 l 231 347 l 231 -116 l 463 -116 l 463 -231 l 116 -231 l 116 347 m 463 0 l 579 0 l 579 116 l 463 116 l 463 231 l 579 231 l 579 347 l 694 347 l 694 -116 l 926 -116 l 926 -231 l 579 -231 l 579 -116 l 463 -116 l 463 0 m 1157 -116 l 1273 -116 l 1273 -231 l 1157 -231 l 1157 -116 z "},"鼻":{"ha":1389,"x_min":0,"x_max":1273,"o":"m 1042 0 l 1042 116 l 694 116 l 694 0 l 1042 0 m 694 231 l 1042 231 l 1042 347 l 694 347 l 694 231 m 347 -116 l 347 -231 l 231 -231 l 231 -116 l 0 -116 l 0 0 l 116 0 l 116 463 l 231 463 l 231 926 l 463 926 l 463 1042 l 579 1042 l 579 926 l 1042 926 l 1042 463 l 1157 463 l 1157 0 l 1273 0 l 1273 -116 l 1042 -116 l 1042 -231 l 926 -231 l 926 -116 l 347 -116 m 579 0 l 579 116 l 231 116 l 231 0 l 579 0 m 231 347 l 231 231 l 579 231 l 579 347 l 231 347 m 347 579 l 347 463 l 926 463 l 926 579 l 347 579 m 926 694 l 926 810 l 347 810 l 347 694 l 926 694 z "},"。":{"ha":1389,"x_min":116,"x_max":579,"o":"m 463 116 l 231 116 l 231 231 l 463 231 l 463 116 m 116 116 l 231 116 l 231 -116 l 116 -116 l 116 116 m 463 116 l 579 116 l 579 -116 l 463 -116 l 463 116 m 231 -116 l 463 -116 l 463 -231 l 231 -231 l 231 -116 z "},"《":{"ha":1389,"x_min":463,"x_max":1157,"o":"m 694 1042 l 810 1042 l 810 810 l 694 810 l 694 1042 m 1042 1042 l 1157 1042 l 1157 810 l 1042 810 l 1042 1042 m 579 810 l 694 810 l 694 579 l 579 579 l 579 810 m 926 810 l 1042 810 l 1042 579 l 926 579 l 926 810 m 463 579 l 579 579 l 579 231 l 463 231 l 463 579 m 810 579 l 926 579 l 926 231 l 810 231 l 810 579 m 579 231 l 694 231 l 694 0 l 579 0 l 579 231 m 926 231 l 1042 231 l 1042 0 l 926 0 l 926 231 m 694 0 l 810 0 l 810 -231 l 694 -231 l 694 0 m 1042 0 l 1157 0 l 1157 -231 l 1042 -231 l 1042 0 z "},"》":{"ha":1389,"x_min":116,"x_max":810,"o":"m 116 1042 l 231 1042 l 231 810 l 116 810 l 116 1042 m 463 1042 l 579 1042 l 579 810 l 463 810 l 463 1042 m 231 810 l 347 810 l 347 579 l 231 579 l 231 810 m 579 810 l 694 810 l 694 579 l 579 579 l 579 810 m 347 579 l 463 579 l 463 231 l 347 231 l 347 579 m 694 579 l 810 579 l 810 231 l 694 231 l 694 579 m 231 231 l 347 231 l 347 0 l 231 0 l 231 231 m 579 231 l 694 231 l 694 0 l 579 0 l 579 231 m 116 0 l 231 0 l 231 -231 l 116 -231 l 116 0 m 463 0 l 579 0 l 579 -231 l 463 -231 l 463 0 z "},"【":{"ha":1389,"x_min":579,"x_max":1157,"o":"m 579 1042 l 1157 1042 l 1157 926 l 1042 926 l 1042 810 l 926 810 l 926 579 l 810 579 l 810 231 l 926 231 l 926 0 l 1042 0 l 1042 -116 l 1157 -116 l 1157 -231 l 579 -231 l 579 1042 z "},"】":{"ha":1389,"x_min":116,"x_max":694,"o":"m 347 810 l 231 810 l 231 926 l 116 926 l 116 1042 l 694 1042 l 694 -231 l 116 -231 l 116 -116 l 231 -116 l 231 0 l 347 0 l 347 231 l 463 231 l 463 579 l 347 579 l 347 810 z "},"丁":{"ha":1389,"x_min":0,"x_max":1273,"o":"m 0 1042 l 1273 1042 l 1273 926 l 694 926 l 694 -231 l 347 -231 l 347 -116 l 579 -116 l 579 926 l 0 926 l 0 1042 z "},"七":{"ha":1389,"x_min":0,"x_max":1273,"o":"m 1273 579 l 1042 579 l 1042 694 l 1273 694 l 1273 579 m 463 1042 l 579 1042 l 579 579 l 1042 579 l 1042 463 l 579 463 l 579 -116 l 463 -116 l 463 347 l 0 347 l 0 463 l 463 463 l 463 1042 m 1157 116 l 1273 116 l 1273 -231 l 579 -231 l 579 -116 l 1157 -116 l 1157 116 z "},"万":{"ha":1389,"x_min":0,"x_max":1273,"o":"m 347 231 l 463 231 l 463 0 l 347 0 l 347 231 m 231 0 l 347 0 l 347 -116 l 231 -116 l 231 0 m 1042 463 l 579 463 l 579 231 l 463 231 l 463 926 l 0 926 l 0 1042 l 1273 1042 l 1273 926 l 579 926 l 579 579 l 1157 579 l 1157 -116 l 1042 -116 l 1042 463 m 231 -231 l 0 -231 l 0 -116 l 231 -116 l 231 -231 m 810 -116 l 1042 -116 l 1042 -231 l 810 -231 l 810 -116 z "},"丈":{"ha":1389,"x_min":0,"x_max":1273,"o":"m 231 579 l 347 579 l 347 347 l 231 347 l 231 579 m 810 810 l 810 1042 l 926 1042 l 926 810 l 1273 810 l 1273 694 l 926 694 l 926 347 l 810 347 l 810 694 l 0 694 l 0 810 l 810 810 m 347 347 l 463 347 l 463 231 l 347 231 l 347 347 m 463 231 l 579 231 l 579 116 l 463 116 l 463 231 m 694 347 l 810 347 l 810 116 l 694 116 l 694 347 m 579 116 l 694 116 l 694 0 l 579 0 l 579 116 m 579 -116 l 347 -116 l 347 0 l 579 0 l 579 -116 m 926 -116 l 694 -116 l 694 0 l 926 0 l 926 -116 m 347 -116 l 347 -231 l 0 -231 l 0 -116 l 347 -116 m 1273 -116 l 1273 -231 l 926 -231 l 926 -116 l 1273 -116 z "},"三":{"ha":1389,"x_min":0,"x_max":1273,"o":"m 1157 1042 l 1157 926 l 116 926 l 116 1042 l 1157 1042 m 1042 463 l 1042 347 l 231 347 l 231 463 l 1042 463 m 1273 -231 l 0 -231 l 0 -116 l 1273 -116 l 1273 -231 z "},"上":{"ha":1389,"x_min":0,"x_max":1273,"o":"m 1273 -231 l 0 -231 l 0 -116 l 579 -116 l 579 1042 l 694 1042 l 694 579 l 1157 579 l 1157 463 l 694 463 l 694 -116 l 1273 -116 l 1273 -231 z "},"下":{"ha":1389,"x_min":0,"x_max":1273,"o":"m 810 579 l 926 579 l 926 463 l 810 463 l 810 579 m 926 463 l 1042 463 l 1042 347 l 926 347 l 926 463 m 1042 347 l 1157 347 l 1157 231 l 1042 231 l 1042 347 m 0 1042 l 1273 1042 l 1273 926 l 694 926 l 694 -231 l 579 -231 l 579 926 l 0 926 l 0 1042 z "},"不":{"ha":1389,"x_min":0,"x_max":1273,"o":"m 0 1042 l 1273 1042 l 1273 926 l 810 926 l 810 810 l 694 810 l 694 926 l 0 926 l 0 1042 m 347 579 l 463 579 l 463 463 l 347 463 l 347 579 m 810 579 l 926 579 l 926 463 l 810 463 l 810 579 m 231 463 l 347 463 l 347 347 l 231 347 l 231 463 m 926 463 l 1042 463 l 1042 347 l 926 347 l 926 463 m 0 347 l 231 347 l 231 231 l 0 231 l 0 347 m 1042 347 l 1157 347 l 1157 231 l 1042 231 l 1042 347 m 1157 231 l 1273 231 l 1273 116 l 1157 116 l 1157 231 m 463 694 l 579 694 l 579 810 l 694 810 l 694 -231 l 579 -231 l 579 579 l 463 579 l 463 694 z "},"与":{"ha":1389,"x_min":0,"x_max":1273,"o":"m 1273 926 l 1273 810 l 463 810 l 463 694 l 347 694 l 347 1042 l 463 1042 l 463 926 l 1273 926 m 926 231 l 926 116 l 0 116 l 0 231 l 926 231 m 1273 -116 l 1157 -116 l 1157 463 l 231 463 l 231 694 l 347 694 l 347 579 l 1273 579 l 1273 -116 m 1157 -231 l 810 -231 l 810 -116 l 1157 -116 l 1157 -231 z "},"丐":{"ha":1389,"x_min":0,"x_max":1273,"o":"m 1273 1042 l 1273 926 l 694 926 l 694 694 l 1157 694 l 1157 579 l 694 579 l 694 347 l 1273 347 l 1273 -116 l 1157 -116 l 1157 231 l 116 231 l 116 694 l 231 694 l 231 347 l 579 347 l 579 926 l 0 926 l 0 1042 l 1273 1042 m 1157 -231 l 810 -231 l 810 -116 l 1157 -116 l 1157 -231 z "},"丑":{"ha":1389,"x_min":0,"x_max":1273,"o":"m 463 -116 l 926 -116 l 926 347 l 463 347 l 463 -116 m 579 463 l 926 463 l 926 926 l 579 926 l 579 463 m 463 926 l 116 926 l 116 1042 l 1042 1042 l 1042 -116 l 1273 -116 l 1273 -231 l 0 -231 l 0 -116 l 347 -116 l 347 347 l 116 347 l 116 463 l 463 463 l 463 926 z "},"专":{"ha":1389,"x_min":0,"x_max":1273,"o":"m 463 810 l 116 810 l 116 926 l 579 926 l 579 1042 l 694 1042 l 694 926 l 1157 926 l 1157 810 l 579 810 l 579 579 l 1273 579 l 1273 463 l 463 463 l 463 347 l 1157 347 l 1157 231 l 1042 231 l 1042 116 l 926 116 l 926 231 l 231 231 l 231 347 l 347 347 l 347 463 l 0 463 l 0 579 l 463 579 l 463 810 m 579 0 l 347 0 l 347 116 l 579 116 l 579 0 m 810 116 l 926 116 l 926 0 l 810 0 l 810 116 m 579 0 l 810 0 l 810 -116 l 579 -116 l 579 0 m 810 -116 l 1042 -116 l 1042 -231 l 810 -231 l 810 -116 z "},"且":{"ha":1389,"x_min":0,"x_max":1273,"o":"m 347 231 l 347 -116 l 926 -116 l 926 231 l 347 231 m 1042 1042 l 1042 -116 l 1273 -116 l 1273 -231 l 0 -231 l 0 -116 l 231 -116 l 231 1042 l 1042 1042 m 347 579 l 347 347 l 926 347 l 926 579 l 347 579 m 926 694 l 926 926 l 347 926 l 347 694 l 926 694 z "},"世":{"ha":1389,"x_min":0,"x_max":1273,"o":"m 694 231 l 926 231 l 926 579 l 694 579 l 694 231 m 579 694 l 579 1042 l 694 1042 l 694 694 l 926 694 l 926 1042 l 1042 1042 l 1042 694 l 1273 694 l 1273 579 l 1042 579 l 1042 116 l 579 116 l 579 579 l 347 579 l 347 -116 l 1273 -116 l 1273 -231 l 231 -231 l 231 579 l 0 579 l 0 694 l 231 694 l 231 1042 l 347 1042 l 347 694 l 579 694 z "},"丘":{"ha":1389,"x_min":0,"x_max":1273,"o":"m 810 1042 l 1042 1042 l 1042 926 l 810 926 l 810 1042 m 347 -116 l 810 -116 l 810 463 l 347 463 l 347 -116 m 1157 463 l 926 463 l 926 -116 l 1273 -116 l 1273 -231 l 0 -231 l 0 -116 l 231 -116 l 231 926 l 810 926 l 810 810 l 347 810 l 347 579 l 1157 579 l 1157 463 z "},"丙":{"ha":1389,"x_min":0,"x_max":1273,"o":"m 463 463 l 579 463 l 579 347 l 463 347 l 463 463 m 694 463 l 810 463 l 810 347 l 694 347 l 694 463 m 347 347 l 463 347 l 463 231 l 347 231 l 347 347 m 810 347 l 926 347 l 926 231 l 810 231 l 810 347 m 231 231 l 347 231 l 347 116 l 231 116 l 231 231 m 926 231 l 1042 231 l 1042 116 l 926 116 l 926 231 m 579 694 l 579 926 l 0 926 l 0 1042 l 1273 1042 l 1273 926 l 694 926 l 694 694 l 1273 694 l 1273 -231 l 926 -231 l 926 -116 l 1157 -116 l 1157 579 l 694 579 l 694 463 l 579 463 l 579 579 l 116 579 l 116 -231 l 0 -231 l 0 694 l 579 694 z "},"业":{"ha":1389,"x_min":0,"x_max":1273,"o":"m 0 694 l 116 694 l 116 463 l 0 463 l 0 694 m 1157 694 l 1273 694 l 1273 463 l 1157 463 l 1157 694 m 116 463 l 231 463 l 231 231 l 116 231 l 116 463 m 1042 463 l 1157 463 l 1157 231 l 1042 231 l 1042 463 m 1273 -231 l 0 -231 l 0 -116 l 347 -116 l 347 1042 l 463 1042 l 463 -116 l 810 -116 l 810 1042 l 926 1042 l 926 -116 l 1273 -116 l 1273 -231 z "},"丛":{"ha":1389,"x_min":0,"x_max":1273,"o":"m 347 1042 l 463 1042 l 463 579 l 347 579 l 347 1042 m 810 1042 l 926 1042 l 926 579 l 810 579 l 810 1042 m 231 579 l 347 579 l 347 347 l 231 347 l 231 579 m 463 579 l 579 579 l 579 347 l 463 347 l 463 579 m 694 579 l 810 579 l 810 347 l 694 347 l 694 579 m 926 579 l 1042 579 l 1042 347 l 926 347 l 926 579 m 116 347 l 231 347 l 231 116 l 116 116 l 116 347 m 579 347 l 694 347 l 694 116 l 579 116 l 579 347 m 1042 347 l 1157 347 l 1157 116 l 1042 116 l 1042 347 m 0 116 l 116 116 l 116 0 l 0 0 l 0 116 m 463 116 l 579 116 l 579 0 l 463 0 l 463 116 m 1157 116 l 1273 116 l 1273 0 l 1157 0 l 1157 116 m 1273 -231 l 0 -231 l 0 -116 l 1273 -116 l 1273 -231 z "},"东":{"ha":1389,"x_min":0,"x_max":1273,"o":"m 1273 926 l 1273 810 l 463 810 l 463 694 l 347 694 l 347 810 l 0 810 l 0 926 l 463 926 l 463 1042 l 579 1042 l 579 926 l 1273 926 m 231 694 l 347 694 l 347 579 l 231 579 l 231 694 m 231 231 l 347 231 l 347 116 l 231 116 l 231 231 m 926 231 l 1042 231 l 1042 116 l 926 116 l 926 231 m 116 116 l 231 116 l 231 0 l 116 0 l 116 116 m 1042 116 l 1157 116 l 1157 0 l 1042 0 l 1042 116 m 0 0 l 116 0 l 116 -116 l 0 -116 l 0 0 m 1157 0 l 1273 0 l 1273 -116 l 1157 -116 l 1157 0 m 116 579 l 231 579 l 231 463 l 579 463 l 579 694 l 694 694 l 694 463 l 1157 463 l 1157 347 l 694 347 l 694 -231 l 347 -231 l 347 -116 l 579 -116 l 579 347 l 116 347 l 116 579 z "},"丝":{"ha":1389,"x_min":0,"x_max":1273,"o":"m 347 1042 l 463 1042 l 463 810 l 347 810 l 347 1042 m 1042 1042 l 1157 1042 l 1157 810 l 1042 810 l 1042 1042 m 231 810 l 347 810 l 347 579 l 231 579 l 231 810 m 926 810 l 1042 810 l 1042 579 l 926 579 l 926 810 m 463 579 l 579 579 l 579 463 l 463 463 l 463 579 m 1157 579 l 1273 579 l 1273 463 l 1157 463 l 1157 579 m 463 463 l 463 347 l 347 347 l 347 231 l 231 231 l 231 347 l 0 347 l 0 463 l 116 463 l 116 579 l 231 579 l 231 463 l 463 463 m 1157 347 l 1042 347 l 1042 231 l 926 231 l 926 347 l 694 347 l 694 463 l 810 463 l 810 579 l 926 579 l 926 463 l 1157 463 l 1157 347 m 579 116 l 579 0 l 0 0 l 0 116 l 116 116 l 116 231 l 231 231 l 231 116 l 579 116 m 694 0 l 694 116 l 810 116 l 810 231 l 926 231 l 926 116 l 1273 116 l 1273 0 l 694 0 m 1273 -231 l 0 -231 l 0 -116 l 1273 -116 l 1273 -231 z "},"丢":{"ha":1389,"x_min":0,"x_max":1273,"o":"m 694 1042 l 1157 1042 l 1157 926 l 694 926 l 694 1042 m 0 347 l 579 347 l 579 579 l 116 579 l 116 694 l 579 694 l 579 810 l 116 810 l 116 926 l 694 926 l 694 694 l 1157 694 l 1157 579 l 694 579 l 694 347 l 1273 347 l 1273 231 l 579 231 l 579 116 l 463 116 l 463 231 l 0 231 l 0 347 m 347 116 l 463 116 l 463 0 l 347 0 l 347 116 m 810 116 l 926 116 l 926 0 l 810 0 l 810 116 m 926 0 l 1042 0 l 1042 -116 l 926 -116 l 926 0 m 926 -116 l 926 -231 l 116 -231 l 116 -116 l 231 -116 l 231 0 l 347 0 l 347 -116 l 926 -116 m 1042 -116 l 1157 -116 l 1157 -231 l 1042 -231 l 1042 -116 z "},"两":{"ha":1389,"x_min":0,"x_max":1273,"o":"m 231 347 l 347 347 l 347 231 l 231 231 l 231 347 m 463 347 l 579 347 l 579 231 l 463 231 l 463 347 m 694 347 l 810 347 l 810 231 l 694 231 l 694 347 m 926 347 l 1042 347 l 1042 231 l 926 231 l 926 347 m 579 231 l 694 231 l 694 116 l 579 116 l 579 231 m 810 694 l 810 926 l 463 926 l 463 694 l 810 694 m 1273 1042 l 1273 926 l 926 926 l 926 694 l 1273 694 l 1273 -231 l 926 -231 l 926 -116 l 1157 -116 l 1157 116 l 1042 116 l 1042 231 l 1157 231 l 1157 579 l 926 579 l 926 347 l 810 347 l 810 579 l 463 579 l 463 347 l 347 347 l 347 579 l 116 579 l 116 231 l 231 231 l 231 116 l 116 116 l 116 -231 l 0 -231 l 0 694 l 347 694 l 347 926 l 0 926 l 0 1042 l 1273 1042 z "},"严":{"ha":1389,"x_min":0,"x_max":1273,"o":"m 116 810 l 231 810 l 231 694 l 116 694 l 116 810 m 1157 810 l 1273 810 l 1273 694 l 1157 694 l 1157 810 m 231 694 l 347 694 l 347 579 l 231 579 l 231 694 m 1042 694 l 1157 694 l 1157 579 l 1042 579 l 1042 694 m 579 463 l 810 463 l 810 926 l 579 926 l 579 463 m 463 926 l 116 926 l 116 1042 l 1273 1042 l 1273 926 l 926 926 l 926 463 l 1273 463 l 1273 347 l 231 347 l 231 -116 l 116 -116 l 116 463 l 463 463 l 463 926 m 0 -116 l 116 -116 l 116 -231 l 0 -231 l 0 -116 z "},"丧":{"ha":1389,"x_min":0,"x_max":1273,"o":"m 231 694 l 347 694 l 347 579 l 231 579 l 231 694 m 926 694 l 1042 694 l 1042 579 l 926 579 l 926 694 m 694 231 l 810 231 l 810 116 l 694 116 l 694 231 m 1157 231 l 1273 231 l 1273 116 l 1157 116 l 1157 231 m 810 116 l 926 116 l 926 0 l 810 0 l 810 116 m 1042 116 l 1157 116 l 1157 0 l 1042 0 l 1042 116 m 463 0 l 694 0 l 694 -116 l 463 -116 l 463 0 m 926 0 l 1042 0 l 1042 -116 l 926 -116 l 926 0 m 579 810 l 116 810 l 116 926 l 579 926 l 579 1042 l 694 1042 l 694 926 l 1157 926 l 1157 810 l 694 810 l 694 463 l 810 463 l 810 579 l 926 579 l 926 463 l 1273 463 l 1273 347 l 694 347 l 694 231 l 579 231 l 579 347 l 347 347 l 347 -116 l 463 -116 l 463 -231 l 231 -231 l 231 347 l 0 347 l 0 463 l 347 463 l 347 579 l 463 579 l 463 463 l 579 463 l 579 810 m 1042 -116 l 1273 -116 l 1273 -231 l 1042 -231 l 1042 -116 z "},"个":{"ha":1389,"x_min":0,"x_max":1273,"o":"m 579 1042 l 694 1042 l 694 926 l 579 926 l 579 1042 m 463 926 l 579 926 l 579 810 l 463 810 l 463 926 m 694 926 l 810 926 l 810 810 l 694 810 l 694 926 m 347 810 l 463 810 l 463 694 l 347 694 l 347 810 m 810 810 l 926 810 l 926 694 l 810 694 l 810 810 m 231 694 l 347 694 l 347 579 l 231 579 l 231 694 m 926 694 l 1042 694 l 1042 579 l 926 579 l 926 694 m 0 579 l 231 579 l 231 463 l 0 463 l 0 579 m 1042 579 l 1273 579 l 1273 463 l 1042 463 l 1042 579 m 579 579 l 694 579 l 694 -231 l 579 -231 l 579 579 z "},"丫":{"ha":1389,"x_min":116,"x_max":1157,"o":"m 116 1042 l 231 1042 l 231 926 l 116 926 l 116 1042 m 1042 1042 l 1157 1042 l 1157 926 l 1042 926 l 1042 1042 m 231 926 l 347 926 l 347 810 l 231 810 l 231 926 m 926 926 l 1042 926 l 1042 810 l 926 810 l 926 926 m 347 810 l 463 810 l 463 694 l 347 694 l 347 810 m 810 810 l 926 810 l 926 694 l 810 694 l 810 810 m 463 694 l 579 694 l 579 579 l 463 579 l 463 694 m 694 694 l 810 694 l 810 579 l 694 579 l 694 694 m 579 579 l 694 579 l 694 -231 l 579 -231 l 579 579 z "},"中":{"ha":1389,"x_min":0,"x_max":1273,"o":"m 694 347 l 1157 347 l 1157 694 l 694 694 l 694 347 m 116 694 l 116 347 l 579 347 l 579 694 l 116 694 m 579 810 l 579 1042 l 694 1042 l 694 810 l 1273 810 l 1273 231 l 694 231 l 694 -231 l 579 -231 l 579 231 l 0 231 l 0 810 l 579 810 z "},"丰":{"ha":1389,"x_min":0,"x_max":1273,"o":"m 579 810 l 579 1042 l 694 1042 l 694 810 l 1273 810 l 1273 694 l 694 694 l 694 463 l 1157 463 l 1157 347 l 694 347 l 694 116 l 1273 116 l 1273 0 l 694 0 l 694 -231 l 579 -231 l 579 0 l 0 0 l 0 116 l 579 116 l 579 347 l 116 347 l 116 463 l 579 463 l 579 694 l 0 694 l 0 810 l 579 810 z "},"串":{"ha":1389,"x_min":0,"x_max":1273,"o":"m 1157 231 l 694 231 l 694 0 l 1157 0 l 1157 231 m 694 579 l 1042 579 l 1042 810 l 694 810 l 694 579 m 579 810 l 231 810 l 231 579 l 579 579 l 579 810 m 116 231 l 116 0 l 579 0 l 579 231 l 116 231 m 579 347 l 579 463 l 116 463 l 116 926 l 579 926 l 579 1042 l 694 1042 l 694 926 l 1157 926 l 1157 463 l 694 463 l 694 347 l 1273 347 l 1273 -116 l 694 -116 l 694 -231 l 579 -231 l 579 -116 l 0 -116 l 0 347 l 579 347 z "},"临":{"ha":1389,"x_min":0,"x_max":1273,"o":"m 579 694 l 694 694 l 694 579 l 579 579 l 579 694 m 810 694 l 694 694 l 694 1042 l 810 1042 l 810 810 l 1273 810 l 1273 694 l 926 694 l 926 579 l 810 579 l 810 694 m 463 579 l 579 579 l 579 463 l 463 463 l 463 579 m 926 579 l 1042 579 l 1042 463 l 926 463 l 926 579 m 0 810 l 116 810 l 116 0 l 0 0 l 0 810 m 231 1042 l 347 1042 l 347 -231 l 231 -231 l 231 1042 m 579 -116 l 810 -116 l 810 231 l 579 231 l 579 -116 m 1157 231 l 926 231 l 926 -116 l 1157 -116 l 1157 231 m 1273 -231 l 463 -231 l 463 347 l 1273 347 l 1273 -231 z "},"丸":{"ha":1389,"x_min":0,"x_max":1273,"o":"m 116 579 l 231 579 l 231 463 l 116 463 l 116 579 m 463 231 l 579 231 l 579 116 l 463 116 l 463 231 m 231 231 l 347 231 l 347 0 l 231 0 l 231 231 m 579 116 l 694 116 l 694 0 l 579 0 l 579 116 m 116 0 l 231 0 l 231 -116 l 116 -116 l 116 0 m 0 -116 l 116 -116 l 116 -231 l 0 -231 l 0 -116 m 1273 -231 l 810 -231 l 810 694 l 463 694 l 463 231 l 347 231 l 347 347 l 231 347 l 231 463 l 347 463 l 347 694 l 0 694 l 0 810 l 347 810 l 347 1042 l 463 1042 l 463 810 l 926 810 l 926 -116 l 1157 -116 l 1157 116 l 1273 116 l 1273 -231 z "},"丹":{"ha":1389,"x_min":0,"x_max":1273,"o":"m 579 810 l 694 810 l 694 694 l 579 694 l 579 810 m 694 694 l 810 694 l 810 579 l 694 579 l 694 694 m 116 116 l 231 116 l 231 -116 l 116 -116 l 116 116 m 0 -116 l 116 -116 l 116 -231 l 0 -231 l 0 -116 m 347 926 l 347 463 l 1042 463 l 1042 926 l 347 926 m 1157 1042 l 1157 463 l 1273 463 l 1273 347 l 1157 347 l 1157 -231 l 810 -231 l 810 -116 l 1042 -116 l 1042 347 l 347 347 l 347 116 l 231 116 l 231 347 l 0 347 l 0 463 l 231 463 l 231 1042 l 1157 1042 z "},"为":{"ha":1389,"x_min":0,"x_max":1273,"o":"m 116 1042 l 231 1042 l 231 926 l 116 926 l 116 1042 m 231 926 l 347 926 l 347 810 l 231 810 l 231 926 m 810 463 l 926 463 l 926 347 l 810 347 l 810 463 m 463 347 l 579 347 l 579 116 l 463 116 l 463 347 m 926 347 l 1042 347 l 1042 116 l 926 116 l 926 347 m 347 116 l 463 116 l 463 0 l 347 0 l 347 116 m 231 0 l 347 0 l 347 -116 l 231 -116 l 231 0 m 1157 579 l 694 579 l 694 347 l 579 347 l 579 579 l 0 579 l 0 694 l 579 694 l 579 1042 l 694 1042 l 694 694 l 1273 694 l 1273 -116 l 1157 -116 l 1157 579 m 231 -231 l 0 -231 l 0 -116 l 231 -116 l 231 -231 m 1157 -231 l 926 -231 l 926 -116 l 1157 -116 l 1157 -231 z "},"主":{"ha":1389,"x_min":0,"x_max":1273,"o":"m 463 1042 l 579 1042 l 579 926 l 463 926 l 463 1042 m 579 810 l 579 926 l 694 926 l 694 810 l 1273 810 l 1273 694 l 694 694 l 694 347 l 1157 347 l 1157 231 l 694 231 l 694 -116 l 1273 -116 l 1273 -231 l 0 -231 l 0 -116 l 579 -116 l 579 231 l 116 231 l 116 347 l 579 347 l 579 694 l 0 694 l 0 810 l 579 810 z "},"丽":{"ha":1389,"x_min":0,"x_max":1273,"o":"m 0 1042 l 1273 1042 l 1273 926 l 0 926 l 0 1042 m 231 347 l 347 347 l 347 231 l 231 231 l 231 347 m 926 347 l 1042 347 l 1042 231 l 926 231 l 926 347 m 0 810 l 579 810 l 579 -231 l 347 -231 l 347 -116 l 463 -116 l 463 694 l 116 694 l 116 463 l 231 463 l 231 347 l 116 347 l 116 -231 l 0 -231 l 0 810 m 1157 694 l 810 694 l 810 463 l 926 463 l 926 347 l 810 347 l 810 -231 l 694 -231 l 694 810 l 1273 810 l 1273 -231 l 1042 -231 l 1042 -116 l 1157 -116 l 1157 694 z "},"举":{"ha":1389,"x_min":0,"x_max":1273,"o":"m 116 1042 l 231 1042 l 231 926 l 116 926 l 116 1042 m 463 1042 l 579 1042 l 579 926 l 463 926 l 463 1042 m 1042 1042 l 1157 1042 l 1157 926 l 1042 926 l 1042 1042 m 347 694 l 0 694 l 0 810 l 231 810 l 231 926 l 347 926 l 347 810 l 579 810 l 579 926 l 694 926 l 694 810 l 926 810 l 926 926 l 1042 926 l 1042 810 l 1273 810 l 1273 694 l 926 694 l 926 579 l 810 579 l 810 694 l 463 694 l 463 579 l 347 579 l 347 694 m 231 579 l 347 579 l 347 463 l 231 463 l 231 579 m 926 579 l 1042 579 l 1042 463 l 926 463 l 926 579 m 231 347 l 0 347 l 0 463 l 231 463 l 231 347 m 1042 463 l 1273 463 l 1273 347 l 1042 347 l 1042 463 m 231 347 l 579 347 l 579 579 l 694 579 l 694 347 l 1042 347 l 1042 231 l 694 231 l 694 116 l 1157 116 l 1157 0 l 694 0 l 694 -231 l 579 -231 l 579 0 l 116 0 l 116 116 l 579 116 l 579 231 l 231 231 l 231 347 z "},"乃":{"ha":1389,"x_min":0,"x_max":1273,"o":"m 347 926 l 116 926 l 116 1042 l 1042 1042 l 1042 694 l 926 694 l 926 926 l 463 926 l 463 231 l 347 231 l 347 926 m 231 231 l 347 231 l 347 0 l 231 0 l 231 231 m 116 0 l 231 0 l 231 -116 l 116 -116 l 116 0 m 810 694 l 926 694 l 926 579 l 1273 579 l 1273 -116 l 1157 -116 l 1157 463 l 810 463 l 810 694 m 0 -116 l 116 -116 l 116 -231 l 0 -231 l 0 -116 m 1157 -231 l 810 -231 l 810 -116 l 1157 -116 l 1157 -231 z "},"久":{"ha":1389,"x_min":0,"x_max":1273,"o":"m 231 694 l 347 694 l 347 579 l 231 579 l 231 694 m 116 579 l 231 579 l 231 463 l 116 463 l 116 579 m 810 694 l 347 694 l 347 1042 l 463 1042 l 463 810 l 926 810 l 926 463 l 810 463 l 810 694 m 0 463 l 116 463 l 116 347 l 0 347 l 0 463 m 694 463 l 810 463 l 810 347 l 694 347 l 694 463 m 579 347 l 694 347 l 694 231 l 579 231 l 579 347 m 463 231 l 579 231 l 579 116 l 463 116 l 463 231 m 694 231 l 810 231 l 810 116 l 694 116 l 694 231 m 347 116 l 463 116 l 463 0 l 347 0 l 347 116 m 810 116 l 926 116 l 926 0 l 810 0 l 810 116 m 231 0 l 347 0 l 347 -116 l 231 -116 l 231 0 m 926 0 l 1042 0 l 1042 -116 l 926 -116 l 926 0 m 231 -231 l 0 -231 l 0 -116 l 231 -116 l 231 -231 m 1042 -116 l 1273 -116 l 1273 -231 l 1042 -231 l 1042 -116 z "},"么":{"ha":1389,"x_min":0,"x_max":1273,"o":"m 463 1042 l 579 1042 l 579 810 l 463 810 l 463 1042 m 347 810 l 463 810 l 463 579 l 347 579 l 347 810 m 810 810 l 926 810 l 926 579 l 810 579 l 810 810 m 231 579 l 347 579 l 347 463 l 231 463 l 231 579 m 116 463 l 231 463 l 231 347 l 116 347 l 116 463 m 694 579 l 810 579 l 810 347 l 694 347 l 694 579 m 0 347 l 116 347 l 116 231 l 0 231 l 0 347 m 579 347 l 694 347 l 694 231 l 579 231 l 579 347 m 463 231 l 579 231 l 579 116 l 463 116 l 463 231 m 347 116 l 463 116 l 463 0 l 347 0 l 347 116 m 1042 231 l 1157 231 l 1157 0 l 1042 0 l 1042 231 m 810 0 l 1042 0 l 1042 -116 l 810 -116 l 810 0 m 810 -116 l 810 -231 l 116 -231 l 116 -116 l 231 -116 l 231 0 l 347 0 l 347 -116 l 810 -116 m 1157 0 l 1273 0 l 1273 -231 l 1157 -231 l 1157 0 z "},"义":{"ha":1389,"x_min":0,"x_max":1273,"o":"m 463 1042 l 579 1042 l 579 926 l 463 926 l 463 1042 m 116 926 l 231 926 l 231 694 l 116 694 l 116 926 m 579 926 l 694 926 l 694 694 l 579 694 l 579 926 m 1042 926 l 1157 926 l 1157 694 l 1042 694 l 1042 926 m 231 694 l 347 694 l 347 463 l 231 463 l 231 694 m 926 694 l 1042 694 l 1042 463 l 926 463 l 926 694 m 347 463 l 463 463 l 463 347 l 347 347 l 347 463 m 810 463 l 926 463 l 926 347 l 810 347 l 810 463 m 463 347 l 579 347 l 579 231 l 463 231 l 463 347 m 694 347 l 810 347 l 810 231 l 694 231 l 694 347 m 579 231 l 694 231 l 694 116 l 579 116 l 579 231 m 463 116 l 579 116 l 579 0 l 463 0 l 463 116 m 694 116 l 810 116 l 810 0 l 694 0 l 694 116 m 231 0 l 463 0 l 463 -116 l 231 -116 l 231 0 m 810 0 l 1042 0 l 1042 -116 l 810 -116 l 810 0 m 231 -231 l 0 -231 l 0 -116 l 231 -116 l 231 -231 m 1042 -116 l 1273 -116 l 1273 -231 l 1042 -231 l 1042 -116 z "},"之":{"ha":1389,"x_min":0,"x_max":1273,"o":"m 463 1042 l 579 1042 l 579 926 l 463 926 l 463 1042 m 926 694 l 0 694 l 0 810 l 579 810 l 579 926 l 694 926 l 694 810 l 1157 810 l 1157 694 l 1042 694 l 1042 579 l 926 579 l 926 694 m 810 579 l 926 579 l 926 463 l 810 463 l 810 579 m 694 463 l 810 463 l 810 347 l 694 347 l 694 463 m 579 347 l 694 347 l 694 231 l 579 231 l 579 347 m 463 231 l 579 231 l 579 116 l 463 116 l 463 231 m 231 116 l 463 116 l 463 0 l 231 0 l 231 116 m 116 0 l 231 0 l 231 -116 l 116 -116 l 116 0 m 463 0 l 694 0 l 694 -116 l 463 -116 l 463 0 m 0 -116 l 116 -116 l 116 -231 l 0 -231 l 0 -116 m 1273 -231 l 694 -231 l 694 -116 l 1273 -116 l 1273 -231 z "},"乌":{"ha":1389,"x_min":0,"x_max":1273,"o":"m 926 116 l 926 0 l 0 0 l 0 116 l 926 116 m 231 926 l 463 926 l 463 1042 l 579 1042 l 579 926 l 1042 926 l 1042 463 l 810 463 l 810 579 l 926 579 l 926 810 l 347 810 l 347 347 l 1273 347 l 1273 -116 l 1157 -116 l 1157 231 l 231 231 l 231 926 m 1157 -231 l 810 -231 l 810 -116 l 1157 -116 l 1157 -231 z "},"乍":{"ha":1389,"x_min":0,"x_max":1273,"o":"m 116 694 l 231 694 l 231 579 l 116 579 l 116 694 m 0 579 l 116 579 l 116 463 l 0 463 l 0 579 m 231 1042 l 347 1042 l 347 810 l 1273 810 l 1273 694 l 579 694 l 579 463 l 1157 463 l 1157 347 l 579 347 l 579 116 l 1157 116 l 1157 0 l 579 0 l 579 -231 l 463 -231 l 463 694 l 231 694 l 231 1042 z "},"乎":{"ha":1389,"x_min":0,"x_max":1273,"o":"m 694 1042 l 1157 1042 l 1157 926 l 694 926 l 694 1042 m 116 694 l 231 694 l 231 579 l 116 579 l 116 694 m 1042 694 l 1157 694 l 1157 579 l 1042 579 l 1042 694 m 231 579 l 347 579 l 347 463 l 231 463 l 231 579 m 926 579 l 1042 579 l 1042 463 l 926 463 l 926 579 m 0 347 l 579 347 l 579 810 l 116 810 l 116 926 l 694 926 l 694 347 l 1273 347 l 1273 231 l 694 231 l 694 -231 l 347 -231 l 347 -116 l 579 -116 l 579 231 l 0 231 l 0 347 z "},"乏":{"ha":1389,"x_min":0,"x_max":1273,"o":"m 1157 926 l 810 926 l 810 1042 l 1157 1042 l 1157 926 m 810 810 l 579 810 l 579 694 l 463 694 l 463 810 l 0 810 l 0 926 l 810 926 l 810 810 m 0 463 l 0 579 l 579 579 l 579 694 l 694 694 l 694 579 l 1157 579 l 1157 463 l 1042 463 l 1042 347 l 926 347 l 926 463 l 0 463 m 810 347 l 926 347 l 926 231 l 810 231 l 810 347 m 810 116 l 579 116 l 579 231 l 810 231 l 810 116 m 579 0 l 347 0 l 347 116 l 579 116 l 579 0 m 347 -116 l 116 -116 l 116 0 l 347 0 l 347 -116 m 0 -116 l 116 -116 l 116 -231 l 0 -231 l 0 -116 m 1273 -231 l 347 -231 l 347 -116 l 1273 -116 l 1273 -231 z "},"乐":{"ha":1389,"x_min":0,"x_max":1273,"o":"m 1157 926 l 810 926 l 810 1042 l 1157 1042 l 1157 926 m 810 810 l 231 810 l 231 579 l 116 579 l 116 926 l 810 926 l 810 810 m 231 231 l 347 231 l 347 116 l 231 116 l 231 231 m 926 231 l 1042 231 l 1042 116 l 926 116 l 926 231 m 116 116 l 231 116 l 231 0 l 116 0 l 116 116 m 1042 116 l 1157 116 l 1157 0 l 1042 0 l 1042 116 m 0 0 l 116 0 l 116 -116 l 0 -116 l 0 0 m 1157 0 l 1273 0 l 1273 -116 l 1157 -116 l 1157 0 m 579 694 l 694 694 l 694 463 l 1273 463 l 1273 347 l 694 347 l 694 -231 l 347 -231 l 347 -116 l 579 -116 l 579 347 l 0 347 l 0 579 l 116 579 l 116 463 l 579 463 l 579 694 z "},"乒":{"ha":1389,"x_min":0,"x_max":1273,"o":"m 810 1042 l 1042 1042 l 1042 926 l 810 926 l 810 1042 m 347 579 l 347 231 l 810 231 l 810 579 l 347 579 m 1273 231 l 1273 116 l 0 116 l 0 231 l 231 231 l 231 926 l 810 926 l 810 810 l 347 810 l 347 694 l 1157 694 l 1157 579 l 926 579 l 926 231 l 1273 231 m 231 0 l 347 0 l 347 -116 l 231 -116 l 231 0 m 231 -231 l 0 -231 l 0 -116 l 231 -116 l 231 -231 z "},"乓":{"ha":1389,"x_min":0,"x_max":1273,"o":"m 810 1042 l 1042 1042 l 1042 926 l 810 926 l 810 1042 m 347 579 l 347 231 l 810 231 l 810 579 l 347 579 m 1273 231 l 1273 116 l 0 116 l 0 231 l 231 231 l 231 926 l 810 926 l 810 810 l 347 810 l 347 694 l 1157 694 l 1157 579 l 926 579 l 926 231 l 1273 231 m 926 0 l 1042 0 l 1042 -116 l 926 -116 l 926 0 m 1042 -116 l 1273 -116 l 1273 -231 l 1042 -231 l 1042 -116 z "},"乔":{"ha":1389,"x_min":0,"x_max":1273,"o":"m 694 1042 l 1157 1042 l 1157 926 l 694 926 l 694 1042 m 463 694 l 463 810 l 116 810 l 116 926 l 694 926 l 694 810 l 579 810 l 579 694 l 1273 694 l 1273 579 l 926 579 l 926 463 l 810 463 l 810 579 l 463 579 l 463 463 l 347 463 l 347 579 l 0 579 l 0 694 l 463 694 m 231 463 l 347 463 l 347 347 l 231 347 l 231 463 m 926 463 l 1042 463 l 1042 347 l 926 347 l 926 463 m 0 347 l 231 347 l 231 231 l 0 231 l 0 347 m 1042 347 l 1273 347 l 1273 231 l 1042 231 l 1042 347 m 347 347 l 463 347 l 463 0 l 347 0 l 347 347 m 231 0 l 347 0 l 347 -116 l 231 -116 l 231 0 m 116 -116 l 231 -116 l 231 -231 l 116 -231 l 116 -116 m 810 347 l 926 347 l 926 -231 l 810 -231 l 810 347 z "},"乖":{"ha":1389,"x_min":0,"x_max":1273,"o":"m 694 1042 l 1157 1042 l 1157 926 l 694 926 l 694 1042 m 1157 463 l 1273 463 l 1273 347 l 1157 347 l 1157 463 m 1042 347 l 1157 347 l 1157 231 l 1042 231 l 1042 347 m 810 463 l 926 463 l 926 231 l 1042 231 l 1042 116 l 926 116 l 926 0 l 810 0 l 810 463 m 0 0 l 231 0 l 231 -116 l 0 -116 l 0 0 m 0 347 l 347 347 l 347 463 l 463 463 l 463 -116 l 347 -116 l 347 0 l 231 0 l 231 116 l 347 116 l 347 231 l 0 231 l 0 347 m 1157 0 l 1157 116 l 1273 116 l 1273 -116 l 926 -116 l 926 0 l 1157 0 m 579 694 l 579 810 l 116 810 l 116 926 l 694 926 l 694 694 l 1273 694 l 1273 579 l 694 579 l 694 -231 l 579 -231 l 579 579 l 0 579 l 0 694 l 579 694 z "},"乘":{"ha":1389,"x_min":0,"x_max":1273,"o":"m 694 1042 l 1157 1042 l 1157 926 l 694 926 l 694 1042 m 1157 347 l 1273 347 l 1273 116 l 926 116 l 926 231 l 1157 231 l 1157 347 m 231 0 l 463 0 l 463 -116 l 231 -116 l 231 0 m 810 0 l 1042 0 l 1042 -116 l 810 -116 l 810 0 m 231 -231 l 0 -231 l 0 -116 l 231 -116 l 231 -231 m 579 694 l 579 810 l 116 810 l 116 926 l 694 926 l 694 694 l 1273 694 l 1273 579 l 1157 579 l 1157 463 l 1042 463 l 1042 579 l 926 579 l 926 463 l 1042 463 l 1042 347 l 926 347 l 926 231 l 810 231 l 810 579 l 694 579 l 694 116 l 810 116 l 810 0 l 694 0 l 694 -231 l 579 -231 l 579 0 l 463 0 l 463 116 l 579 116 l 579 579 l 463 579 l 463 116 l 0 116 l 0 231 l 347 231 l 347 347 l 0 347 l 0 463 l 347 463 l 347 579 l 0 579 l 0 694 l 579 694 m 1042 -116 l 1273 -116 l 1273 -231 l 1042 -231 l 1042 -116 z "},"九":{"ha":1389,"x_min":0,"x_max":1273,"o":"m 231 231 l 347 231 l 347 0 l 231 0 l 231 231 m 116 0 l 231 0 l 231 -116 l 116 -116 l 116 0 m 0 -116 l 116 -116 l 116 -231 l 0 -231 l 0 -116 m 347 694 l 347 1042 l 463 1042 l 463 694 l 926 694 l 926 -116 l 1157 -116 l 1157 116 l 1273 116 l 1273 -231 l 810 -231 l 810 579 l 463 579 l 463 231 l 347 231 l 347 579 l 0 579 l 0 694 l 347 694 z "},"乞":{"ha":1389,"x_min":0,"x_max":1273,"o":"m 1273 926 l 1273 810 l 231 810 l 231 1042 l 347 1042 l 347 926 l 1273 926 m 116 810 l 231 810 l 231 694 l 116 694 l 116 810 m 0 694 l 116 694 l 116 579 l 0 579 l 0 694 m 1042 579 l 1042 463 l 926 463 l 926 347 l 810 347 l 810 463 l 116 463 l 116 579 l 1042 579 m 810 231 l 579 231 l 579 347 l 810 347 l 810 231 m 347 231 l 579 231 l 579 116 l 347 116 l 347 231 m 231 116 l 347 116 l 347 0 l 231 0 l 231 116 m 116 0 l 231 0 l 231 -116 l 116 -116 l 116 0 m 1273 -231 l 231 -231 l 231 -116 l 1157 -116 l 1157 0 l 1273 0 l 1273 -231 z "},"也":{"ha":1389,"x_min":0,"x_max":1273,"o":"m 1042 694 l 926 694 l 926 810 l 1157 810 l 1157 231 l 926 231 l 926 347 l 1042 347 l 1042 694 m 231 926 l 347 926 l 347 579 l 579 579 l 579 1042 l 694 1042 l 694 694 l 926 694 l 926 579 l 694 579 l 694 116 l 579 116 l 579 463 l 347 463 l 347 -116 l 231 -116 l 231 347 l 0 347 l 0 463 l 231 463 l 231 926 m 1273 -231 l 347 -231 l 347 -116 l 1157 -116 l 1157 116 l 1273 116 l 1273 -231 z "},"习":{"ha":1389,"x_min":116,"x_max":1273,"o":"m 347 810 l 463 810 l 463 694 l 347 694 l 347 810 m 463 694 l 579 694 l 579 579 l 463 579 l 463 694 m 579 579 l 694 579 l 694 463 l 579 463 l 579 579 m 1042 231 l 810 231 l 810 347 l 1042 347 l 1042 231 m 810 116 l 579 116 l 579 231 l 810 231 l 810 116 m 579 0 l 347 0 l 347 116 l 579 116 l 579 0 m 347 -116 l 116 -116 l 116 0 l 347 0 l 347 -116 m 1157 926 l 116 926 l 116 1042 l 1273 1042 l 1273 -116 l 1157 -116 l 1157 926 m 1157 -231 l 926 -231 l 926 -116 l 1157 -116 l 1157 -231 z "},"乡":{"ha":1389,"x_min":0,"x_max":1273,"o":"m 579 1042 l 694 1042 l 694 926 l 579 926 l 579 1042 m 463 926 l 579 926 l 579 810 l 463 810 l 463 926 m 810 810 l 926 810 l 926 694 l 810 694 l 810 810 m 810 694 l 810 579 l 694 579 l 694 463 l 579 463 l 579 579 l 231 579 l 231 694 l 347 694 l 347 810 l 463 810 l 463 694 l 810 694 m 1157 463 l 1273 463 l 1273 347 l 1157 347 l 1157 463 m 926 231 l 231 231 l 231 347 l 463 347 l 463 463 l 579 463 l 579 347 l 1157 347 l 1157 231 l 1042 231 l 1042 116 l 926 116 l 926 231 m 810 116 l 926 116 l 926 0 l 810 0 l 810 116 m 579 0 l 810 0 l 810 -116 l 579 -116 l 579 0 m 579 -116 l 579 -231 l 0 -231 l 0 -116 l 579 -116 z "},"书":{"ha":1389,"x_min":0,"x_max":1273,"o":"m 926 1042 l 1042 1042 l 1042 926 l 926 926 l 926 1042 m 1042 926 l 1157 926 l 1157 810 l 1042 810 l 1042 926 m 1157 -116 l 926 -116 l 926 0 l 1157 0 l 1157 -116 m 579 463 l 926 463 l 926 694 l 579 694 l 579 463 m 463 347 l 0 347 l 0 463 l 463 463 l 463 694 l 116 694 l 116 810 l 463 810 l 463 1042 l 579 1042 l 579 810 l 1042 810 l 1042 463 l 1273 463 l 1273 0 l 1157 0 l 1157 347 l 579 347 l 579 -231 l 463 -231 l 463 347 z "},"买":{"ha":1389,"x_min":0,"x_max":1273,"o":"m 0 1042 l 1273 1042 l 1273 810 l 1157 810 l 1157 926 l 0 926 l 0 1042 m 231 810 l 347 810 l 347 694 l 231 694 l 231 810 m 1042 810 l 1157 810 l 1157 694 l 1042 694 l 1042 810 m 347 694 l 463 694 l 463 579 l 347 579 l 347 694 m 116 579 l 231 579 l 231 463 l 116 463 l 116 579 m 0 347 l 231 347 l 231 463 l 347 463 l 347 347 l 694 347 l 694 810 l 810 810 l 810 347 l 1273 347 l 1273 231 l 694 231 l 694 116 l 579 116 l 579 231 l 0 231 l 0 347 m 463 116 l 579 116 l 579 0 l 463 0 l 463 116 m 810 116 l 926 116 l 926 0 l 810 0 l 810 116 m 231 0 l 463 0 l 463 -116 l 231 -116 l 231 0 m 926 0 l 1042 0 l 1042 -116 l 926 -116 l 926 0 m 231 -231 l 0 -231 l 0 -116 l 231 -116 l 231 -231 m 1042 -116 l 1273 -116 l 1273 -231 l 1042 -231 l 1042 -116 z "},"乱":{"ha":1389,"x_min":0,"x_max":1273,"o":"m 463 1042 l 694 1042 l 694 926 l 463 926 l 463 1042 m 810 1042 l 926 1042 l 926 -116 l 810 -116 l 810 1042 m 579 116 l 231 116 l 231 -116 l 579 -116 l 579 116 m 116 926 l 463 926 l 463 579 l 694 579 l 694 463 l 463 463 l 463 231 l 694 231 l 694 -231 l 116 -231 l 116 231 l 347 231 l 347 463 l 0 463 l 0 579 l 347 579 l 347 810 l 116 810 l 116 926 m 1157 116 l 1273 116 l 1273 -231 l 926 -231 l 926 -116 l 1157 -116 l 1157 116 z "},"乳":{"ha":1389,"x_min":0,"x_max":1273,"o":"m 463 1042 l 694 1042 l 694 926 l 463 926 l 463 1042 m 231 810 l 116 810 l 116 694 l 0 694 l 0 926 l 463 926 l 463 810 l 347 810 l 347 694 l 231 694 l 231 810 m 694 463 l 579 463 l 579 347 l 463 347 l 463 463 l 0 463 l 0 579 l 116 579 l 116 694 l 231 694 l 231 579 l 347 579 l 347 694 l 463 694 l 463 579 l 579 579 l 579 694 l 694 694 l 694 463 m 810 694 l 694 694 l 694 810 l 810 810 l 810 1042 l 926 1042 l 926 -116 l 810 -116 l 810 694 m 347 347 l 463 347 l 463 231 l 694 231 l 694 116 l 463 116 l 463 -231 l 116 -231 l 116 -116 l 347 -116 l 347 0 l 0 0 l 0 116 l 347 116 l 347 347 m 1157 116 l 1273 116 l 1273 -231 l 926 -231 l 926 -116 l 1157 -116 l 1157 116 z "},"乾":{"ha":1389,"x_min":0,"x_max":1273,"o":"m 694 1042 l 810 1042 l 810 926 l 1273 926 l 1273 810 l 810 810 l 810 694 l 694 694 l 694 1042 m 1157 347 l 1042 347 l 1042 463 l 694 463 l 694 579 l 1157 579 l 1157 347 m 926 347 l 1042 347 l 1042 231 l 926 231 l 926 347 m 810 231 l 926 231 l 926 116 l 810 116 l 810 231 m 694 116 l 810 116 l 810 -116 l 694 -116 l 694 116 m 116 347 l 116 231 l 463 231 l 463 347 l 116 347 m 116 579 l 116 463 l 463 463 l 463 579 l 116 579 m 694 694 l 694 579 l 579 579 l 579 116 l 347 116 l 347 0 l 579 0 l 579 -116 l 347 -116 l 347 -231 l 231 -231 l 231 -116 l 0 -116 l 0 0 l 231 0 l 231 116 l 0 116 l 0 694 l 231 694 l 231 810 l 0 810 l 0 926 l 231 926 l 231 1042 l 347 1042 l 347 926 l 579 926 l 579 810 l 347 810 l 347 694 l 694 694 m 1157 0 l 1273 0 l 1273 -231 l 810 -231 l 810 -116 l 1157 -116 l 1157 0 z "},"了":{"ha":1389,"x_min":116,"x_max":1157,"o":"m 1157 1042 l 1157 810 l 1042 810 l 1042 926 l 116 926 l 116 1042 l 1157 1042 m 926 810 l 1042 810 l 1042 694 l 926 694 l 926 810 m 810 694 l 926 694 l 926 579 l 810 579 l 810 694 m 694 -116 l 694 579 l 810 579 l 810 -231 l 463 -231 l 463 -116 l 694 -116 z "},"予":{"ha":1389,"x_min":0,"x_max":1273,"o":"m 1157 1042 l 1157 926 l 1042 926 l 1042 810 l 926 810 l 926 926 l 116 926 l 116 1042 l 1157 1042 m 347 810 l 579 810 l 579 694 l 347 694 l 347 810 m 810 810 l 926 810 l 926 694 l 810 694 l 810 810 m 1042 347 l 1157 347 l 1157 231 l 1042 231 l 1042 347 m 926 231 l 1042 231 l 1042 116 l 926 116 l 926 231 m 1273 347 l 1157 347 l 1157 463 l 694 463 l 694 -231 l 347 -231 l 347 -116 l 579 -116 l 579 463 l 0 463 l 0 579 l 579 579 l 579 694 l 810 694 l 810 579 l 1273 579 l 1273 347 z "},"争":{"ha":1389,"x_min":0,"x_max":1273,"o":"m 1042 579 l 694 579 l 694 463 l 1042 463 l 1042 579 m 694 231 l 1042 231 l 1042 347 l 694 347 l 694 231 m 810 694 l 810 810 l 231 810 l 231 1042 l 347 1042 l 347 926 l 926 926 l 926 694 l 1157 694 l 1157 463 l 1273 463 l 1273 347 l 1157 347 l 1157 116 l 694 116 l 694 -231 l 347 -231 l 347 -116 l 579 -116 l 579 116 l 116 116 l 116 231 l 579 231 l 579 347 l 0 347 l 0 463 l 579 463 l 579 579 l 116 579 l 116 810 l 231 810 l 231 694 l 810 694 z "},"事":{"ha":1389,"x_min":0,"x_max":1273,"o":"m 1042 347 l 1042 463 l 694 463 l 694 347 l 1042 347 m 1042 116 l 1042 231 l 694 231 l 694 116 l 1042 116 m 694 579 l 926 579 l 926 810 l 694 810 l 694 579 m 579 810 l 347 810 l 347 579 l 579 579 l 579 810 m 579 116 l 579 231 l 0 231 l 0 347 l 579 347 l 579 463 l 116 463 l 116 579 l 231 579 l 231 810 l 0 810 l 0 926 l 579 926 l 579 1042 l 694 1042 l 694 926 l 1273 926 l 1273 810 l 1042 810 l 1042 579 l 1157 579 l 1157 347 l 1273 347 l 1273 231 l 1157 231 l 1157 0 l 694 0 l 694 -231 l 347 -231 l 347 -116 l 579 -116 l 579 0 l 116 0 l 116 116 l 579 116 z "},"于":{"ha":1389,"x_min":0,"x_max":1273,"o":"m 1157 1042 l 1157 926 l 694 926 l 694 463 l 1273 463 l 1273 347 l 694 347 l 694 -231 l 347 -231 l 347 -116 l 579 -116 l 579 347 l 0 347 l 0 463 l 579 463 l 579 926 l 116 926 l 116 1042 l 1157 1042 z "},"亏":{"ha":1389,"x_min":0,"x_max":1273,"o":"m 1157 1042 l 1157 926 l 116 926 l 116 1042 l 1157 1042 m 1273 694 l 1273 579 l 463 579 l 463 463 l 347 463 l 347 579 l 0 579 l 0 694 l 1273 694 m 1042 231 l 231 231 l 231 463 l 347 463 l 347 347 l 1157 347 l 1157 -116 l 1042 -116 l 1042 231 m 1042 -116 l 1042 -231 l 694 -231 l 694 -116 l 1042 -116 z "},"云":{"ha":1389,"x_min":0,"x_max":1273,"o":"m 1157 1042 l 1157 926 l 116 926 l 116 1042 l 1157 1042 m 1273 463 l 579 463 l 579 231 l 463 231 l 463 463 l 0 463 l 0 579 l 1273 579 l 1273 463 m 347 231 l 463 231 l 463 0 l 347 0 l 347 231 m 926 231 l 1042 231 l 1042 0 l 926 0 l 926 231 m 926 -116 l 694 -116 l 694 0 l 926 0 l 926 -116 m 694 -231 l 116 -231 l 116 -116 l 231 -116 l 231 0 l 347 0 l 347 -116 l 694 -116 l 694 -231 m 1042 0 l 1157 0 l 1157 -231 l 1042 -231 l 1042 0 z "},"互":{"ha":1389,"x_min":0,"x_max":1273,"o":"m 0 1042 l 1273 1042 l 1273 926 l 463 926 l 463 694 l 1157 694 l 1157 463 l 1042 463 l 1042 579 l 347 579 l 347 926 l 0 926 l 0 1042 m 231 579 l 347 579 l 347 347 l 231 347 l 231 579 m 926 463 l 1042 463 l 1042 231 l 926 231 l 926 463 m 1273 -231 l 0 -231 l 0 -116 l 810 -116 l 810 116 l 116 116 l 116 347 l 231 347 l 231 231 l 926 231 l 926 -116 l 1273 -116 l 1273 -231 z "},"五":{"ha":1389,"x_min":0,"x_max":1273,"o":"m 463 926 l 116 926 l 116 1042 l 1157 1042 l 1157 926 l 579 926 l 579 579 l 1042 579 l 1042 -116 l 1273 -116 l 1273 -231 l 0 -231 l 0 -116 l 231 -116 l 231 116 l 347 116 l 347 -116 l 926 -116 l 926 463 l 463 463 l 463 116 l 347 116 l 347 463 l 116 463 l 116 579 l 463 579 l 463 926 z "},"井":{"ha":1389,"x_min":0,"x_max":1273,"o":"m 231 0 l 347 0 l 347 -116 l 231 -116 l 231 0 m 231 -231 l 0 -231 l 0 -116 l 231 -116 l 231 -231 m 463 347 l 810 347 l 810 694 l 463 694 l 463 347 m 347 694 l 0 694 l 0 810 l 347 810 l 347 1042 l 463 1042 l 463 810 l 810 810 l 810 1042 l 926 1042 l 926 810 l 1273 810 l 1273 694 l 926 694 l 926 347 l 1273 347 l 1273 231 l 926 231 l 926 -231 l 810 -231 l 810 231 l 463 231 l 463 0 l 347 0 l 347 231 l 0 231 l 0 347 l 347 347 l 347 694 z "},"亚":{"ha":1389,"x_min":0,"x_max":1273,"o":"m 0 579 l 116 579 l 116 347 l 0 347 l 0 579 m 1157 579 l 1273 579 l 1273 347 l 1157 347 l 1157 579 m 116 347 l 231 347 l 231 116 l 116 116 l 116 347 m 1042 347 l 1157 347 l 1157 116 l 1042 116 l 1042 347 m 463 -116 l 810 -116 l 810 926 l 463 926 l 463 -116 m 347 926 l 0 926 l 0 1042 l 1273 1042 l 1273 926 l 926 926 l 926 -116 l 1273 -116 l 1273 -231 l 0 -231 l 0 -116 l 347 -116 l 347 926 z "},"些":{"ha":1389,"x_min":0,"x_max":1273,"o":"m 1157 926 l 1273 926 l 1273 810 l 1157 810 l 1157 926 m 1042 810 l 1157 810 l 1157 694 l 1042 694 l 1042 810 m 347 1042 l 463 1042 l 463 810 l 694 810 l 694 694 l 463 694 l 463 463 l 694 463 l 694 347 l 347 347 l 347 1042 m 810 1042 l 926 1042 l 926 694 l 1042 694 l 1042 579 l 926 579 l 926 347 l 810 347 l 810 1042 m 0 347 l 116 347 l 116 926 l 231 926 l 231 347 l 347 347 l 347 231 l 0 231 l 0 347 m 1157 579 l 1273 579 l 1273 231 l 926 231 l 926 347 l 1157 347 l 1157 579 m 1042 116 l 1042 0 l 231 0 l 231 116 l 1042 116 m 1273 -231 l 0 -231 l 0 -116 l 1273 -116 l 1273 -231 z "},"亡":{"ha":1389,"x_min":0,"x_max":1273,"o":"m 463 1042 l 579 1042 l 579 926 l 463 926 l 463 1042 m 231 694 l 0 694 l 0 810 l 579 810 l 579 926 l 694 926 l 694 810 l 1273 810 l 1273 694 l 347 694 l 347 -116 l 1157 -116 l 1157 -231 l 231 -231 l 231 694 z "},"亢":{"ha":1389,"x_min":0,"x_max":1273,"o":"m 463 1042 l 579 1042 l 579 926 l 463 926 l 463 1042 m 1273 810 l 1273 694 l 0 694 l 0 810 l 579 810 l 579 926 l 694 926 l 694 810 l 1273 810 m 231 0 l 347 0 l 347 -116 l 231 -116 l 231 0 m 231 -231 l 0 -231 l 0 -116 l 231 -116 l 231 -231 m 1273 -231 l 810 -231 l 810 463 l 463 463 l 463 0 l 347 0 l 347 579 l 926 579 l 926 -116 l 1157 -116 l 1157 116 l 1273 116 l 1273 -231 z "},"交":{"ha":1389,"x_min":0,"x_max":1273,"o":"m 1273 926 l 1273 810 l 0 810 l 0 926 l 579 926 l 579 1042 l 694 1042 l 694 926 l 1273 926 m 347 694 l 463 694 l 463 579 l 347 579 l 347 694 m 810 694 l 926 694 l 926 579 l 810 579 l 810 694 m 231 579 l 347 579 l 347 463 l 231 463 l 231 579 m 926 579 l 1042 579 l 1042 463 l 926 463 l 926 579 m 231 347 l 0 347 l 0 463 l 231 463 l 231 347 m 347 463 l 463 463 l 463 347 l 347 347 l 347 463 m 810 463 l 926 463 l 926 347 l 810 347 l 810 463 m 1042 463 l 1273 463 l 1273 347 l 1042 347 l 1042 463 m 463 347 l 579 347 l 579 231 l 463 231 l 463 347 m 694 347 l 810 347 l 810 231 l 694 231 l 694 347 m 579 231 l 694 231 l 694 116 l 579 116 l 579 231 m 463 116 l 579 116 l 579 0 l 463 0 l 463 116 m 694 116 l 810 116 l 810 0 l 694 0 l 694 116 m 231 0 l 463 0 l 463 -116 l 231 -116 l 231 0 m 810 0 l 1042 0 l 1042 -116 l 810 -116 l 810 0 m 231 -231 l 0 -231 l 0 -116 l 231 -116 l 231 -231 m 1042 -116 l 1273 -116 l 1273 -231 l 1042 -231 l 1042 -116 z "},"亥":{"ha":1389,"x_min":0,"x_max":1273,"o":"m 1273 926 l 1273 810 l 463 810 l 463 694 l 347 694 l 347 810 l 0 810 l 0 926 l 579 926 l 579 1042 l 694 1042 l 694 926 l 1273 926 m 810 694 l 926 694 l 926 579 l 810 579 l 810 694 m 231 694 l 347 694 l 347 579 l 810 579 l 810 463 l 694 463 l 694 347 l 579 347 l 579 463 l 116 463 l 116 579 l 231 579 l 231 694 m 1042 463 l 1157 463 l 1157 347 l 1042 347 l 1042 463 m 347 347 l 579 347 l 579 231 l 347 231 l 347 347 m 926 347 l 1042 347 l 1042 231 l 926 231 l 926 347 m 0 231 l 347 231 l 347 116 l 0 116 l 0 231 m 810 231 l 926 231 l 926 116 l 810 116 l 810 231 m 579 116 l 810 116 l 810 0 l 579 0 l 579 116 m 579 -116 l 347 -116 l 347 0 l 579 0 l 579 -116 m 810 0 l 1042 0 l 1042 -116 l 810 -116 l 810 0 m 347 -116 l 347 -231 l 0 -231 l 0 -116 l 347 -116 m 1042 -116 l 1273 -116 l 1273 -231 l 1042 -231 l 1042 -116 z "},"亦":{"ha":1389,"x_min":0,"x_max":1273,"o":"m 463 1042 l 579 1042 l 579 926 l 463 926 l 463 1042 m 1042 463 l 1157 463 l 1157 347 l 1042 347 l 1042 463 m 116 463 l 231 463 l 231 231 l 116 231 l 116 463 m 0 231 l 116 231 l 116 116 l 0 116 l 0 231 m 1157 347 l 1273 347 l 1273 116 l 1157 116 l 1157 347 m 231 116 l 347 116 l 347 -116 l 231 -116 l 231 116 m 116 -116 l 231 -116 l 231 -231 l 116 -231 l 116 -116 m 347 694 l 0 694 l 0 810 l 579 810 l 579 926 l 694 926 l 694 810 l 1273 810 l 1273 694 l 926 694 l 926 -231 l 579 -231 l 579 -116 l 810 -116 l 810 694 l 463 694 l 463 116 l 347 116 l 347 694 z "},"产":{"ha":1389,"x_min":0,"x_max":1273,"o":"m 463 810 l 463 694 l 347 694 l 347 810 l 116 810 l 116 926 l 694 926 l 694 1042 l 810 1042 l 810 926 l 1273 926 l 1273 810 l 1157 810 l 1157 694 l 1042 694 l 1042 810 l 463 810 m 1273 463 l 231 463 l 231 -116 l 116 -116 l 116 579 l 463 579 l 463 694 l 579 694 l 579 579 l 926 579 l 926 694 l 1042 694 l 1042 579 l 1273 579 l 1273 463 m 0 -116 l 116 -116 l 116 -231 l 0 -231 l 0 -116 z "},"亩":{"ha":1389,"x_min":0,"x_max":1273,"o":"m 463 1042 l 579 1042 l 579 926 l 463 926 l 463 1042 m 1273 810 l 1273 694 l 0 694 l 0 810 l 579 810 l 579 926 l 694 926 l 694 810 l 1273 810 m 694 -116 l 1042 -116 l 1042 116 l 694 116 l 694 -116 m 579 116 l 231 116 l 231 -116 l 579 -116 l 579 116 m 1157 -231 l 116 -231 l 116 579 l 1157 579 l 1157 -231 m 694 231 l 1042 231 l 1042 463 l 694 463 l 694 231 m 579 463 l 231 463 l 231 231 l 579 231 l 579 463 z "},"享":{"ha":1389,"x_min":0,"x_max":1273,"o":"m 926 694 l 926 810 l 347 810 l 347 694 l 926 694 m 231 810 l 0 810 l 0 926 l 579 926 l 579 1042 l 694 1042 l 694 926 l 1273 926 l 1273 810 l 1042 810 l 1042 579 l 231 579 l 231 810 m 810 347 l 116 347 l 116 463 l 1042 463 l 1042 347 l 926 347 l 926 231 l 810 231 l 810 347 m 579 116 l 579 231 l 810 231 l 810 116 l 1273 116 l 1273 0 l 694 0 l 694 -231 l 347 -231 l 347 -116 l 579 -116 l 579 0 l 0 0 l 0 116 l 579 116 z "},"京":{"ha":1389,"x_min":0,"x_max":1273,"o":"m 1273 926 l 1273 810 l 0 810 l 0 926 l 579 926 l 579 1042 l 694 1042 l 694 926 l 1273 926 m 231 116 l 347 116 l 347 0 l 231 0 l 231 116 m 926 116 l 1042 116 l 1042 0 l 926 0 l 926 116 m 0 0 l 231 0 l 231 -116 l 0 -116 l 0 0 m 1042 0 l 1273 0 l 1273 -116 l 1042 -116 l 1042 0 m 231 579 l 231 347 l 1042 347 l 1042 579 l 231 579 m 1157 694 l 1157 231 l 694 231 l 694 -231 l 347 -231 l 347 -116 l 579 -116 l 579 231 l 116 231 l 116 694 l 1157 694 z "},"亭":{"ha":1389,"x_min":0,"x_max":1273,"o":"m 926 694 l 926 810 l 347 810 l 347 694 l 926 694 m 231 810 l 0 810 l 0 926 l 579 926 l 579 1042 l 694 1042 l 694 926 l 1273 926 l 1273 810 l 1042 810 l 1042 579 l 231 579 l 231 810 m 0 463 l 1273 463 l 1273 116 l 1157 116 l 1157 347 l 116 347 l 116 116 l 0 116 l 0 463 m 1042 116 l 694 116 l 694 -231 l 347 -231 l 347 -116 l 579 -116 l 579 116 l 231 116 l 231 231 l 1042 231 l 1042 116 z "},"亮":{"ha":1389,"x_min":0,"x_max":1273,"o":"m 926 694 l 926 810 l 347 810 l 347 694 l 926 694 m 231 810 l 0 810 l 0 926 l 579 926 l 579 1042 l 694 1042 l 694 926 l 1273 926 l 1273 810 l 1042 810 l 1042 579 l 231 579 l 231 810 m 0 463 l 1273 463 l 1273 231 l 1157 231 l 1157 347 l 116 347 l 116 231 l 0 231 l 0 463 m 231 0 l 347 0 l 347 -116 l 231 -116 l 231 0 m 231 -231 l 0 -231 l 0 -116 l 231 -116 l 231 -231 m 347 231 l 926 231 l 926 -116 l 1157 -116 l 1157 0 l 1273 0 l 1273 -231 l 810 -231 l 810 116 l 463 116 l 463 0 l 347 0 l 347 231 z "},"亲":{"ha":1389,"x_min":0,"x_max":1273,"o":"m 1157 926 l 1157 810 l 1042 810 l 1042 694 l 926 694 l 926 810 l 347 810 l 347 694 l 231 694 l 231 810 l 116 810 l 116 926 l 579 926 l 579 1042 l 694 1042 l 694 926 l 1157 926 m 231 116 l 347 116 l 347 0 l 231 0 l 231 116 m 926 116 l 1042 116 l 1042 0 l 926 0 l 926 116 m 0 0 l 231 0 l 231 -116 l 0 -116 l 0 0 m 1042 0 l 1273 0 l 1273 -116 l 1042 -116 l 1042 0 m 0 347 l 579 347 l 579 463 l 0 463 l 0 579 l 347 579 l 347 694 l 463 694 l 463 579 l 810 579 l 810 694 l 926 694 l 926 579 l 1273 579 l 1273 463 l 694 463 l 694 347 l 1273 347 l 1273 231 l 694 231 l 694 -231 l 463 -231 l 463 -116 l 579 -116 l 579 231 l 0 231 l 0 347 z "},"亿":{"ha":1389,"x_min":0,"x_max":1273,"o":"m 231 1042 l 347 1042 l 347 810 l 231 810 l 231 1042 m 1157 1042 l 1157 810 l 1042 810 l 1042 926 l 463 926 l 463 1042 l 1157 1042 m 926 810 l 1042 810 l 1042 694 l 926 694 l 926 810 m 810 694 l 926 694 l 926 579 l 810 579 l 810 694 m 694 579 l 810 579 l 810 347 l 694 347 l 694 579 m 579 347 l 694 347 l 694 116 l 579 116 l 579 347 m 463 116 l 579 116 l 579 -116 l 463 -116 l 463 116 m 231 -231 l 116 -231 l 116 463 l 0 463 l 0 579 l 116 579 l 116 810 l 231 810 l 231 -231 m 1157 116 l 1273 116 l 1273 -231 l 579 -231 l 579 -116 l 1157 -116 l 1157 116 z "},"什":{"ha":1389,"x_min":0,"x_max":1273,"o":"m 347 1042 l 463 1042 l 463 810 l 347 810 l 347 1042 m 0 463 l 116 463 l 116 347 l 0 347 l 0 463 m 231 810 l 347 810 l 347 -231 l 231 -231 l 231 463 l 116 463 l 116 579 l 231 579 l 231 810 m 1273 463 l 926 463 l 926 -231 l 810 -231 l 810 463 l 463 463 l 463 579 l 810 579 l 810 1042 l 926 1042 l 926 579 l 1273 579 l 1273 463 z "},"仁":{"ha":1389,"x_min":0,"x_max":1273,"o":"m 231 1042 l 347 1042 l 347 810 l 231 810 l 231 1042 m 1157 926 l 1157 810 l 463 810 l 463 926 l 1157 926 m 1273 0 l 1273 -116 l 347 -116 l 347 0 l 1273 0 m 231 -231 l 116 -231 l 116 463 l 0 463 l 0 579 l 116 579 l 116 810 l 231 810 l 231 -231 z "},"仅":{"ha":1389,"x_min":0,"x_max":1273,"o":"m 231 1042 l 347 1042 l 347 810 l 231 810 l 231 1042 m 463 1042 l 1273 1042 l 1273 579 l 1157 579 l 1157 926 l 579 926 l 579 579 l 463 579 l 463 1042 m 579 579 l 694 579 l 694 231 l 579 231 l 579 579 m 1042 579 l 1157 579 l 1157 231 l 1042 231 l 1042 579 m 694 231 l 810 231 l 810 116 l 694 116 l 694 231 m 926 231 l 1042 231 l 1042 116 l 926 116 l 926 231 m 810 116 l 926 116 l 926 0 l 810 0 l 810 116 m 694 0 l 810 0 l 810 -116 l 694 -116 l 694 0 m 926 0 l 1042 0 l 1042 -116 l 926 -116 l 926 0 m 231 -231 l 116 -231 l 116 463 l 0 463 l 0 579 l 116 579 l 116 810 l 231 810 l 231 -231 m 463 -116 l 694 -116 l 694 -231 l 463 -231 l 463 -116 m 1042 -116 l 1273 -116 l 1273 -231 l 1042 -231 l 1042 -116 z "},"仆":{"ha":1389,"x_min":0,"x_max":1273,"o":"m 347 1042 l 463 1042 l 463 810 l 347 810 l 347 1042 m 0 463 l 116 463 l 116 347 l 0 347 l 0 463 m 1042 463 l 1157 463 l 1157 347 l 1042 347 l 1042 463 m 1157 347 l 1273 347 l 1273 231 l 1157 231 l 1157 347 m 231 810 l 347 810 l 347 -231 l 231 -231 l 231 463 l 116 463 l 116 579 l 231 579 l 231 810 m 810 1042 l 926 1042 l 926 579 l 1042 579 l 1042 463 l 926 463 l 926 -231 l 810 -231 l 810 1042 z "},"仇":{"ha":1389,"x_min":0,"x_max":1273,"o":"m 231 1042 l 347 1042 l 347 810 l 231 810 l 231 1042 m 463 116 l 579 116 l 579 -116 l 463 -116 l 463 116 m 231 -231 l 116 -231 l 116 463 l 0 463 l 0 579 l 116 579 l 116 810 l 231 810 l 231 -231 m 347 -116 l 463 -116 l 463 -231 l 347 -231 l 347 -116 m 926 579 l 694 579 l 694 116 l 579 116 l 579 579 l 347 579 l 347 694 l 579 694 l 579 1042 l 694 1042 l 694 694 l 1042 694 l 1042 -116 l 1157 -116 l 1157 116 l 1273 116 l 1273 -231 l 926 -231 l 926 579 z "},"今":{"ha":1389,"x_min":0,"x_max":1273,"o":"m 579 1042 l 694 1042 l 694 926 l 579 926 l 579 1042 m 463 926 l 579 926 l 579 810 l 463 810 l 463 926 m 694 926 l 810 926 l 810 810 l 694 810 l 694 926 m 231 810 l 463 810 l 463 694 l 231 694 l 231 810 m 1042 694 l 810 694 l 810 810 l 1042 810 l 1042 694 m 0 694 l 231 694 l 231 579 l 0 579 l 0 694 m 1273 579 l 1042 579 l 1042 694 l 1273 694 l 1273 579 m 579 579 l 694 579 l 694 463 l 579 463 l 579 579 m 926 231 l 116 231 l 116 347 l 694 347 l 694 463 l 810 463 l 810 347 l 1157 347 l 1157 231 l 1042 231 l 1042 116 l 926 116 l 926 231 m 810 116 l 926 116 l 926 0 l 810 0 l 810 116 m 694 0 l 810 0 l 810 -116 l 694 -116 l 694 0 m 579 -116 l 694 -116 l 694 -231 l 579 -231 l 579 -116 z "},"介":{"ha":1389,"x_min":0,"x_max":1273,"o":"m 579 1042 l 694 1042 l 694 926 l 579 926 l 579 1042 m 463 926 l 579 926 l 579 810 l 463 810 l 463 926 m 694 926 l 810 926 l 810 810 l 694 810 l 694 926 m 347 810 l 463 810 l 463 694 l 347 694 l 347 810 m 810 810 l 926 810 l 926 694 l 810 694 l 810 810 m 231 694 l 347 694 l 347 579 l 231 579 l 231 694 m 926 694 l 1042 694 l 1042 579 l 926 579 l 926 694 m 0 579 l 231 579 l 231 463 l 0 463 l 0 579 m 1042 579 l 1273 579 l 1273 463 l 1042 463 l 1042 579 m 347 579 l 463 579 l 463 116 l 347 116 l 347 579 m 231 116 l 347 116 l 347 -116 l 231 -116 l 231 116 m 116 -116 l 231 -116 l 231 -231 l 116 -231 l 116 -116 m 810 579 l 926 579 l 926 -231 l 810 -231 l 810 579 z "},"仍":{"ha":1389,"x_min":0,"x_max":1273,"o":"m 231 1042 l 347 1042 l 347 810 l 231 810 l 231 1042 m 579 926 l 463 926 l 463 1042 l 1157 1042 l 1157 694 l 1042 694 l 1042 926 l 694 926 l 694 116 l 579 116 l 579 926 m 463 116 l 579 116 l 579 -116 l 463 -116 l 463 116 m 1273 -116 l 1157 -116 l 1157 463 l 926 463 l 926 694 l 1042 694 l 1042 579 l 1273 579 l 1273 -116 m 231 -231 l 116 -231 l 116 463 l 0 463 l 0 579 l 116 579 l 116 810 l 231 810 l 231 -231 m 347 -116 l 463 -116 l 463 -231 l 347 -231 l 347 -116 m 1157 -231 l 926 -231 l 926 -116 l 1157 -116 l 1157 -231 z "},"从":{"ha":1389,"x_min":0,"x_max":1273,"o":"m 347 1042 l 463 1042 l 463 463 l 347 463 l 347 1042 m 810 1042 l 926 1042 l 926 463 l 810 463 l 810 1042 m 231 463 l 347 463 l 347 116 l 231 116 l 231 463 m 463 463 l 579 463 l 579 116 l 463 116 l 463 463 m 694 463 l 810 463 l 810 116 l 694 116 l 694 463 m 926 463 l 1042 463 l 1042 116 l 926 116 l 926 463 m 116 116 l 231 116 l 231 -116 l 116 -116 l 116 116 m 579 116 l 694 116 l 694 -116 l 579 -116 l 579 116 m 1042 116 l 1157 116 l 1157 -116 l 1042 -116 l 1042 116 m 0 -116 l 116 -116 l 116 -231 l 0 -231 l 0 -116 m 463 -116 l 579 -116 l 579 -231 l 463 -231 l 463 -116 m 1157 -116 l 1273 -116 l 1273 -231 l 1157 -231 l 1157 -116 z "},"仑":{"ha":1389,"x_min":0,"x_max":1273,"o":"m 579 1042 l 694 1042 l 694 926 l 579 926 l 579 1042 m 463 926 l 579 926 l 579 810 l 463 810 l 463 926 m 694 926 l 810 926 l 810 810 l 694 810 l 694 926 m 231 810 l 463 810 l 463 694 l 231 694 l 231 810 m 1042 694 l 810 694 l 810 810 l 1042 810 l 1042 694 m 0 694 l 231 694 l 231 579 l 0 579 l 0 694 m 1273 579 l 1042 579 l 1042 694 l 1273 694 l 1273 579 m 926 463 l 1042 463 l 1042 347 l 926 347 l 926 463 m 694 347 l 926 347 l 926 231 l 694 231 l 694 347 m 694 231 l 694 116 l 347 116 l 347 -116 l 231 -116 l 231 579 l 347 579 l 347 231 l 694 231 m 1042 116 l 1157 116 l 1157 -231 l 347 -231 l 347 -116 l 1042 -116 l 1042 116 z "},"仓":{"ha":1389,"x_min":0,"x_max":1273,"o":"m 579 1042 l 694 1042 l 694 926 l 579 926 l 579 1042 m 463 926 l 579 926 l 579 810 l 463 810 l 463 926 m 694 926 l 810 926 l 810 810 l 694 810 l 694 926 m 231 810 l 463 810 l 463 694 l 231 694 l 231 810 m 1042 694 l 810 694 l 810 810 l 1042 810 l 1042 694 m 0 694 l 231 694 l 231 579 l 0 579 l 0 694 m 1273 579 l 1042 579 l 1042 694 l 1273 694 l 1273 579 m 1042 116 l 694 116 l 694 231 l 926 231 l 926 463 l 347 463 l 347 -116 l 231 -116 l 231 579 l 1042 579 l 1042 116 m 1273 -231 l 347 -231 l 347 -116 l 1157 -116 l 1157 0 l 1273 0 l 1273 -231 z "},"仔":{"ha":1389,"x_min":0,"x_max":1273,"o":"m 231 1042 l 347 1042 l 347 810 l 231 810 l 231 1042 m 1157 1042 l 1157 810 l 1042 810 l 1042 926 l 463 926 l 463 1042 l 1157 1042 m 926 810 l 1042 810 l 1042 694 l 926 694 l 926 810 m 231 -231 l 116 -231 l 116 463 l 0 463 l 0 579 l 116 579 l 116 810 l 231 810 l 231 -231 m 463 463 l 810 463 l 810 694 l 926 694 l 926 463 l 1273 463 l 1273 347 l 926 347 l 926 -231 l 579 -231 l 579 -116 l 810 -116 l 810 347 l 463 347 l 463 463 z "},"他":{"ha":1389,"x_min":0,"x_max":1273,"o":"m 231 1042 l 347 1042 l 347 810 l 231 810 l 231 1042 m 1157 694 l 1042 694 l 1042 810 l 1273 810 l 1273 231 l 1042 231 l 1042 347 l 1157 347 l 1157 694 m 1042 579 l 926 579 l 926 116 l 810 116 l 810 579 l 694 579 l 694 694 l 810 694 l 810 1042 l 926 1042 l 926 694 l 1042 694 l 1042 579 m 463 926 l 579 926 l 579 579 l 694 579 l 694 463 l 579 463 l 579 -116 l 463 -116 l 463 463 l 347 463 l 347 579 l 463 579 l 463 926 m 231 -231 l 116 -231 l 116 463 l 0 463 l 0 579 l 116 579 l 116 810 l 231 810 l 231 -231 m 1157 116 l 1273 116 l 1273 -231 l 579 -231 l 579 -116 l 1157 -116 l 1157 116 z "},"仗":{"ha":1389,"x_min":0,"x_max":1273,"o":"m 231 1042 l 347 1042 l 347 810 l 231 810 l 231 1042 m 463 579 l 579 579 l 579 347 l 463 347 l 463 579 m 926 694 l 347 694 l 347 810 l 926 810 l 926 1042 l 1042 1042 l 1042 810 l 1273 810 l 1273 694 l 1042 694 l 1042 347 l 926 347 l 926 694 m 579 347 l 694 347 l 694 116 l 579 116 l 579 347 m 810 347 l 926 347 l 926 116 l 810 116 l 810 347 m 694 116 l 810 116 l 810 0 l 694 0 l 694 116 m 579 0 l 694 0 l 694 -116 l 579 -116 l 579 0 m 810 0 l 926 0 l 926 -116 l 810 -116 l 810 0 m 231 -231 l 116 -231 l 116 463 l 0 463 l 0 579 l 116 579 l 116 810 l 231 810 l 231 -231 m 579 -231 l 347 -231 l 347 -116 l 579 -116 l 579 -231 m 1273 -116 l 1273 -231 l 926 -231 l 926 -116 l 1273 -116 z "},"付":{"ha":1389,"x_min":0,"x_max":1273,"o":"m 231 1042 l 347 1042 l 347 810 l 231 810 l 231 1042 m 463 463 l 579 463 l 579 347 l 463 347 l 463 463 m 579 347 l 694 347 l 694 116 l 579 116 l 579 347 m 231 -231 l 116 -231 l 116 463 l 0 463 l 0 579 l 116 579 l 116 810 l 231 810 l 231 -231 m 926 694 l 463 694 l 463 810 l 926 810 l 926 1042 l 1042 1042 l 1042 810 l 1273 810 l 1273 694 l 1042 694 l 1042 -231 l 694 -231 l 694 -116 l 926 -116 l 926 694 z "},"仙":{"ha":1389,"x_min":0,"x_max":1273,"o":"m 231 1042 l 347 1042 l 347 810 l 231 810 l 231 1042 m 231 -231 l 116 -231 l 116 463 l 0 463 l 0 579 l 116 579 l 116 810 l 231 810 l 231 -231 m 1157 694 l 1273 694 l 1273 -231 l 463 -231 l 463 694 l 579 694 l 579 -116 l 810 -116 l 810 1042 l 926 1042 l 926 -116 l 1157 -116 l 1157 694 z "},"代":{"ha":1389,"x_min":0,"x_max":1273,"o":"m 926 1042 l 1042 1042 l 1042 926 l 926 926 l 926 1042 m 231 1042 l 347 1042 l 347 810 l 231 810 l 231 1042 m 1042 926 l 1157 926 l 1157 810 l 1042 810 l 1042 926 m 1273 694 l 1273 579 l 810 579 l 810 231 l 694 231 l 694 463 l 347 463 l 347 579 l 694 579 l 694 1042 l 810 1042 l 810 694 l 1273 694 m 810 231 l 926 231 l 926 0 l 810 0 l 810 231 m 926 0 l 1042 0 l 1042 -116 l 926 -116 l 926 0 m 231 -231 l 116 -231 l 116 463 l 0 463 l 0 579 l 116 579 l 116 810 l 231 810 l 231 -231 m 1157 116 l 1273 116 l 1273 -231 l 1042 -231 l 1042 -116 l 1157 -116 l 1157 116 z "},"令":{"ha":1389,"x_min":0,"x_max":1273,"o":"m 579 1042 l 694 1042 l 694 926 l 579 926 l 579 1042 m 463 926 l 579 926 l 579 810 l 463 810 l 463 926 m 694 926 l 810 926 l 810 810 l 694 810 l 694 926 m 231 810 l 463 810 l 463 694 l 231 694 l 231 810 m 1042 694 l 810 694 l 810 810 l 1042 810 l 1042 694 m 0 694 l 231 694 l 231 579 l 0 579 l 0 694 m 1273 579 l 1042 579 l 1042 694 l 1273 694 l 1273 579 m 579 579 l 694 579 l 694 463 l 579 463 l 579 579 m 926 231 l 116 231 l 116 347 l 694 347 l 694 463 l 810 463 l 810 347 l 1157 347 l 1157 231 l 1042 231 l 1042 116 l 926 116 l 926 231 m 463 116 l 579 116 l 579 0 l 463 0 l 463 116 m 810 116 l 926 116 l 926 0 l 810 0 l 810 116 m 579 0 l 810 0 l 810 -116 l 579 -116 l 579 0 m 810 -116 l 1042 -116 l 1042 -231 l 810 -231 l 810 -116 z "},"以":{"ha":1389,"x_min":116,"x_max":1273,"o":"m 463 926 l 579 926 l 579 810 l 463 810 l 463 926 m 579 810 l 694 810 l 694 579 l 579 579 l 579 810 m 926 1042 l 1042 1042 l 1042 347 l 926 347 l 926 1042 m 463 347 l 579 347 l 579 231 l 463 231 l 463 347 m 347 231 l 463 231 l 463 116 l 347 116 l 347 231 m 810 347 l 926 347 l 926 116 l 810 116 l 810 347 m 694 116 l 810 116 l 810 0 l 694 0 l 694 116 m 926 116 l 1042 116 l 1042 0 l 926 0 l 926 116 m 116 926 l 231 926 l 231 116 l 347 116 l 347 0 l 231 0 l 231 -116 l 116 -116 l 116 926 m 579 0 l 694 0 l 694 -116 l 579 -116 l 579 0 m 1042 0 l 1157 0 l 1157 -116 l 1042 -116 l 1042 0 m 579 -231 l 347 -231 l 347 -116 l 579 -116 l 579 -231 m 1157 -116 l 1273 -116 l 1273 -231 l 1157 -231 l 1157 -116 z "},"仪":{"ha":1389,"x_min":0,"x_max":1273,"o":"m 694 1042 l 810 1042 l 810 926 l 694 926 l 694 1042 m 231 1042 l 347 1042 l 347 810 l 231 810 l 231 1042 m 810 926 l 926 926 l 926 694 l 810 694 l 810 926 m 463 926 l 579 926 l 579 579 l 463 579 l 463 926 m 1157 926 l 1273 926 l 1273 579 l 1157 579 l 1157 926 m 579 579 l 694 579 l 694 231 l 579 231 l 579 579 m 1042 579 l 1157 579 l 1157 231 l 1042 231 l 1042 579 m 694 231 l 810 231 l 810 116 l 694 116 l 694 231 m 926 231 l 1042 231 l 1042 116 l 926 116 l 926 231 m 810 116 l 926 116 l 926 0 l 810 0 l 810 116 m 694 0 l 810 0 l 810 -116 l 694 -116 l 694 0 m 926 0 l 1042 0 l 1042 -116 l 926 -116 l 926 0 m 231 -231 l 116 -231 l 116 463 l 0 463 l 0 579 l 116 579 l 116 810 l 231 810 l 231 -231 m 463 -116 l 694 -116 l 694 -231 l 463 -231 l 463 -116 m 1042 -116 l 1273 -116 l 1273 -231 l 1042 -231 l 1042 -116 z "},"们":{"ha":1389,"x_min":0,"x_max":1273,"o":"m 463 1042 l 579 1042 l 579 926 l 463 926 l 463 1042 m 231 1042 l 347 1042 l 347 810 l 231 810 l 231 1042 m 579 926 l 694 926 l 694 810 l 579 810 l 579 926 m 231 -231 l 116 -231 l 116 463 l 0 463 l 0 579 l 116 579 l 116 810 l 231 810 l 231 -231 m 463 694 l 579 694 l 579 -231 l 463 -231 l 463 694 m 1157 926 l 810 926 l 810 1042 l 1273 1042 l 1273 -231 l 926 -231 l 926 -116 l 1157 -116 l 1157 926 z "},"仰":{"ha":1389,"x_min":0,"x_max":1273,"o":"m 579 1042 l 694 1042 l 694 926 l 579 926 l 579 1042 m 579 231 l 694 231 l 694 116 l 579 116 l 579 231 m 347 810 l 231 810 l 231 1042 l 347 1042 l 347 926 l 579 926 l 579 810 l 463 810 l 463 116 l 579 116 l 579 0 l 347 0 l 347 810 m 231 -231 l 116 -231 l 116 463 l 0 463 l 0 579 l 116 579 l 116 810 l 231 810 l 231 -231 m 1157 810 l 926 810 l 926 -231 l 810 -231 l 810 926 l 1273 926 l 1273 0 l 1042 0 l 1042 116 l 1157 116 l 1157 810 z "},"仲":{"ha":1389,"x_min":0,"x_max":1273,"o":"m 231 1042 l 347 1042 l 347 810 l 231 810 l 231 1042 m 231 -231 l 116 -231 l 116 463 l 0 463 l 0 579 l 116 579 l 116 810 l 231 810 l 231 -231 m 579 347 l 810 347 l 810 694 l 579 694 l 579 347 m 1273 231 l 926 231 l 926 -231 l 810 -231 l 810 231 l 463 231 l 463 810 l 810 810 l 810 1042 l 926 1042 l 926 810 l 1273 810 l 1273 231 m 1157 694 l 926 694 l 926 347 l 1157 347 l 1157 694 z "},"件":{"ha":1389,"x_min":0,"x_max":1273,"o":"m 231 1042 l 347 1042 l 347 810 l 231 810 l 231 1042 m 347 694 l 463 694 l 463 579 l 347 579 l 347 694 m 231 -231 l 116 -231 l 116 463 l 0 463 l 0 579 l 116 579 l 116 810 l 231 810 l 231 -231 m 463 1042 l 579 1042 l 579 810 l 810 810 l 810 1042 l 926 1042 l 926 810 l 1273 810 l 1273 694 l 926 694 l 926 347 l 1273 347 l 1273 231 l 926 231 l 926 -231 l 810 -231 l 810 231 l 347 231 l 347 347 l 810 347 l 810 694 l 463 694 l 463 1042 z "},"价":{"ha":1389,"x_min":0,"x_max":1273,"o":"m 810 1042 l 926 1042 l 926 926 l 810 926 l 810 1042 m 231 1042 l 347 1042 l 347 810 l 231 810 l 231 1042 m 694 926 l 810 926 l 810 810 l 694 810 l 694 926 m 926 926 l 1042 926 l 1042 810 l 926 810 l 926 926 m 579 810 l 694 810 l 694 694 l 579 694 l 579 810 m 1042 810 l 1157 810 l 1157 694 l 1042 694 l 1042 810 m 579 579 l 347 579 l 347 694 l 579 694 l 579 579 m 1157 694 l 1273 694 l 1273 579 l 1157 579 l 1157 694 m 579 579 l 694 579 l 694 -116 l 579 -116 l 579 579 m 231 -231 l 116 -231 l 116 463 l 0 463 l 0 579 l 116 579 l 116 810 l 231 810 l 231 -231 m 463 -116 l 579 -116 l 579 -231 l 463 -231 l 463 -116 m 1042 579 l 1157 579 l 1157 -231 l 1042 -231 l 1042 579 z "},"任":{"ha":1389,"x_min":0,"x_max":1273,"o":"m 1157 926 l 926 926 l 926 1042 l 1157 1042 l 1157 926 m 231 1042 l 347 1042 l 347 810 l 231 810 l 231 1042 m 231 -231 l 116 -231 l 116 463 l 0 463 l 0 579 l 116 579 l 116 810 l 231 810 l 231 -231 m 810 810 l 463 810 l 463 926 l 926 926 l 926 463 l 1273 463 l 1273 347 l 926 347 l 926 -116 l 1157 -116 l 1157 -231 l 463 -231 l 463 -116 l 810 -116 l 810 347 l 347 347 l 347 463 l 810 463 l 810 810 z "},"份":{"ha":1389,"x_min":0,"x_max":1273,"o":"m 231 1042 l 347 1042 l 347 810 l 231 810 l 231 1042 m 579 1042 l 694 1042 l 694 810 l 579 810 l 579 1042 m 926 1042 l 1042 1042 l 1042 810 l 926 810 l 926 1042 m 463 810 l 579 810 l 579 579 l 463 579 l 463 810 m 1042 810 l 1157 810 l 1157 579 l 1042 579 l 1042 810 m 347 579 l 463 579 l 463 463 l 347 463 l 347 579 m 1157 579 l 1273 579 l 1273 463 l 1157 463 l 1157 579 m 463 116 l 579 116 l 579 -116 l 463 -116 l 463 116 m 1042 347 l 694 347 l 694 116 l 579 116 l 579 347 l 463 347 l 463 463 l 1157 463 l 1157 -116 l 1042 -116 l 1042 347 m 231 -231 l 116 -231 l 116 463 l 0 463 l 0 579 l 116 579 l 116 810 l 231 810 l 231 -231 m 347 -116 l 463 -116 l 463 -231 l 347 -231 l 347 -116 m 810 -116 l 1042 -116 l 1042 -231 l 810 -231 l 810 -116 z "},"仿":{"ha":1389,"x_min":0,"x_max":1273,"o":"m 694 1042 l 810 1042 l 810 926 l 694 926 l 694 1042 m 231 1042 l 347 1042 l 347 810 l 231 810 l 231 1042 m 463 116 l 579 116 l 579 -116 l 463 -116 l 463 116 m 1042 347 l 694 347 l 694 116 l 579 116 l 579 694 l 347 694 l 347 810 l 810 810 l 810 926 l 926 926 l 926 810 l 1273 810 l 1273 694 l 694 694 l 694 463 l 1157 463 l 1157 -116 l 1042 -116 l 1042 347 m 231 -231 l 116 -231 l 116 463 l 0 463 l 0 579 l 116 579 l 116 810 l 231 810 l 231 -231 m 347 -116 l 463 -116 l 463 -231 l 347 -231 l 347 -116 m 810 -116 l 1042 -116 l 1042 -231 l 810 -231 l 810 -116 z "},"企":{"ha":1389,"x_min":0,"x_max":1273,"o":"m 579 1042 l 694 1042 l 694 926 l 579 926 l 579 1042 m 463 926 l 579 926 l 579 810 l 463 810 l 463 926 m 694 926 l 810 926 l 810 810 l 694 810 l 694 926 m 231 810 l 463 810 l 463 694 l 231 694 l 231 810 m 1042 694 l 810 694 l 810 810 l 1042 810 l 1042 694 m 0 694 l 231 694 l 231 579 l 0 579 l 0 694 m 1273 579 l 1042 579 l 1042 694 l 1273 694 l 1273 579 m 1273 -231 l 0 -231 l 0 -116 l 231 -116 l 231 463 l 347 463 l 347 -116 l 579 -116 l 579 579 l 694 579 l 694 347 l 1157 347 l 1157 231 l 694 231 l 694 -116 l 1273 -116 l 1273 -231 z "},"伊":{"ha":1389,"x_min":0,"x_max":1273,"o":"m 231 1042 l 347 1042 l 347 810 l 231 810 l 231 1042 m 1042 579 l 810 579 l 810 347 l 1042 347 l 1042 579 m 1042 926 l 810 926 l 810 694 l 1042 694 l 1042 926 m 347 694 l 694 694 l 694 926 l 463 926 l 463 1042 l 1157 1042 l 1157 694 l 1273 694 l 1273 579 l 1157 579 l 1157 231 l 810 231 l 810 0 l 694 0 l 694 231 l 463 231 l 463 347 l 694 347 l 694 579 l 347 579 l 347 694 m 579 0 l 694 0 l 694 -116 l 579 -116 l 579 0 m 231 -231 l 116 -231 l 116 463 l 0 463 l 0 579 l 116 579 l 116 810 l 231 810 l 231 -231 m 579 -231 l 347 -231 l 347 -116 l 579 -116 l 579 -231 z "},"伍":{"ha":1389,"x_min":0,"x_max":1273,"o":"m 231 1042 l 347 1042 l 347 810 l 231 810 l 231 1042 m 231 -231 l 116 -231 l 116 463 l 0 463 l 0 579 l 116 579 l 116 810 l 231 810 l 231 -231 m 1157 1042 l 1157 926 l 810 926 l 810 579 l 1157 579 l 1157 -116 l 1273 -116 l 1273 -231 l 347 -231 l 347 -116 l 579 -116 l 579 231 l 694 231 l 694 -116 l 1042 -116 l 1042 463 l 810 463 l 810 231 l 694 231 l 694 463 l 463 463 l 463 579 l 694 579 l 694 926 l 463 926 l 463 1042 l 1157 1042 z "},"伏":{"ha":1389,"x_min":0,"x_max":1273,"o":"m 1042 1042 l 1157 1042 l 1157 926 l 1042 926 l 1042 1042 m 347 1042 l 463 1042 l 463 810 l 347 810 l 347 1042 m 1157 926 l 1273 926 l 1273 810 l 1157 810 l 1157 926 m 463 694 l 810 694 l 810 1042 l 926 1042 l 926 694 l 1273 694 l 1273 579 l 926 579 l 926 463 l 810 463 l 810 579 l 463 579 l 463 694 m 0 463 l 116 463 l 116 347 l 0 347 l 0 463 m 694 463 l 810 463 l 810 116 l 694 116 l 694 463 m 926 463 l 1042 463 l 1042 116 l 926 116 l 926 463 m 579 116 l 694 116 l 694 -116 l 579 -116 l 579 116 m 1042 116 l 1157 116 l 1157 -116 l 1042 -116 l 1042 116 m 231 810 l 347 810 l 347 -231 l 231 -231 l 231 463 l 116 463 l 116 579 l 231 579 l 231 810 m 463 -116 l 579 -116 l 579 -231 l 463 -231 l 463 -116 m 1157 -116 l 1273 -116 l 1273 -231 l 1157 -231 l 1157 -116 z "},"伐":{"ha":1389,"x_min":0,"x_max":1273,"o":"m 926 1042 l 1042 1042 l 1042 926 l 926 926 l 926 1042 m 231 1042 l 347 1042 l 347 810 l 231 810 l 231 1042 m 1042 926 l 1157 926 l 1157 810 l 1042 810 l 1042 926 m 1042 463 l 1157 463 l 1157 347 l 1042 347 l 1042 463 m 1273 694 l 1273 579 l 810 579 l 810 231 l 694 231 l 694 463 l 347 463 l 347 579 l 694 579 l 694 1042 l 810 1042 l 810 694 l 1273 694 m 926 347 l 1042 347 l 1042 231 l 926 231 l 926 347 m 810 231 l 926 231 l 926 0 l 810 0 l 810 231 m 579 0 l 810 0 l 810 -116 l 579 -116 l 579 0 m 926 0 l 1042 0 l 1042 -116 l 926 -116 l 926 0 m 231 -231 l 116 -231 l 116 463 l 0 463 l 0 579 l 116 579 l 116 810 l 231 810 l 231 -231 m 579 -231 l 347 -231 l 347 -116 l 579 -116 l 579 -231 m 1157 116 l 1273 116 l 1273 -231 l 1042 -231 l 1042 -116 l 1157 -116 l 1157 116 z "},"休":{"ha":1389,"x_min":0,"x_max":1273,"o":"m 231 1042 l 347 1042 l 347 810 l 231 810 l 231 1042 m 463 347 l 579 347 l 579 116 l 463 116 l 463 347 m 926 347 l 1042 347 l 1042 116 l 926 116 l 926 347 m 347 116 l 463 116 l 463 0 l 347 0 l 347 116 m 1042 116 l 1157 116 l 1157 0 l 1042 0 l 1042 116 m 1157 0 l 1273 0 l 1273 -116 l 1157 -116 l 1157 0 m 231 0 l 347 0 l 347 -116 l 231 -116 l 231 -231 l 116 -231 l 116 463 l 0 463 l 0 579 l 116 579 l 116 810 l 231 810 l 231 0 m 694 810 l 694 1042 l 810 1042 l 810 810 l 1273 810 l 1273 694 l 810 694 l 810 579 l 926 579 l 926 347 l 810 347 l 810 -231 l 694 -231 l 694 347 l 579 347 l 579 579 l 694 579 l 694 694 l 347 694 l 347 810 l 694 810 z "},"众":{"ha":1389,"x_min":0,"x_max":1273,"o":"m 579 1042 l 694 1042 l 694 926 l 579 926 l 579 1042 m 463 926 l 579 926 l 579 810 l 463 810 l 463 926 m 694 926 l 810 926 l 810 810 l 694 810 l 694 926 m 231 810 l 463 810 l 463 694 l 231 694 l 231 810 m 1042 694 l 810 694 l 810 810 l 1042 810 l 1042 694 m 0 694 l 231 694 l 231 579 l 0 579 l 0 694 m 1273 579 l 1042 579 l 1042 694 l 1273 694 l 1273 579 m 347 579 l 463 579 l 463 231 l 347 231 l 347 579 m 810 579 l 926 579 l 926 231 l 810 231 l 810 579 m 231 231 l 347 231 l 347 0 l 231 0 l 231 231 m 463 231 l 579 231 l 579 0 l 463 0 l 463 231 m 694 231 l 810 231 l 810 0 l 694 0 l 694 231 m 926 231 l 1042 231 l 1042 0 l 926 0 l 926 231 m 116 0 l 231 0 l 231 -116 l 116 -116 l 116 0 m 579 0 l 694 0 l 694 -116 l 579 -116 l 579 0 m 1042 0 l 1157 0 l 1157 -116 l 1042 -116 l 1042 0 m 0 -116 l 116 -116 l 116 -231 l 0 -231 l 0 -116 m 463 -116 l 579 -116 l 579 -231 l 463 -231 l 463 -116 m 1157 -116 l 1273 -116 l 1273 -231 l 1157 -231 l 1157 -116 z "},"优":{"ha":1389,"x_min":0,"x_max":1273,"o":"m 926 1042 l 1042 1042 l 1042 926 l 926 926 l 926 1042 m 231 1042 l 347 1042 l 347 810 l 231 810 l 231 1042 m 1042 926 l 1157 926 l 1157 810 l 1042 810 l 1042 926 m 694 694 l 694 1042 l 810 1042 l 810 694 l 1273 694 l 1273 579 l 810 579 l 810 463 l 694 463 l 694 579 l 347 579 l 347 694 l 694 694 m 579 463 l 694 463 l 694 116 l 579 116 l 579 463 m 463 116 l 579 116 l 579 -116 l 463 -116 l 463 116 m 231 -231 l 116 -231 l 116 463 l 0 463 l 0 579 l 116 579 l 116 810 l 231 810 l 231 -231 m 347 -116 l 463 -116 l 463 -231 l 347 -231 l 347 -116 m 1273 -231 l 810 -231 l 810 463 l 926 463 l 926 -116 l 1157 -116 l 1157 116 l 1273 116 l 1273 -231 z "},"伙":{"ha":1389,"x_min":0,"x_max":1273,"o":"m 231 1042 l 347 1042 l 347 810 l 231 810 l 231 1042 m 463 810 l 579 810 l 579 579 l 463 579 l 463 810 m 1157 810 l 1273 810 l 1273 579 l 1157 579 l 1157 810 m 347 579 l 463 579 l 463 463 l 347 463 l 347 579 m 1042 579 l 1157 579 l 1157 463 l 1042 463 l 1042 579 m 810 1042 l 926 1042 l 926 231 l 810 231 l 810 1042 m 694 231 l 810 231 l 810 0 l 694 0 l 694 231 m 926 231 l 1042 231 l 1042 0 l 926 0 l 926 231 m 579 0 l 694 0 l 694 -116 l 579 -116 l 579 0 m 1042 0 l 1157 0 l 1157 -116 l 1042 -116 l 1042 0 m 231 -231 l 116 -231 l 116 463 l 0 463 l 0 579 l 116 579 l 116 810 l 231 810 l 231 -231 m 579 -231 l 347 -231 l 347 -116 l 579 -116 l 579 -231 m 1157 -116 l 1273 -116 l 1273 -231 l 1157 -231 l 1157 -116 z "},"会":{"ha":1389,"x_min":0,"x_max":1273,"o":"m 579 1042 l 694 1042 l 694 926 l 579 926 l 579 1042 m 463 926 l 579 926 l 579 810 l 463 810 l 463 926 m 694 926 l 810 926 l 810 810 l 694 810 l 694 926 m 231 810 l 463 810 l 463 694 l 231 694 l 231 810 m 1042 694 l 810 694 l 810 810 l 1042 810 l 1042 694 m 0 694 l 231 694 l 231 579 l 0 579 l 0 694 m 1273 579 l 1042 579 l 1042 694 l 1273 694 l 1273 579 m 1042 579 l 1042 463 l 231 463 l 231 579 l 1042 579 m 1273 231 l 1273 116 l 463 116 l 463 0 l 347 0 l 347 116 l 0 116 l 0 231 l 1273 231 m 926 0 l 1042 0 l 1042 -116 l 926 -116 l 926 0 m 926 -116 l 926 -231 l 116 -231 l 116 -116 l 231 -116 l 231 0 l 347 0 l 347 -116 l 926 -116 m 1042 -116 l 1157 -116 l 1157 -231 l 1042 -231 l 1042 -116 z "},"伞":{"ha":1389,"x_min":0,"x_max":1273,"o":"m 579 1042 l 694 1042 l 694 926 l 579 926 l 579 1042 m 463 926 l 579 926 l 579 810 l 463 810 l 463 926 m 694 926 l 810 926 l 810 810 l 694 810 l 694 926 m 231 810 l 463 810 l 463 694 l 231 694 l 231 810 m 1042 694 l 810 694 l 810 810 l 1042 810 l 1042 694 m 0 694 l 231 694 l 231 579 l 0 579 l 0 694 m 1273 579 l 1042 579 l 1042 694 l 1273 694 l 1273 579 m 231 463 l 347 463 l 347 347 l 231 347 l 231 463 m 926 463 l 1042 463 l 1042 347 l 926 347 l 926 463 m 1273 231 l 1273 116 l 694 116 l 694 -231 l 579 -231 l 579 116 l 0 116 l 0 231 l 347 231 l 347 347 l 463 347 l 463 231 l 579 231 l 579 694 l 694 694 l 694 231 l 810 231 l 810 347 l 926 347 l 926 231 l 1273 231 z "},"伟":{"ha":1389,"x_min":0,"x_max":1273,"o":"m 231 1042 l 347 1042 l 347 810 l 231 810 l 231 1042 m 1157 -116 l 926 -116 l 926 0 l 1157 0 l 1157 -116 m 231 -231 l 116 -231 l 116 463 l 0 463 l 0 579 l 116 579 l 116 810 l 231 810 l 231 -231 m 694 810 l 694 1042 l 810 1042 l 810 810 l 1273 810 l 1273 694 l 810 694 l 810 579 l 1157 579 l 1157 463 l 810 463 l 810 347 l 1273 347 l 1273 0 l 1157 0 l 1157 231 l 810 231 l 810 -231 l 694 -231 l 694 231 l 347 231 l 347 347 l 694 347 l 694 463 l 463 463 l 463 579 l 694 579 l 694 694 l 347 694 l 347 810 l 694 810 z "},"传":{"ha":1389,"x_min":0,"x_max":1273,"o":"m 231 1042 l 347 1042 l 347 810 l 231 810 l 231 1042 m 1273 463 l 694 463 l 694 347 l 1157 347 l 1157 116 l 1042 116 l 1042 231 l 463 231 l 463 347 l 579 347 l 579 463 l 347 463 l 347 579 l 694 579 l 694 810 l 463 810 l 463 926 l 810 926 l 810 1042 l 926 1042 l 926 926 l 1157 926 l 1157 810 l 810 810 l 810 579 l 1273 579 l 1273 463 m 579 116 l 694 116 l 694 0 l 579 0 l 579 116 m 926 116 l 1042 116 l 1042 0 l 926 0 l 926 116 m 926 -116 l 694 -116 l 694 0 l 926 0 l 926 -116 m 231 -231 l 116 -231 l 116 463 l 0 463 l 0 579 l 116 579 l 116 810 l 231 810 l 231 -231 m 926 -116 l 1042 -116 l 1042 -231 l 926 -231 l 926 -116 z "},"伤":{"ha":1389,"x_min":0,"x_max":1273,"o":"m 231 1042 l 347 1042 l 347 810 l 231 810 l 231 1042 m 1273 926 l 1273 810 l 579 810 l 579 1042 l 694 1042 l 694 926 l 1273 926 m 463 810 l 579 810 l 579 694 l 463 694 l 463 810 m 347 694 l 463 694 l 463 579 l 347 579 l 347 694 m 579 116 l 694 116 l 694 -116 l 579 -116 l 579 116 m 1157 347 l 810 347 l 810 116 l 694 116 l 694 347 l 463 347 l 463 463 l 694 463 l 694 694 l 810 694 l 810 463 l 1273 463 l 1273 -116 l 1157 -116 l 1157 347 m 231 -231 l 116 -231 l 116 463 l 0 463 l 0 579 l 116 579 l 116 810 l 231 810 l 231 -231 m 463 -116 l 579 -116 l 579 -231 l 463 -231 l 463 -116 m 1157 -231 l 926 -231 l 926 -116 l 1157 -116 l 1157 -231 z "},"伦":{"ha":1389,"x_min":0,"x_max":1273,"o":"m 810 1042 l 926 1042 l 926 926 l 810 926 l 810 1042 m 231 1042 l 347 1042 l 347 810 l 231 810 l 231 1042 m 694 926 l 810 926 l 810 810 l 694 810 l 694 926 m 926 926 l 1042 926 l 1042 810 l 926 810 l 926 926 m 579 810 l 694 810 l 694 694 l 579 694 l 579 810 m 1042 810 l 1157 810 l 1157 694 l 1042 694 l 1042 810 m 579 579 l 347 579 l 347 694 l 579 694 l 579 579 m 1157 694 l 1273 694 l 1273 579 l 1157 579 l 1157 694 m 1042 463 l 1157 463 l 1157 347 l 1042 347 l 1042 463 m 926 347 l 1042 347 l 1042 231 l 926 231 l 926 347 m 579 579 l 694 579 l 694 231 l 926 231 l 926 116 l 694 116 l 694 -116 l 579 -116 l 579 579 m 231 -231 l 116 -231 l 116 463 l 0 463 l 0 579 l 116 579 l 116 810 l 231 810 l 231 -231 m 1157 116 l 1273 116 l 1273 -231 l 694 -231 l 694 -116 l 1157 -116 l 1157 116 z "},"伪":{"ha":1389,"x_min":0,"x_max":1273,"o":"m 463 1042 l 579 1042 l 579 926 l 463 926 l 463 1042 m 231 1042 l 347 1042 l 347 810 l 231 810 l 231 1042 m 579 926 l 694 926 l 694 810 l 579 810 l 579 926 m 926 347 l 1042 347 l 1042 116 l 926 116 l 926 347 m 579 231 l 694 231 l 694 0 l 579 0 l 579 231 m 463 0 l 579 0 l 579 -116 l 463 -116 l 463 0 m 1157 579 l 810 579 l 810 463 l 926 463 l 926 347 l 810 347 l 810 231 l 694 231 l 694 579 l 347 579 l 347 694 l 810 694 l 810 1042 l 926 1042 l 926 694 l 1273 694 l 1273 -116 l 1157 -116 l 1157 579 m 231 -231 l 116 -231 l 116 463 l 0 463 l 0 579 l 116 579 l 116 810 l 231 810 l 231 -231 m 347 -116 l 463 -116 l 463 -231 l 347 -231 l 347 -116 m 1157 -231 l 926 -231 l 926 -116 l 1157 -116 l 1157 -231 z "},"伯":{"ha":1389,"x_min":0,"x_max":1273,"o":"m 810 1042 l 926 1042 l 926 926 l 810 926 l 810 1042 m 231 1042 l 347 1042 l 347 810 l 231 810 l 231 1042 m 231 -231 l 116 -231 l 116 463 l 0 463 l 0 579 l 116 579 l 116 810 l 231 810 l 231 -231 m 579 347 l 1157 347 l 1157 694 l 579 694 l 579 347 m 579 -116 l 1157 -116 l 1157 231 l 579 231 l 579 -116 m 463 810 l 694 810 l 694 926 l 810 926 l 810 810 l 1273 810 l 1273 -231 l 463 -231 l 463 810 z "},"估":{"ha":1389,"x_min":0,"x_max":1273,"o":"m 231 1042 l 347 1042 l 347 810 l 231 810 l 231 1042 m 231 -231 l 116 -231 l 116 463 l 0 463 l 0 579 l 116 579 l 116 810 l 231 810 l 231 -231 m 1157 -231 l 463 -231 l 463 347 l 810 347 l 810 694 l 347 694 l 347 810 l 810 810 l 810 1042 l 926 1042 l 926 810 l 1273 810 l 1273 694 l 926 694 l 926 347 l 1157 347 l 1157 -231 m 1042 231 l 579 231 l 579 -116 l 1042 -116 l 1042 231 z "},"伴":{"ha":1389,"x_min":0,"x_max":1273,"o":"m 231 1042 l 347 1042 l 347 810 l 231 810 l 231 1042 m 463 926 l 579 926 l 579 810 l 463 810 l 463 926 m 1157 926 l 1273 926 l 1273 810 l 1157 810 l 1157 926 m 579 810 l 694 810 l 694 694 l 579 694 l 579 810 m 1042 810 l 1157 810 l 1157 694 l 1042 694 l 1042 810 m 231 -231 l 116 -231 l 116 463 l 0 463 l 0 579 l 116 579 l 116 810 l 231 810 l 231 -231 m 1273 231 l 1273 116 l 926 116 l 926 -231 l 810 -231 l 810 116 l 347 116 l 347 231 l 810 231 l 810 463 l 463 463 l 463 579 l 810 579 l 810 1042 l 926 1042 l 926 579 l 1273 579 l 1273 463 l 926 463 l 926 231 l 1273 231 z "},"伶":{"ha":1389,"x_min":0,"x_max":1273,"o":"m 810 1042 l 926 1042 l 926 926 l 810 926 l 810 1042 m 231 1042 l 347 1042 l 347 810 l 231 810 l 231 1042 m 694 926 l 810 926 l 810 810 l 694 810 l 694 926 m 926 926 l 1042 926 l 1042 810 l 926 810 l 926 926 m 579 810 l 694 810 l 694 694 l 579 694 l 579 810 m 1042 810 l 1157 810 l 1157 694 l 1042 694 l 1042 810 m 579 579 l 347 579 l 347 694 l 579 694 l 579 579 m 1157 694 l 1273 694 l 1273 579 l 1157 579 l 1157 694 m 810 579 l 926 579 l 926 463 l 810 463 l 810 579 m 926 347 l 926 463 l 1042 463 l 1042 347 l 1273 347 l 1273 231 l 1157 231 l 1157 116 l 1042 116 l 1042 231 l 463 231 l 463 347 l 926 347 m 694 116 l 810 116 l 810 0 l 694 0 l 694 116 m 926 116 l 1042 116 l 1042 0 l 926 0 l 926 116 m 810 0 l 926 0 l 926 -116 l 810 -116 l 810 0 m 231 -231 l 116 -231 l 116 463 l 0 463 l 0 579 l 116 579 l 116 810 l 231 810 l 231 -231 m 1157 -231 l 926 -231 l 926 -116 l 1157 -116 l 1157 -231 z "},"伸":{"ha":1389,"x_min":0,"x_max":1273,"o":"m 231 1042 l 347 1042 l 347 810 l 231 810 l 231 1042 m 231 -231 l 116 -231 l 116 463 l 0 463 l 0 579 l 116 579 l 116 810 l 231 810 l 231 -231 m 810 347 l 579 347 l 579 116 l 810 116 l 810 347 m 810 694 l 579 694 l 579 463 l 810 463 l 810 694 m 1157 116 l 1157 347 l 926 347 l 926 116 l 1157 116 m 926 694 l 926 463 l 1157 463 l 1157 694 l 926 694 m 463 810 l 810 810 l 810 1042 l 926 1042 l 926 810 l 1273 810 l 1273 0 l 926 0 l 926 -231 l 810 -231 l 810 0 l 463 0 l 463 810 z "},"伺":{"ha":1389,"x_min":0,"x_max":1273,"o":"m 231 1042 l 347 1042 l 347 810 l 231 810 l 231 1042 m 1042 694 l 463 694 l 463 810 l 1042 810 l 1042 694 m 1042 0 l 463 0 l 463 579 l 1042 579 l 1042 0 m 926 463 l 579 463 l 579 116 l 926 116 l 926 463 m 231 -231 l 116 -231 l 116 463 l 0 463 l 0 579 l 116 579 l 116 810 l 231 810 l 231 -231 m 1157 926 l 463 926 l 463 1042 l 1273 1042 l 1273 -231 l 926 -231 l 926 -116 l 1157 -116 l 1157 926 z "},"似":{"ha":1389,"x_min":0,"x_max":1273,"o":"m 694 1042 l 810 1042 l 810 926 l 694 926 l 694 1042 m 231 1042 l 347 1042 l 347 810 l 231 810 l 231 1042 m 810 926 l 926 926 l 926 694 l 810 694 l 810 926 m 1042 1042 l 1157 1042 l 1157 463 l 1042 463 l 1042 1042 m 694 347 l 810 347 l 810 231 l 694 231 l 694 347 m 926 463 l 1042 463 l 1042 231 l 926 231 l 926 463 m 463 926 l 579 926 l 579 231 l 694 231 l 694 116 l 579 116 l 579 0 l 463 0 l 463 926 m 810 231 l 926 231 l 926 0 l 810 0 l 810 231 m 1042 231 l 1157 231 l 1157 0 l 1042 0 l 1042 231 m 694 0 l 810 0 l 810 -116 l 694 -116 l 694 0 m 231 -231 l 116 -231 l 116 463 l 0 463 l 0 579 l 116 579 l 116 810 l 231 810 l 231 -231 m 579 -116 l 694 -116 l 694 -231 l 579 -231 l 579 -116 m 1157 0 l 1273 0 l 1273 -231 l 1157 -231 l 1157 0 z "},"佃":{"ha":1389,"x_min":0,"x_max":1273,"o":"m 231 1042 l 347 1042 l 347 810 l 231 810 l 231 1042 m 231 -231 l 116 -231 l 116 463 l 0 463 l 0 579 l 116 579 l 116 810 l 231 810 l 231 -231 m 926 347 l 926 -116 l 1157 -116 l 1157 347 l 926 347 m 1157 463 l 1157 926 l 926 926 l 926 463 l 1157 463 m 579 -116 l 810 -116 l 810 347 l 579 347 l 579 -116 m 579 463 l 810 463 l 810 926 l 579 926 l 579 463 m 463 1042 l 1273 1042 l 1273 -231 l 463 -231 l 463 1042 z "},"但":{"ha":1389,"x_min":0,"x_max":1273,"o":"m 231 1042 l 347 1042 l 347 810 l 231 810 l 231 1042 m 579 116 l 1042 116 l 1042 463 l 579 463 l 579 116 m 579 579 l 1042 579 l 1042 926 l 579 926 l 579 579 m 463 1042 l 1157 1042 l 1157 0 l 463 0 l 463 1042 m 231 -231 l 116 -231 l 116 463 l 0 463 l 0 579 l 116 579 l 116 810 l 231 810 l 231 -231 m 1273 -231 l 347 -231 l 347 -116 l 1273 -116 l 1273 -231 z "},"位":{"ha":1389,"x_min":0,"x_max":1273,"o":"m 694 1042 l 810 1042 l 810 926 l 694 926 l 694 1042 m 231 1042 l 347 1042 l 347 810 l 231 810 l 231 1042 m 1273 810 l 1273 694 l 347 694 l 347 810 l 810 810 l 810 926 l 926 926 l 926 810 l 1273 810 m 463 579 l 579 579 l 579 347 l 463 347 l 463 579 m 1042 579 l 1157 579 l 1157 231 l 1042 231 l 1042 579 m 579 347 l 694 347 l 694 0 l 579 0 l 579 347 m 926 231 l 1042 231 l 1042 0 l 926 0 l 926 231 m 231 -231 l 116 -231 l 116 463 l 0 463 l 0 579 l 116 579 l 116 810 l 231 810 l 231 -231 m 1273 -231 l 347 -231 l 347 -116 l 810 -116 l 810 0 l 926 0 l 926 -116 l 1273 -116 l 1273 -231 z "},"低":{"ha":1389,"x_min":0,"x_max":1273,"o":"m 1157 926 l 926 926 l 926 1042 l 1157 1042 l 1157 926 m 231 1042 l 347 1042 l 347 810 l 231 810 l 231 1042 m 926 231 l 1042 231 l 1042 0 l 926 0 l 926 231 m 694 0 l 810 0 l 810 -116 l 694 -116 l 694 0 m 231 -231 l 116 -231 l 116 463 l 0 463 l 0 579 l 116 579 l 116 810 l 231 810 l 231 -231 m 579 463 l 810 463 l 810 810 l 579 810 l 579 463 m 463 926 l 926 926 l 926 463 l 1273 463 l 1273 347 l 926 347 l 926 231 l 810 231 l 810 347 l 579 347 l 579 -116 l 694 -116 l 694 -231 l 463 -231 l 463 926 m 810 -116 l 926 -116 l 926 -231 l 810 -231 l 810 -116 m 1042 0 l 1157 0 l 1157 116 l 1273 116 l 1273 -231 l 1157 -231 l 1157 -116 l 1042 -116 l 1042 0 z "},"住":{"ha":1389,"x_min":0,"x_max":1273,"o":"m 694 1042 l 810 1042 l 810 926 l 694 926 l 694 1042 m 231 1042 l 347 1042 l 347 810 l 231 810 l 231 1042 m 231 -231 l 116 -231 l 116 463 l 0 463 l 0 579 l 116 579 l 116 810 l 231 810 l 231 -231 m 1273 -231 l 347 -231 l 347 -116 l 810 -116 l 810 231 l 463 231 l 463 347 l 810 347 l 810 694 l 347 694 l 347 810 l 810 810 l 810 926 l 926 926 l 926 810 l 1273 810 l 1273 694 l 926 694 l 926 347 l 1157 347 l 1157 231 l 926 231 l 926 -116 l 1273 -116 l 1273 -231 z "},"佐":{"ha":1389,"x_min":0,"x_max":1273,"o":"m 231 1042 l 347 1042 l 347 810 l 231 810 l 231 1042 m 694 1042 l 810 1042 l 810 810 l 1273 810 l 1273 694 l 694 694 l 694 347 l 579 347 l 579 694 l 347 694 l 347 810 l 694 810 l 694 1042 m 463 347 l 579 347 l 579 0 l 463 0 l 463 347 m 347 0 l 463 0 l 463 -116 l 347 -116 l 347 0 m 231 -231 l 116 -231 l 116 463 l 0 463 l 0 579 l 116 579 l 116 810 l 231 810 l 231 -231 m 926 231 l 694 231 l 694 347 l 1273 347 l 1273 231 l 1042 231 l 1042 -116 l 1273 -116 l 1273 -231 l 579 -231 l 579 -116 l 926 -116 l 926 231 z "},"佑":{"ha":1389,"x_min":0,"x_max":1273,"o":"m 231 1042 l 347 1042 l 347 810 l 231 810 l 231 1042 m 810 1042 l 926 1042 l 926 810 l 1273 810 l 1273 694 l 810 694 l 810 463 l 694 463 l 694 694 l 347 694 l 347 810 l 810 810 l 810 1042 m 347 116 l 463 116 l 463 0 l 347 0 l 347 116 m 231 -231 l 116 -231 l 116 463 l 0 463 l 0 579 l 116 579 l 116 810 l 231 810 l 231 -231 m 1157 231 l 694 231 l 694 -116 l 1157 -116 l 1157 231 m 1273 -231 l 579 -231 l 579 116 l 463 116 l 463 231 l 579 231 l 579 463 l 694 463 l 694 347 l 1273 347 l 1273 -231 z "},"体":{"ha":1389,"x_min":0,"x_max":1273,"o":"m 231 1042 l 347 1042 l 347 810 l 231 810 l 231 1042 m 463 463 l 579 463 l 579 231 l 463 231 l 463 463 m 926 463 l 1042 463 l 1042 231 l 926 231 l 926 463 m 347 231 l 463 231 l 463 116 l 347 116 l 347 231 m 1042 231 l 1157 231 l 1157 116 l 1042 116 l 1042 231 m 1157 116 l 1273 116 l 1273 0 l 1157 0 l 1157 116 m 231 116 l 347 116 l 347 0 l 231 0 l 231 -231 l 116 -231 l 116 463 l 0 463 l 0 579 l 116 579 l 116 810 l 231 810 l 231 116 m 694 810 l 694 1042 l 810 1042 l 810 810 l 1273 810 l 1273 694 l 810 694 l 810 579 l 926 579 l 926 463 l 810 463 l 810 116 l 1042 116 l 1042 0 l 810 0 l 810 -231 l 694 -231 l 694 0 l 463 0 l 463 116 l 694 116 l 694 463 l 579 463 l 579 579 l 694 579 l 694 694 l 347 694 l 347 810 l 694 810 z "},"何":{"ha":1389,"x_min":0,"x_max":1273,"o":"m 231 1042 l 347 1042 l 347 810 l 231 810 l 231 1042 m 810 579 l 579 579 l 579 231 l 810 231 l 810 579 m 463 694 l 926 694 l 926 116 l 463 116 l 463 694 m 231 -231 l 116 -231 l 116 463 l 0 463 l 0 579 l 116 579 l 116 810 l 231 810 l 231 -231 m 1042 926 l 463 926 l 463 1042 l 1273 1042 l 1273 926 l 1157 926 l 1157 -231 l 810 -231 l 810 -116 l 1042 -116 l 1042 926 z "},"佘":{"ha":1389,"x_min":0,"x_max":1273,"o":"m 579 1042 l 694 1042 l 694 926 l 579 926 l 579 1042 m 463 926 l 579 926 l 579 810 l 463 810 l 463 926 m 694 926 l 810 926 l 810 810 l 694 810 l 694 926 m 0 694 l 231 694 l 231 579 l 0 579 l 0 694 m 810 694 l 810 810 l 1042 810 l 1042 694 l 926 694 l 926 579 l 347 579 l 347 694 l 231 694 l 231 810 l 463 810 l 463 694 l 810 694 m 1273 579 l 1042 579 l 1042 694 l 1273 694 l 1273 579 m 231 116 l 347 116 l 347 0 l 231 0 l 231 116 m 926 116 l 1042 116 l 1042 0 l 926 0 l 926 116 m 0 0 l 231 0 l 231 -116 l 0 -116 l 0 0 m 1042 0 l 1273 0 l 1273 -116 l 1042 -116 l 1042 0 m 694 -231 l 463 -231 l 463 -116 l 579 -116 l 579 231 l 116 231 l 116 347 l 1157 347 l 1157 231 l 694 231 l 694 -231 z "},"余":{"ha":1389,"x_min":0,"x_max":1273,"o":"m 579 1042 l 694 1042 l 694 926 l 579 926 l 579 1042 m 463 926 l 579 926 l 579 810 l 463 810 l 463 926 m 694 926 l 810 926 l 810 810 l 694 810 l 694 926 m 0 694 l 231 694 l 231 579 l 0 579 l 0 694 m 1273 579 l 1042 579 l 1042 694 l 1273 694 l 1273 579 m 231 116 l 347 116 l 347 0 l 231 0 l 231 116 m 926 116 l 1042 116 l 1042 0 l 926 0 l 926 116 m 0 0 l 231 0 l 231 -116 l 0 -116 l 0 0 m 1042 0 l 1273 0 l 1273 -116 l 1042 -116 l 1042 0 m 347 694 l 231 694 l 231 810 l 463 810 l 463 694 l 810 694 l 810 810 l 1042 810 l 1042 694 l 926 694 l 926 579 l 694 579 l 694 347 l 1157 347 l 1157 231 l 694 231 l 694 -231 l 463 -231 l 463 -116 l 579 -116 l 579 231 l 116 231 l 116 347 l 579 347 l 579 579 l 347 579 l 347 694 z "},"佛":{"ha":1389,"x_min":0,"x_max":1273,"o":"m 231 1042 l 347 1042 l 347 810 l 231 810 l 231 1042 m 463 0 l 579 0 l 579 -116 l 463 -116 l 463 0 m 231 -231 l 116 -231 l 116 463 l 0 463 l 0 579 l 116 579 l 116 810 l 231 810 l 231 -231 m 347 -116 l 463 -116 l 463 -231 l 347 -231 l 347 -116 m 463 463 l 463 347 l 579 347 l 579 463 l 463 463 m 926 463 l 694 463 l 694 347 l 926 347 l 926 463 m 1042 0 l 1157 0 l 1157 231 l 1042 231 l 1042 0 m 1157 579 l 1157 694 l 1042 694 l 1042 579 l 1157 579 m 694 579 l 926 579 l 926 694 l 694 694 l 694 579 m 579 810 l 579 1042 l 694 1042 l 694 810 l 926 810 l 926 1042 l 1042 1042 l 1042 810 l 1273 810 l 1273 463 l 1042 463 l 1042 347 l 1273 347 l 1273 -116 l 1042 -116 l 1042 -231 l 926 -231 l 926 231 l 694 231 l 694 0 l 579 0 l 579 231 l 347 231 l 347 579 l 579 579 l 579 694 l 347 694 l 347 810 l 579 810 z "},"作":{"ha":1389,"x_min":0,"x_max":1273,"o":"m 231 1042 l 347 1042 l 347 810 l 231 810 l 231 1042 m 463 694 l 579 694 l 579 579 l 463 579 l 463 694 m 347 579 l 463 579 l 463 463 l 347 463 l 347 579 m 231 -231 l 116 -231 l 116 463 l 0 463 l 0 579 l 116 579 l 116 810 l 231 810 l 231 -231 m 694 694 l 579 694 l 579 1042 l 694 1042 l 694 810 l 1273 810 l 1273 694 l 810 694 l 810 463 l 1273 463 l 1273 347 l 810 347 l 810 116 l 1273 116 l 1273 0 l 810 0 l 810 -231 l 694 -231 l 694 694 z "},"你":{"ha":1389,"x_min":0,"x_max":1273,"o":"m 231 1042 l 347 1042 l 347 810 l 231 810 l 231 1042 m 347 694 l 463 694 l 463 579 l 347 579 l 347 694 m 1273 926 l 1273 579 l 1157 579 l 1157 810 l 579 810 l 579 694 l 463 694 l 463 1042 l 579 1042 l 579 926 l 1273 926 m 579 463 l 694 463 l 694 231 l 579 231 l 579 463 m 1042 463 l 1157 463 l 1157 231 l 1042 231 l 1042 463 m 463 231 l 579 231 l 579 116 l 463 116 l 463 231 m 347 116 l 463 116 l 463 0 l 347 0 l 347 116 m 1157 231 l 1273 231 l 1273 0 l 1157 0 l 1157 231 m 231 -231 l 116 -231 l 116 463 l 0 463 l 0 579 l 116 579 l 116 810 l 231 810 l 231 -231 m 810 694 l 926 694 l 926 -231 l 694 -231 l 694 -116 l 810 -116 l 810 694 z "},"佣":{"ha":1389,"x_min":0,"x_max":1273,"o":"m 231 1042 l 347 1042 l 347 810 l 231 810 l 231 1042 m 231 -231 l 116 -231 l 116 463 l 0 463 l 0 579 l 116 579 l 116 810 l 231 810 l 231 -231 m 347 -116 l 463 -116 l 463 -231 l 347 -231 l 347 -116 m 1157 926 l 926 926 l 926 694 l 1157 694 l 1157 926 m 1157 579 l 926 579 l 926 347 l 1157 347 l 1157 579 m 579 579 l 579 347 l 810 347 l 810 579 l 579 579 m 579 694 l 810 694 l 810 926 l 579 926 l 579 694 m 463 1042 l 1273 1042 l 1273 -231 l 1042 -231 l 1042 -116 l 1157 -116 l 1157 231 l 926 231 l 926 -231 l 810 -231 l 810 231 l 579 231 l 579 -116 l 463 -116 l 463 1042 z "},"佩":{"ha":1389,"x_min":0,"x_max":1273,"o":"m 116 810 l 231 810 l 231 -116 l 347 -116 l 347 -231 l 116 -231 l 116 463 l 0 463 l 0 579 l 116 579 l 116 810 m 694 116 l 810 116 l 810 463 l 694 463 l 694 116 m 463 579 l 579 579 l 579 694 l 463 694 l 463 579 m 347 810 l 231 810 l 231 1042 l 1157 1042 l 1157 0 l 1273 0 l 1273 -231 l 1157 -231 l 1157 -116 l 1042 -116 l 1042 926 l 463 926 l 463 810 l 926 810 l 926 694 l 694 694 l 694 579 l 926 579 l 926 0 l 694 0 l 694 -231 l 579 -231 l 579 463 l 463 463 l 463 -116 l 347 -116 l 347 810 z "},"佳":{"ha":1389,"x_min":0,"x_max":1273,"o":"m 231 1042 l 347 1042 l 347 810 l 231 810 l 231 1042 m 1273 463 l 347 463 l 347 579 l 810 579 l 810 810 l 463 810 l 463 926 l 810 926 l 810 1042 l 926 1042 l 926 926 l 1157 926 l 1157 810 l 926 810 l 926 579 l 1273 579 l 1273 463 m 231 -231 l 116 -231 l 116 463 l 0 463 l 0 579 l 116 579 l 116 810 l 231 810 l 231 -231 m 1157 231 l 1157 116 l 926 116 l 926 -116 l 1273 -116 l 1273 -231 l 347 -231 l 347 -116 l 810 -116 l 810 116 l 463 116 l 463 231 l 810 231 l 810 347 l 926 347 l 926 231 l 1157 231 z "},"使":{"ha":1389,"x_min":0,"x_max":1273,"o":"m 231 1042 l 347 1042 l 347 810 l 231 810 l 231 1042 m 579 579 l 579 347 l 810 347 l 810 579 l 579 579 m 1273 231 l 926 231 l 926 116 l 810 116 l 810 231 l 694 231 l 694 116 l 579 116 l 579 231 l 463 231 l 463 694 l 810 694 l 810 810 l 463 810 l 463 926 l 810 926 l 810 1042 l 926 1042 l 926 926 l 1273 926 l 1273 810 l 926 810 l 926 694 l 1273 694 l 1273 231 m 1157 579 l 926 579 l 926 347 l 1157 347 l 1157 579 m 694 116 l 810 116 l 810 0 l 694 0 l 694 116 m 579 0 l 694 0 l 694 -116 l 579 -116 l 579 0 m 810 0 l 926 0 l 926 -116 l 810 -116 l 810 0 m 231 -231 l 116 -231 l 116 463 l 0 463 l 0 579 l 116 579 l 116 810 l 231 810 l 231 -231 m 579 -231 l 347 -231 l 347 -116 l 579 -116 l 579 -231 m 1273 -116 l 1273 -231 l 926 -231 l 926 -116 l 1273 -116 z "},"侄":{"ha":1389,"x_min":0,"x_max":1273,"o":"m 231 1042 l 347 1042 l 347 810 l 231 810 l 231 1042 m 1273 1042 l 1273 926 l 926 926 l 926 810 l 810 810 l 810 926 l 463 926 l 463 1042 l 1273 1042 m 694 810 l 810 810 l 810 694 l 694 694 l 694 810 m 1042 694 l 1157 694 l 1157 579 l 1042 579 l 1042 694 m 1157 579 l 1273 579 l 1273 463 l 1157 463 l 1157 579 m 231 -231 l 116 -231 l 116 463 l 0 463 l 0 579 l 116 579 l 116 810 l 231 810 l 231 -231 m 1273 231 l 1273 116 l 926 116 l 926 -116 l 1273 -116 l 1273 -231 l 347 -231 l 347 -116 l 810 -116 l 810 116 l 463 116 l 463 231 l 810 231 l 810 463 l 463 463 l 463 579 l 579 579 l 579 694 l 694 694 l 694 579 l 1042 579 l 1042 463 l 926 463 l 926 231 l 1273 231 z "},"侈":{"ha":1389,"x_min":0,"x_max":1273,"o":"m 231 1042 l 347 1042 l 347 810 l 231 810 l 231 1042 m 694 694 l 463 694 l 463 810 l 694 810 l 694 694 m 694 926 l 810 926 l 810 1042 l 926 1042 l 926 926 l 1273 926 l 1273 694 l 1157 694 l 1157 810 l 694 810 l 694 926 m 694 694 l 810 694 l 810 579 l 694 579 l 694 694 m 1042 694 l 1157 694 l 1157 579 l 1042 579 l 1042 694 m 810 579 l 1042 579 l 1042 463 l 810 463 l 810 579 m 463 231 l 694 231 l 694 116 l 463 116 l 463 231 m 1273 347 l 1273 116 l 1157 116 l 1157 231 l 694 231 l 694 347 l 463 347 l 463 463 l 810 463 l 810 347 l 1273 347 m 694 116 l 810 116 l 810 0 l 694 0 l 694 116 m 1042 116 l 1157 116 l 1157 0 l 1042 0 l 1042 116 m 810 0 l 1042 0 l 1042 -116 l 810 -116 l 810 0 m 231 -231 l 116 -231 l 116 463 l 0 463 l 0 579 l 116 579 l 116 810 l 231 810 l 231 -231 m 463 -116 l 810 -116 l 810 -231 l 463 -231 l 463 -116 z "},"例":{"ha":1389,"x_min":0,"x_max":1273,"o":"m 347 579 l 463 579 l 463 347 l 347 347 l 347 579 m 463 347 l 579 347 l 579 231 l 463 231 l 463 347 m 463 926 l 347 926 l 347 810 l 231 810 l 231 1042 l 810 1042 l 810 926 l 579 926 l 579 694 l 810 694 l 810 231 l 694 231 l 694 579 l 463 579 l 463 926 m 926 926 l 1042 926 l 1042 116 l 926 116 l 926 926 m 579 231 l 694 231 l 694 0 l 579 0 l 579 231 m 463 0 l 579 0 l 579 -116 l 463 -116 l 463 0 m 231 -231 l 116 -231 l 116 463 l 0 463 l 0 579 l 116 579 l 116 810 l 231 810 l 231 -231 m 347 -116 l 463 -116 l 463 -231 l 347 -231 l 347 -116 m 1157 1042 l 1273 1042 l 1273 -231 l 926 -231 l 926 -116 l 1157 -116 l 1157 1042 z "},"侍":{"ha":1389,"x_min":0,"x_max":1273,"o":"m 231 1042 l 347 1042 l 347 810 l 231 810 l 231 1042 m 694 116 l 810 116 l 810 0 l 694 0 l 694 116 m 231 -231 l 116 -231 l 116 463 l 0 463 l 0 579 l 116 579 l 116 810 l 231 810 l 231 -231 m 1042 231 l 694 231 l 694 116 l 579 116 l 579 231 l 463 231 l 463 347 l 1042 347 l 1042 463 l 463 463 l 463 579 l 810 579 l 810 810 l 579 810 l 579 926 l 810 926 l 810 1042 l 926 1042 l 926 926 l 1157 926 l 1157 810 l 926 810 l 926 579 l 1273 579 l 1273 463 l 1157 463 l 1157 347 l 1273 347 l 1273 231 l 1157 231 l 1157 -231 l 810 -231 l 810 -116 l 1042 -116 l 1042 231 z "},"供":{"ha":1389,"x_min":0,"x_max":1273,"o":"m 231 1042 l 347 1042 l 347 810 l 231 810 l 231 1042 m 694 347 l 926 347 l 926 694 l 694 694 l 694 347 m 579 810 l 579 1042 l 694 1042 l 694 810 l 926 810 l 926 1042 l 1042 1042 l 1042 810 l 1273 810 l 1273 694 l 1042 694 l 1042 347 l 1273 347 l 1273 231 l 347 231 l 347 347 l 579 347 l 579 694 l 347 694 l 347 810 l 579 810 m 579 116 l 694 116 l 694 0 l 579 0 l 579 116 m 926 116 l 1042 116 l 1042 0 l 926 0 l 926 116 m 463 0 l 579 0 l 579 -116 l 463 -116 l 463 0 m 1042 0 l 1157 0 l 1157 -116 l 1042 -116 l 1042 0 m 231 -231 l 116 -231 l 116 463 l 0 463 l 0 579 l 116 579 l 116 810 l 231 810 l 231 -231 m 347 -116 l 463 -116 l 463 -231 l 347 -231 l 347 -116 m 1157 -116 l 1273 -116 l 1273 -231 l 1157 -231 l 1157 -116 z "},"依":{"ha":1389,"x_min":0,"x_max":1273,"o":"m 694 1042 l 810 1042 l 810 926 l 694 926 l 694 1042 m 231 1042 l 347 1042 l 347 810 l 231 810 l 231 1042 m 1273 810 l 1273 694 l 810 694 l 810 579 l 694 579 l 694 694 l 347 694 l 347 810 l 810 810 l 810 926 l 926 926 l 926 810 l 1273 810 m 579 579 l 694 579 l 694 463 l 579 463 l 579 579 m 1157 463 l 1273 463 l 1273 347 l 1157 347 l 1157 463 m 810 579 l 926 579 l 926 231 l 810 231 l 810 579 m 1042 347 l 1157 347 l 1157 231 l 1042 231 l 1042 347 m 926 231 l 1042 231 l 1042 0 l 926 0 l 926 231 m 694 0 l 810 0 l 810 -116 l 694 -116 l 694 0 m 1042 0 l 1157 0 l 1157 -116 l 1042 -116 l 1042 0 m 231 -231 l 116 -231 l 116 463 l 0 463 l 0 579 l 116 579 l 116 810 l 231 810 l 231 -231 m 463 231 l 347 231 l 347 347 l 463 347 l 463 463 l 579 463 l 579 -116 l 694 -116 l 694 -231 l 463 -231 l 463 231 m 1157 -116 l 1273 -116 l 1273 -231 l 1157 -231 l 1157 -116 z "}}}
